<svg width="92" height="92" viewBox="0 0 92 92" fill="none" xmlns="http://www.w3.org/2000/svg">
<circle cx="46" cy="46" r="45.5" fill="#1B8976" fill-opacity="0.05" stroke="#1B8976"/>
<path d="M35.6736 34.2688C35.54 38.1177 37.8331 41.4557 38.3382 45.1943C38.3672 45.4266 38.6691 45.5543 38.8723 45.4962C39.1219 45.4324 39.209 45.1943 39.1742 44.9621C38.6807 41.3106 36.4108 38.0306 36.5386 34.2688C36.5676 33.7057 35.6968 33.7115 35.6736 34.2688Z" fill="#1B8976"/>
<path d="M53.8719 26.2735C53.9764 26.0761 53.9299 25.7917 53.7152 25.6755C52.885 25.246 51.991 24.9267 51.0679 24.7873C50.8415 24.7525 50.5919 24.8454 50.5339 25.0892C50.4874 25.2982 50.5977 25.5885 50.8357 25.6233C51.2711 25.6872 53.0766 26.3199 53.2798 26.4244C53.4771 26.5347 53.7558 26.4883 53.8719 26.2735Z" fill="#1B8976"/>
<path d="M66.619 24.54C64.593 21.4865 60.3145 22.6649 57.5337 23.797C56.9706 24.0234 56.4133 24.273 55.8618 24.5342C54.6892 23.7505 53.3597 22.9842 51.9839 22.6765C51.4382 22.5546 51.206 23.3964 51.7517 23.5183C52.9243 23.7796 54.0215 24.4181 55.0375 25.0451C55.1245 25.0974 55.229 25.1786 55.3335 25.2541V25.2657C55.2871 28.2438 56.959 29.1669 58.3058 29.9157C58.7587 30.1654 59.1882 30.4034 59.5366 30.6995C60.6047 31.5935 61.2491 32.9403 61.8761 34.2407C62.6772 35.9126 63.4493 37.4858 65.0226 38.0373C64.6917 39.0707 64.3259 40.0866 63.8963 41.0677C63.5538 41.8572 63.1068 42.6293 62.8688 43.4595C62.6308 44.2722 62.5785 45.1198 62.5553 45.9616C62.5379 46.4202 62.5321 46.8788 62.5263 47.3432L60.8195 45.9906C60.7034 45.8977 60.5467 45.8745 60.4074 45.9209C60.268 45.9674 60.1635 46.0835 60.1287 46.2286L59.8326 47.378L58.0678 45.2591C57.9169 45.0734 57.644 45.0501 57.4583 45.2011C57.2725 45.3578 57.2493 45.6307 57.4002 45.8164L59.7107 48.5914C59.792 48.69 59.9197 48.7481 60.0474 48.7481C60.0765 48.7481 60.1113 48.7423 60.1403 48.7365C60.3029 48.7017 60.4248 48.5797 60.4654 48.423L60.8079 47.0936L62.5321 48.4578C62.5437 49.5376 62.5669 50.6232 62.5843 51.7088C62.6482 55.1629 62.6076 58.6577 61.5974 61.99C61.1272 63.5226 60.4538 64.9855 59.5366 66.2975C59.1476 66.8606 58.5787 67.6733 57.795 67.6095C56.9242 67.5398 57.1274 66.4658 57.1158 65.8563C57.0403 62.8491 57.1506 59.6969 56.454 56.7362L57.6963 55.7609L57.9053 56.591C57.9459 56.7478 58.0736 56.8697 58.2304 56.9045C58.2652 56.9161 58.2942 56.9161 58.3291 56.9161C58.4568 56.9161 58.5787 56.8639 58.6658 56.7594L60.3899 54.6869C60.5409 54.5011 60.5177 54.2225 60.3319 54.0716C60.1461 53.9148 59.8733 53.9438 59.7223 54.1296L58.5381 55.5461L58.3755 54.8959C58.3349 54.7508 58.2304 54.6347 58.091 54.5882C57.9517 54.5418 57.795 54.5708 57.6789 54.6579L56.2043 55.8247C56.1463 55.6274 56.0998 55.43 56.0302 55.2326C55.8212 54.6231 55.5193 54.0367 55.1884 53.4794C55.4438 53.0266 55.6993 52.6434 55.9373 52.33C56.0882 52.1384 56.0476 51.8655 55.8618 51.7204C55.6702 51.5695 55.3974 51.6043 55.2465 51.7959C54.0912 53.2994 52.6631 56.1673 52.4251 61.2875C52.3438 63.1046 52.1058 65.6473 51.4556 67.4353C51.3743 67.6617 51.4904 67.9114 51.7168 67.9926C51.7691 68.01 51.8155 68.0217 51.8678 68.0217C52.0477 68.0217 52.2103 67.9114 52.2741 67.7314C52.965 65.8389 53.2088 63.2033 53.2959 61.3282C53.441 58.2281 54.0273 56.0105 54.7124 54.4431C55.3103 55.6274 55.6528 56.8871 55.856 58.2223C56.1173 59.9523 56.1405 61.7113 56.1869 63.4587C56.2101 64.3527 56.2276 65.2467 56.2508 66.1349C56.2682 66.7619 56.1985 67.505 56.6629 67.9984C57.197 68.5616 58.0562 68.5906 58.718 68.2829C59.3682 67.9868 59.8152 67.4063 60.2216 66.8432C64.2447 61.1656 63.3622 53.9438 63.3971 47.3955C63.4029 46.5189 63.4029 45.6365 63.4958 44.7657C63.5945 43.9065 63.8963 43.1692 64.2505 42.3913C64.7787 41.2419 65.2374 40.075 65.6437 38.8791C66.2301 37.1491 66.7351 35.3901 67.1067 33.5963C67.455 31.9302 67.6988 30.2176 67.6524 28.5109C67.6117 27.1524 67.3853 25.6953 66.619 24.54ZM64.8832 34.0607C64.6452 34.0607 64.4478 33.8691 64.4478 33.6253C64.4478 33.3873 64.6394 33.1899 64.8774 33.1899H64.8832C65.1271 33.1899 65.3186 33.3873 65.3186 33.6253C65.3186 33.8691 65.1271 34.0607 64.8832 34.0607ZM60.9763 25.0567C60.9763 24.8129 61.1679 24.6213 61.4059 24.6213H61.4117C61.6555 24.6213 61.8471 24.8129 61.8471 25.0567C61.8471 25.2947 61.6555 25.4921 61.4117 25.4921C61.1737 25.4921 60.9763 25.2947 60.9763 25.0567ZM62.1199 28.4644C61.8819 28.4644 61.6845 28.2728 61.6845 28.029C61.6845 27.791 61.8761 27.5936 62.1141 27.5936H62.1199C62.3637 27.5936 62.5553 27.791 62.5553 28.029C62.5553 28.2728 62.3637 28.4644 62.1199 28.4644ZM59.1128 27.4021C58.869 27.4021 58.6716 27.2105 58.6716 26.9667C58.6716 26.7286 58.8632 26.5313 59.107 26.5313H59.1128C59.3508 26.5313 59.5482 26.7286 59.5482 26.9667C59.5482 27.2105 59.3508 27.4021 59.1128 27.4021ZM63.0952 30.3918H63.101C63.339 30.3918 63.5364 30.5892 63.5364 30.8272C63.5364 31.071 63.339 31.2626 63.101 31.2626C62.8572 31.2626 62.6598 31.071 62.6598 30.8272C62.6598 30.5892 62.8514 30.3918 63.0952 30.3918ZM65.8876 28.1045C65.8876 28.3425 65.6902 28.5399 65.4522 28.5399C65.2141 28.5399 65.011 28.3425 65.011 28.1045C65.011 27.8607 65.2025 27.6691 65.4463 27.6691H65.4522C65.6902 27.6691 65.8876 27.8607 65.8876 28.1045ZM64.7207 25.6605C64.7207 25.8985 64.5233 26.0959 64.2853 26.0959C64.0415 26.0959 63.8441 25.8985 63.8441 25.6605C63.8441 25.4166 64.0357 25.2251 64.2795 25.2251H64.2853C64.5233 25.2251 64.7207 25.4166 64.7207 25.6605ZM65.5218 31.2277C65.2838 31.2277 65.0864 31.0362 65.0864 30.7923C65.0864 30.5543 65.278 30.3569 65.516 30.3569H65.5218C65.7656 30.3569 65.9572 30.5543 65.9572 30.7923C65.9572 31.0362 65.7656 31.2277 65.5218 31.2277Z" fill="#1B8976"/>
<path d="M49.1011 18.2803C48.8631 18.2803 48.6657 18.4777 48.6657 18.7157V21.9724C47.4466 21.7925 46.2101 21.8447 45.0258 22.2221C43.65 22.6575 42.4425 23.4644 41.3685 24.4107C41.3569 24.4049 41.3453 24.399 41.3336 24.3932C41.1247 24.3062 40.846 24.4861 40.7996 24.6951C40.7415 24.9447 40.875 25.1363 41.1014 25.2292C41.1769 25.2582 41.8039 25.5253 41.9548 25.5949C42.2857 25.7459 42.6108 25.8968 42.9359 26.0536C43.1391 26.1522 43.4177 26.1174 43.5338 25.8968C43.6383 25.6994 43.5977 25.4092 43.3771 25.2989C43.0056 25.1189 42.634 24.9447 42.2567 24.7822C43.1449 24.0391 44.1434 23.4063 45.2522 23.0522C46.361 22.7039 47.5221 22.6575 48.6599 22.8432V25.7052C47.0228 26.1 45.5773 26.9998 43.9809 27.5223C43.2146 27.7719 42.4308 27.9112 41.6239 27.8648C40.6138 27.8009 39.6617 27.4294 38.7909 26.9418C38.3033 26.6689 37.8621 27.4178 38.3497 27.6965C40.1029 28.6717 42.0013 29.0259 43.946 28.4511C45.5715 27.9751 47.0344 27.0521 48.6657 26.6051V69.0475C48.2826 68.7747 47.8646 68.2232 47.4756 67.4453C46.6803 65.8662 46.065 63.5441 45.8211 61.2278C45.4438 58.4935 45.3045 55.8405 45.4496 54.1279C45.5599 52.8334 45.3567 51.9393 45.3509 51.9045C45.2987 51.6723 45.0606 51.5214 44.8284 51.5794C44.5962 51.6317 44.4511 51.8639 44.5033 52.1019C44.5033 52.1077 44.6485 52.7753 44.602 53.7622C41.5659 55.9972 41.4962 60.0435 41.3859 63.4686C41.3627 64.293 41.3336 65.1173 41.2524 65.9417C41.1943 66.528 41.1653 67.7297 40.3874 67.8226C39.9694 67.8749 39.6733 67.4453 39.4353 67.1608C39.1392 66.8125 38.878 66.4351 38.6342 66.0462C38.1175 65.216 37.7053 64.3278 37.357 63.4106C36.7184 61.7271 36.2888 59.9739 35.9521 58.2091C35.8186 57.5124 35.6677 56.81 35.6096 56.1075C35.5109 55.0103 35.5748 53.9015 35.6793 52.8043C35.8941 50.5403 36.3063 48.282 36.2076 46.0005C36.1611 44.8917 35.9928 43.7771 35.598 42.7322C35.151 41.5421 34.524 40.4333 34.0654 39.2432C33.1888 36.9559 32.6025 34.4712 32.3122 32.0388C32.0858 30.1463 31.9581 27.9461 32.8231 26.1813C32.9914 25.833 33.2004 25.5079 33.4675 25.2234C33.8448 24.8112 33.2295 24.1959 32.8521 24.608C31.5517 26.0245 31.2789 28.0796 31.3021 29.9315C31.3311 32.3639 31.8362 34.7963 32.4748 37.1359C32.8347 38.4478 33.2933 39.7192 33.8448 40.9615C34.3499 42.1052 34.9246 43.1792 35.1626 44.4215C35.6038 46.7378 35.2149 49.147 34.9478 51.4575C34.8143 52.6186 34.6866 53.7854 34.6866 54.9581C34.6866 55.8463 34.7969 56.7113 34.9536 57.5821C35.2613 59.3237 35.6387 61.0594 36.196 62.743C36.8171 64.6239 37.6589 66.5048 38.9999 67.991C39.3366 68.3625 39.7198 68.6644 40.2423 68.6934C40.6835 68.7166 41.1247 68.5192 41.4265 68.2C42.0187 67.5846 42.0593 66.5861 42.1348 65.7791C42.3031 63.9853 42.2451 62.1741 42.4134 60.3802C42.576 58.6561 42.9475 56.7868 44.0854 55.4167C44.2247 55.2484 44.3756 55.0858 44.5382 54.9349C44.4859 56.6648 44.631 58.9754 44.9561 61.3323C45.2058 63.7357 45.856 66.1681 46.6919 67.8342C47.2957 69.0301 47.9691 69.7732 48.6599 70.0228V73.2854C48.6599 73.5234 48.8573 73.7208 49.0953 73.7208C49.3333 73.7208 49.5307 73.5234 49.5307 73.2854V18.7157C49.5365 18.4777 49.3391 18.2803 49.1011 18.2803Z" fill="#1B8976"/>
<path d="M31.6585 47.9406V47.9348C31.6585 47.6968 31.4611 47.4994 31.2231 47.4994C29.6905 47.4994 28.4424 46.2571 28.4424 44.7245C28.4424 44.4864 28.245 44.2891 28.0012 44.2891C27.7632 44.2891 27.5658 44.4864 27.5658 44.7245C27.5658 46.2571 26.3235 47.4994 24.7909 47.4994C24.5528 47.4994 24.3555 47.7026 24.3555 47.9406C24.3555 48.1844 24.5528 48.376 24.7909 48.376C26.3235 48.376 27.5658 49.6241 27.5658 51.1509C27.5658 51.3947 27.769 51.5863 28.007 51.5863C28.2508 51.5863 28.4424 51.3947 28.4424 51.1509C28.4424 49.6241 29.6905 48.376 31.2231 48.376C31.4611 48.376 31.6585 48.1844 31.6585 47.9406Z" fill="#1B8976"/>
<path d="M34.937 62.9461C33.7818 62.9461 32.8413 62.0057 32.8413 60.8504C32.8413 60.6124 32.6439 60.415 32.4001 60.415C32.1621 60.415 31.9647 60.6124 31.9647 60.8504C31.9647 62.0057 31.0242 62.9461 29.869 62.9461C29.6252 62.9461 29.4336 63.1493 29.4336 63.3873C29.4336 63.6312 29.6252 63.8227 29.869 63.8227C31.0242 63.8227 31.9647 64.7632 31.9647 65.9243C31.9647 66.1623 32.1679 66.3597 32.4059 66.3597C32.6439 66.3597 32.8413 66.1623 32.8413 65.9243C32.8413 64.7632 33.7818 63.8227 34.937 63.8227C35.1808 63.8227 35.3724 63.6312 35.3724 63.3873V63.3815C35.3724 63.1435 35.1808 62.9461 34.937 62.9461Z" fill="#1B8976"/>
<path d="M25.8885 34.425H26.3413V34.8778C26.3413 35.1158 26.5387 35.3132 26.7767 35.3132C27.0147 35.3132 27.2121 35.1158 27.2121 34.8778V34.425H27.6649C27.903 34.425 28.1003 34.2276 28.1003 33.9896C28.1003 33.7516 27.903 33.5542 27.6649 33.5542H27.2121V33.1014C27.2121 32.8634 27.0147 32.666 26.7767 32.666C26.5387 32.666 26.3413 32.8634 26.3413 33.1014V33.5542H25.8885C25.6505 33.5542 25.4531 33.7516 25.4531 33.9896C25.4531 34.2276 25.6447 34.425 25.8885 34.425Z" fill="#1B8976"/>
<path d="M32.4706 23.7671C34.3224 23.7671 35.826 25.2706 35.826 27.1225C35.826 27.3605 36.0292 27.5579 36.2672 27.5579C36.511 27.5579 36.7026 27.3605 36.7026 27.1225C36.7026 25.2706 38.212 23.7671 40.0581 23.7671C40.3019 23.7671 40.4935 23.5697 40.4935 23.3317V23.3259C40.4935 23.082 40.3019 22.8905 40.0581 22.8905C38.212 22.8905 36.7026 21.3811 36.7026 19.535C36.7026 19.2912 36.4994 19.0996 36.2614 19.0996C36.0234 19.0996 35.826 19.2912 35.826 19.535C35.826 21.3811 34.3224 22.8905 32.4706 22.8905C32.2325 22.8905 32.0352 23.0878 32.0352 23.3317C32.0352 23.5697 32.2325 23.7671 32.4706 23.7671Z" fill="#1B8976"/>
<path d="M45.4813 69.9106H45.0285V69.452C45.0285 69.214 44.8312 69.0166 44.5931 69.0166C44.3551 69.0166 44.1577 69.214 44.1577 69.452V69.9048H43.7049C43.4669 69.9048 43.2695 70.1022 43.2695 70.3402C43.2695 70.5782 43.4669 70.7756 43.7049 70.7756H44.1577V71.2284C44.1577 71.4664 44.3551 71.6638 44.5931 71.6638C44.8312 71.6638 45.0285 71.4664 45.0285 71.2284V70.7756H45.4813C45.7194 70.7756 45.9167 70.5782 45.9167 70.3402C45.9167 70.1022 45.7252 69.9106 45.4813 69.9106Z" fill="#1B8976"/>
</svg>
