<svg width="70" height="70" viewBox="0 0 70 70" fill="none" xmlns="http://www.w3.org/2000/svg">
<circle cx="35" cy="35" r="34.5" fill="#1B8976" fill-opacity="0.05" stroke="#1B8976"/>
<g clip-path="url(#clip0_17_17)">
<path d="M24.9964 27.1815C24.8902 30.114 26.7133 32.6572 27.1149 35.5057C27.1379 35.6826 27.3779 35.7799 27.5395 35.7357C27.7379 35.687 27.8072 35.5057 27.7795 35.3288C27.3872 32.5466 25.5825 30.0476 25.6841 27.1815C25.7072 26.7524 25.0149 26.7568 24.9964 27.1815Z" fill="#1B8976"/>
<path d="M39.4666 21.0908C39.5497 20.9404 39.5127 20.7237 39.342 20.6352C38.682 20.3079 37.9712 20.0647 37.2373 19.9585C37.0573 19.932 36.8589 20.0027 36.8127 20.1885C36.7758 20.3477 36.8635 20.5689 37.0527 20.5954C37.3989 20.6441 38.8343 21.1262 38.9958 21.2058C39.1527 21.2899 39.3743 21.2545 39.4666 21.0908Z" fill="#1B8976"/>
<path d="M49.6019 19.7673C47.9911 17.4408 44.5896 18.3386 42.3788 19.2011C41.9311 19.3736 41.488 19.5638 41.0496 19.7629C40.1173 19.1658 39.0603 18.5819 37.9665 18.3475C37.5326 18.2546 37.348 18.896 37.7819 18.9888C38.7142 19.1879 39.5865 19.6744 40.3942 20.1521C40.4634 20.1919 40.5465 20.2538 40.6296 20.3113V20.3202C40.5926 22.5892 41.9219 23.2925 42.9926 23.8631C43.3526 24.0533 43.6942 24.2346 43.9711 24.4602C44.8203 25.1413 45.3326 26.1675 45.8311 27.1583C46.468 28.4321 47.0819 29.6308 48.3326 30.051C48.0696 30.8383 47.7788 31.6123 47.4373 32.3598C47.1649 32.9613 46.8096 33.5496 46.6203 34.1821C46.4311 34.8013 46.3896 35.4471 46.3711 36.0885C46.3573 36.4379 46.3526 36.7873 46.348 37.1412L44.9911 36.1106C44.8988 36.0398 44.7742 36.0221 44.6634 36.0575C44.5526 36.0929 44.4696 36.1813 44.4419 36.2919L44.2065 37.1677L42.8034 35.5533C42.6834 35.4117 42.4665 35.394 42.3188 35.509C42.1711 35.6285 42.1526 35.8363 42.2726 35.9779L44.1096 38.0921C44.1742 38.1673 44.2757 38.2115 44.3773 38.2115C44.4003 38.2115 44.428 38.2071 44.4511 38.2027C44.5803 38.1761 44.6773 38.0833 44.7096 37.9638L44.9819 36.951L46.3526 37.9904C46.3619 38.8131 46.3803 39.6402 46.3942 40.4673C46.4449 43.099 46.4126 45.7617 45.6096 48.3006C45.2357 49.4683 44.7003 50.5829 43.9711 51.5825C43.6619 52.0115 43.2096 52.6308 42.5865 52.5821C41.8942 52.529 42.0557 51.7108 42.0465 51.2463C41.9865 48.9552 42.0742 46.5535 41.5203 44.2977L42.508 43.5546L42.6742 44.1871C42.7065 44.3065 42.808 44.3994 42.9326 44.426C42.9603 44.4348 42.9834 44.4348 43.0111 44.4348C43.1126 44.4348 43.2096 44.395 43.2788 44.3154L44.6496 42.7363C44.7696 42.5948 44.7511 42.3825 44.6034 42.2675C44.4557 42.1481 44.2388 42.1702 44.1188 42.3117L43.1773 43.391L43.048 42.8956C43.0157 42.785 42.9326 42.6965 42.8219 42.6612C42.7111 42.6258 42.5865 42.6479 42.4942 42.7142L41.3219 43.6033C41.2757 43.4529 41.2388 43.3025 41.1834 43.1521C41.0173 42.6877 40.7773 42.241 40.5142 41.8163C40.7173 41.4713 40.9203 41.1794 41.1096 40.9406C41.2296 40.7946 41.1973 40.5867 41.0496 40.4761C40.8973 40.3611 40.6803 40.3877 40.5603 40.5337C39.6419 41.6792 38.5065 43.8642 38.3173 47.7654C38.2526 49.1498 38.0634 51.0871 37.5465 52.4494C37.4819 52.6219 37.5742 52.8121 37.7542 52.874C37.7957 52.8873 37.8326 52.8962 37.8742 52.8962C38.0173 52.8962 38.1465 52.8121 38.1973 52.675C38.7465 51.2331 38.9403 49.225 39.0096 47.7963C39.1249 45.4344 39.5911 43.7448 40.1357 42.5506C40.6111 43.4529 40.8834 44.4127 41.0449 45.43C41.2526 46.7481 41.2711 48.0883 41.308 49.4196C41.3265 50.1008 41.3403 50.7819 41.3588 51.4587C41.3726 51.9363 41.3173 52.5025 41.6865 52.8785C42.1111 53.3075 42.7942 53.3296 43.3203 53.0952C43.8373 52.8696 44.1926 52.4273 44.5157 51.9983C47.7142 47.6725 47.0126 42.1702 47.0403 37.181C47.0449 36.5131 47.0449 35.8408 47.1188 35.1773C47.1973 34.5227 47.4373 33.961 47.7188 33.3683C48.1388 32.4925 48.5034 31.6035 48.8265 30.6923C49.2926 29.3742 49.6942 28.034 49.9896 26.6673C50.2665 25.3979 50.4603 24.0931 50.4234 22.7927C50.3911 21.7577 50.2111 20.6475 49.6019 19.7673ZM48.2219 27.0212C48.0326 27.0212 47.8757 26.8752 47.8757 26.6894C47.8757 26.5081 48.028 26.3577 48.2173 26.3577H48.2219C48.4157 26.3577 48.568 26.5081 48.568 26.6894C48.568 26.8752 48.4157 27.0212 48.2219 27.0212ZM45.1157 20.161C45.1157 19.9752 45.268 19.8292 45.4573 19.8292H45.4619C45.6557 19.8292 45.808 19.9752 45.808 20.161C45.808 20.3423 45.6557 20.4927 45.4619 20.4927C45.2726 20.4927 45.1157 20.3423 45.1157 20.161ZM46.0249 22.7573C45.8357 22.7573 45.6788 22.6113 45.6788 22.4256C45.6788 22.2442 45.8311 22.0938 46.0203 22.0938H46.0249C46.2188 22.0938 46.3711 22.2442 46.3711 22.4256C46.3711 22.6113 46.2188 22.7573 46.0249 22.7573ZM43.6342 21.9479C43.4403 21.9479 43.2834 21.8019 43.2834 21.6161C43.2834 21.4348 43.4357 21.2844 43.6296 21.2844H43.6342C43.8234 21.2844 43.9803 21.4348 43.9803 21.6161C43.9803 21.8019 43.8234 21.9479 43.6342 21.9479ZM46.8003 24.2258H46.8049C46.9942 24.2258 47.1511 24.3761 47.1511 24.5575C47.1511 24.7433 46.9942 24.8892 46.8049 24.8892C46.6111 24.8892 46.4542 24.7433 46.4542 24.5575C46.4542 24.3761 46.6065 24.2258 46.8003 24.2258ZM49.0203 22.4831C49.0203 22.6644 48.8634 22.8148 48.6742 22.8148C48.4849 22.8148 48.3234 22.6644 48.3234 22.4831C48.3234 22.2973 48.4757 22.1513 48.6696 22.1513H48.6742C48.8634 22.1513 49.0203 22.2973 49.0203 22.4831ZM48.0926 20.621C48.0926 20.8023 47.9357 20.9527 47.7465 20.9527C47.5526 20.9527 47.3957 20.8023 47.3957 20.621C47.3957 20.4352 47.548 20.2892 47.7419 20.2892H47.7465C47.9357 20.2892 48.0926 20.4352 48.0926 20.621ZM48.7296 24.8627C48.5403 24.8627 48.3834 24.7167 48.3834 24.531C48.3834 24.3496 48.5357 24.1992 48.7249 24.1992H48.7296C48.9234 24.1992 49.0757 24.3496 49.0757 24.531C49.0757 24.7167 48.9234 24.8627 48.7296 24.8627Z" fill="#1B8976"/>
<path d="M35.675 15C35.4858 15 35.3289 15.1504 35.3289 15.3317V17.8131C34.3596 17.676 33.3766 17.7158 32.435 18.0033C31.3412 18.335 30.3812 18.9498 29.5273 19.6708C29.5181 19.6663 29.5089 19.6619 29.4996 19.6575C29.3335 19.5912 29.1119 19.7283 29.075 19.8875C29.0289 20.0777 29.135 20.2237 29.315 20.2944C29.375 20.3165 29.8735 20.52 29.9935 20.5731C30.2566 20.6881 30.515 20.8031 30.7735 20.9225C30.935 20.9977 31.1566 20.9712 31.2489 20.8031C31.3319 20.6527 31.2996 20.4315 31.1242 20.3475C30.8289 20.2104 30.5335 20.0777 30.2335 19.9538C30.9396 19.3877 31.7335 18.9056 32.615 18.6358C33.4966 18.3704 34.4196 18.335 35.3242 18.4765V20.6571C34.0227 20.9579 32.8735 21.6435 31.6042 22.0415C30.995 22.2317 30.3719 22.3379 29.7304 22.3025C28.9273 22.2538 28.1704 21.9708 27.4781 21.5992C27.0904 21.3913 26.7396 21.9619 27.1273 22.1742C28.5212 22.9173 30.0304 23.1871 31.5766 22.7492C32.8689 22.3865 34.0319 21.6833 35.3289 21.3427V53.6798C35.0242 53.4719 34.6919 53.0517 34.3827 52.459C33.7504 51.256 33.2612 49.4867 33.0673 47.7219C32.7673 45.6387 32.6566 43.6173 32.7719 42.3125C32.8596 41.3262 32.6981 40.645 32.6935 40.6185C32.6519 40.4415 32.4627 40.3265 32.2781 40.3708C32.0935 40.4106 31.9781 40.5875 32.0196 40.7688C32.0196 40.7733 32.135 41.2819 32.0981 42.0338C29.6842 43.7367 29.6289 46.8196 29.5412 49.4292C29.5227 50.0573 29.4996 50.6854 29.435 51.3135C29.3889 51.7602 29.3658 52.6758 28.7473 52.7465C28.415 52.7863 28.1796 52.459 27.9904 52.2423C27.755 51.9769 27.5473 51.6894 27.3535 51.3931C26.9427 50.7606 26.615 50.0838 26.3381 49.385C25.8304 48.1023 25.4889 46.7665 25.2212 45.4219C25.115 44.8912 24.995 44.356 24.9489 43.8208C24.8704 42.9848 24.9212 42.14 25.0042 41.304C25.175 39.579 25.5027 37.8585 25.4242 36.1202C25.3873 35.2754 25.2535 34.4262 24.9396 33.63C24.5842 32.7233 24.0858 31.8785 23.7212 30.9717C23.0242 29.229 22.5581 27.336 22.3273 25.4827C22.1473 24.0408 22.0458 22.3644 22.7335 21.0198C22.8673 20.7544 23.0335 20.5067 23.2458 20.29C23.5458 19.976 23.0566 19.5071 22.7566 19.8212C21.7227 20.9004 21.5058 22.4662 21.5242 23.8771C21.5473 25.7304 21.9489 27.5837 22.4566 29.3662C22.7427 30.3658 23.1073 31.3344 23.5458 32.281C23.9473 33.1523 24.4042 33.9706 24.5935 34.9171C24.9442 36.6819 24.635 38.5175 24.4227 40.2779C24.3166 41.1625 24.215 42.0515 24.215 42.945C24.215 43.6217 24.3027 44.2808 24.4273 44.9442C24.6719 46.2712 24.9719 47.5937 25.415 48.8763C25.9089 50.3094 26.5781 51.7425 27.6442 52.8748C27.9119 53.1579 28.2166 53.3879 28.6319 53.41C28.9827 53.4277 29.3335 53.2773 29.5735 53.034C30.0442 52.5652 30.0766 51.8044 30.1366 51.1896C30.2704 49.8229 30.2242 48.4429 30.3581 47.0762C30.4873 45.7625 30.7827 44.3383 31.6873 43.2944C31.7981 43.1662 31.9181 43.0423 32.0473 42.9273C32.0058 44.2454 32.1212 46.0058 32.3796 47.8015C32.5781 49.6327 33.095 51.486 33.7596 52.7554C34.2396 53.6665 34.775 54.2327 35.3242 54.4229V56.9087C35.3242 57.09 35.4812 57.2404 35.6704 57.2404C35.8596 57.2404 36.0166 57.09 36.0166 56.9087V15.3317C36.0212 15.1504 35.8642 15 35.675 15Z" fill="#1B8976"/>
<path d="M21.8062 37.5966V37.5921C21.8062 37.4108 21.6492 37.2604 21.46 37.2604C20.2415 37.2604 19.2492 36.3139 19.2492 35.1462C19.2492 34.9648 19.0923 34.8145 18.8985 34.8145C18.7092 34.8145 18.5523 34.9648 18.5523 35.1462C18.5523 36.3139 17.5646 37.2604 16.3462 37.2604C16.1569 37.2604 16 37.4152 16 37.5966C16 37.7823 16.1569 37.9283 16.3462 37.9283C17.5646 37.9283 18.5523 38.8793 18.5523 40.0425C18.5523 40.2283 18.7138 40.3743 18.9031 40.3743C19.0969 40.3743 19.2492 40.2283 19.2492 40.0425C19.2492 38.8793 20.2415 37.9283 21.46 37.9283C21.6492 37.9283 21.8062 37.7823 21.8062 37.5966Z" fill="#1B8976"/>
<path d="M24.4108 49.03C23.4923 49.03 22.7446 48.3135 22.7446 47.4333C22.7446 47.2519 22.5877 47.1016 22.3939 47.1016C22.2046 47.1016 22.0477 47.2519 22.0477 47.4333C22.0477 48.3135 21.3 49.03 20.3816 49.03C20.1877 49.03 20.0354 49.1848 20.0354 49.3662C20.0354 49.5519 20.1877 49.6979 20.3816 49.6979C21.3 49.6979 22.0477 50.4144 22.0477 51.2991C22.0477 51.4804 22.2092 51.6308 22.3985 51.6308C22.5877 51.6308 22.7446 51.4804 22.7446 51.2991C22.7446 50.4144 23.4923 49.6979 24.4108 49.6979C24.6046 49.6979 24.7569 49.5519 24.7569 49.3662V49.3618C24.7569 49.1804 24.6046 49.03 24.4108 49.03Z" fill="#1B8976"/>
<path d="M17.2185 27.3011H17.5785V27.6461C17.5785 27.8275 17.7354 27.9779 17.9246 27.9779C18.1139 27.9779 18.2708 27.8275 18.2708 27.6461V27.3011H18.6308C18.82 27.3011 18.9769 27.1507 18.9769 26.9694C18.9769 26.7881 18.82 26.6377 18.6308 26.6377H18.2708V26.2927C18.2708 26.1113 18.1139 25.9609 17.9246 25.9609C17.7354 25.9609 17.5785 26.1113 17.5785 26.2927V26.6377H17.2185C17.0292 26.6377 16.8723 26.7881 16.8723 26.9694C16.8723 27.1507 17.0246 27.3011 17.2185 27.3011Z" fill="#1B8976"/>
<path d="M22.4521 19.1812C23.9244 19.1812 25.1198 20.3267 25.1198 21.7377C25.1198 21.919 25.2813 22.0694 25.4706 22.0694C25.6644 22.0694 25.8167 21.919 25.8167 21.7377C25.8167 20.3267 27.0167 19.1812 28.4844 19.1812C28.6783 19.1812 28.8306 19.0308 28.8306 18.8494V18.845C28.8306 18.6592 28.6783 18.5133 28.4844 18.5133C27.0167 18.5133 25.8167 17.3633 25.8167 15.9567C25.8167 15.771 25.6552 15.625 25.466 15.625C25.2767 15.625 25.1198 15.771 25.1198 15.9567C25.1198 17.3633 23.9244 18.5133 22.4521 18.5133C22.2629 18.5133 22.106 18.6637 22.106 18.8494C22.106 19.0308 22.2629 19.1812 22.4521 19.1812Z" fill="#1B8976"/>
<path d="M32.7951 54.3374H32.4351V53.988C32.4351 53.8066 32.2782 53.6562 32.0889 53.6562C31.8997 53.6562 31.7428 53.8066 31.7428 53.988V54.333H31.3828C31.1935 54.333 31.0366 54.4834 31.0366 54.6647C31.0366 54.8461 31.1935 54.9964 31.3828 54.9964H31.7428V55.3414C31.7428 55.5228 31.8997 55.6732 32.0889 55.6732C32.2782 55.6732 32.4351 55.5228 32.4351 55.3414V54.9964H32.7951C32.9843 54.9964 33.1412 54.8461 33.1412 54.6647C33.1412 54.4834 32.9889 54.3374 32.7951 54.3374Z" fill="#1B8976"/>
</g>
<defs>
<clipPath id="clip0_17_17">
<rect width="48" height="46" fill="white" transform="translate(9 11)"/>
</clipPath>
</defs>
</svg>
