<svg width="92" height="92" viewBox="0 0 92 92" fill="none" xmlns="http://www.w3.org/2000/svg">
<circle cx="46" cy="46" r="45.5" fill="#1B8976" fill-opacity="0.05" stroke="#1B8976"/>
<g clip-path="url(#clip0_2753_3530)">
<path d="M47.0284 34.3272C48.6174 35.4994 50.5509 36.1105 52.525 36.0644C53.518 36.0621 54.5072 35.9403 55.4712 35.7016C55.807 35.6185 56.1136 35.445 56.3578 35.2001C56.602 34.9552 56.7745 34.6481 56.8567 34.3121C57.2326 32.8007 57.8522 28.9627 55.4833 25.8713C53.4903 23.2757 49.9253 21.9103 44.8872 21.8176C44.6353 21.8135 44.3851 21.861 44.1522 21.9571C43.9193 22.0533 43.7086 22.1962 43.533 22.3769C43.3535 22.5537 43.2114 22.7648 43.1152 22.9976C43.0189 23.2304 42.9705 23.4802 42.9727 23.7321C43.0664 28.7702 44.4308 32.3342 47.0284 34.3272ZM53.8802 27.1016C54.9889 28.6863 55.4374 30.6402 55.1307 32.5498L52.0796 29.4987C51.8895 29.3152 51.635 29.2136 51.3708 29.2159C51.1066 29.2182 50.8539 29.3242 50.6671 29.511C50.4803 29.6978 50.3743 29.9505 50.372 30.2147C50.3697 30.4789 50.4713 30.7334 50.6548 30.9235L53.7099 33.9776C51.7974 34.2863 49.8399 33.8378 48.2527 32.7271C46.1901 31.1442 45.0887 28.1525 44.988 23.8329C49.3086 23.9336 52.3013 25.036 53.8832 27.1016H53.8802Z" fill="#1B8976"/>
<path d="M55.0686 41.9689C53.1742 41.9689 52.0044 38.6589 51.9933 38.6256C51.9271 38.424 51.7988 38.2485 51.627 38.124C51.4551 37.9996 51.2483 37.9326 51.0361 37.9326C50.8239 37.9326 50.6171 37.9996 50.4452 38.124C50.2733 38.2485 50.1451 38.424 50.0788 38.6256C50.0718 38.6589 48.9019 41.9689 47.0076 41.9689C46.7404 41.9689 46.4841 42.075 46.2951 42.264C46.1062 42.453 46 42.7093 46 42.9765C46 43.2437 46.1062 43.5 46.2951 43.689C46.4841 43.878 46.7404 43.9841 47.0076 43.9841C48.9019 43.9841 50.0718 47.2942 50.0829 47.3274C50.1491 47.529 50.2773 47.7045 50.4492 47.829C50.6211 47.9534 50.8279 48.0204 51.0401 48.0204C51.2523 48.0204 51.4591 47.9534 51.631 47.829C51.8029 47.7045 51.9311 47.529 51.9973 47.3274C52.0044 47.2942 53.1742 43.9841 55.0686 43.9841C55.3358 43.9841 55.5921 43.878 55.7811 43.689C55.97 43.5 56.0762 43.2437 56.0762 42.9765C56.0762 42.7093 55.97 42.453 55.7811 42.264C55.5921 42.075 55.3358 41.9689 55.0686 41.9689ZM51.0381 44.7026C50.6476 44.0558 50.1591 43.4736 49.5901 42.9765C50.1591 42.4795 50.6476 41.8972 51.0381 41.2505C51.4286 41.8972 51.9171 42.4795 52.486 42.9765C51.9171 43.4736 51.4286 44.0558 51.0381 44.7026Z" fill="#1B8976"/>
<path d="M25.0746 37.7638C26.0021 40.9382 27.3147 43.9871 28.9832 46.8425C29.6172 47.7909 29.9879 48.8908 30.0573 50.0296C30.0573 50.2915 30.3999 76.2276 38.0276 76.2276C41.923 76.2276 43.9826 71.6984 43.9826 63.1286V58.1036C43.9826 57.9797 44.0531 55.0676 45.9978 55.0676C47.9425 55.0676 48.0131 57.9797 48.0131 58.0905V63.1286C48.0131 71.6984 50.0726 76.2276 53.9681 76.2276C61.5958 76.2276 61.9384 50.2915 61.9384 50.0296C62.0077 48.8911 62.3784 47.7915 63.0125 46.8435C63.3843 46.2298 63.7309 45.588 64.0725 44.9159C65.5986 44.7533 67.0519 44.1794 68.2773 43.2553C70.876 41.2633 72.2423 37.6973 72.335 32.6582C72.3369 32.4067 72.2885 32.1573 72.1926 31.9247C72.0968 31.6922 71.9554 31.4811 71.7768 31.304C71.4141 30.9498 70.9284 30.7497 70.4215 30.7457C69.7162 30.7588 69.0501 30.8032 68.4063 30.8656C68.3294 28.7505 67.8213 26.6733 66.913 24.7615C67.5309 24.1912 68.3327 23.8612 69.1731 23.8315C69.4403 23.8315 69.6966 23.7253 69.8856 23.5363C70.0745 23.3474 70.1807 23.0911 70.1807 22.8238C70.1807 22.5566 70.0745 22.3003 69.8856 22.1113C69.6966 21.9224 69.4403 21.8162 69.1731 21.8162C66.4737 21.8162 64.5834 17.949 64.0826 16.4587C64.0156 16.2583 63.8874 16.0841 63.7159 15.9606C63.5445 15.8371 63.3386 15.7706 63.1274 15.7705C62.9161 15.7709 62.7104 15.8376 62.5392 15.9613C62.3679 16.085 62.2399 16.2593 62.1731 16.4597C61.9205 17.1332 61.6173 17.7867 61.2663 18.4145C59.3942 17.1163 57.2449 16.2732 54.9895 15.9524C52.734 15.6316 50.4349 15.8419 48.2751 16.5665H48.2609L48.2146 16.5867C46.7756 17.0656 45.2201 17.0656 43.7811 16.5867L43.7377 16.5766L43.7206 16.5665C41.1027 15.692 38.2919 15.5693 35.6077 16.2123C32.9235 16.8553 30.4734 18.2383 28.5358 20.204C26.4695 22.233 25.0047 24.794 24.3033 27.6037C23.602 30.4134 23.6914 33.3624 24.5618 36.1244L25.0746 37.7638ZM67.0571 41.6562C65.4723 42.7655 63.5178 43.214 61.6079 42.9067L64.6539 39.8526C64.7537 39.7605 64.8339 39.6491 64.8896 39.5252C64.9452 39.4013 64.9753 39.2674 64.9779 39.1316C64.9805 38.9958 64.9557 38.8609 64.9048 38.7349C64.8539 38.609 64.7781 38.4946 64.682 38.3987C64.5858 38.3028 64.4712 38.2273 64.3451 38.1768C64.219 38.1263 64.084 38.1018 63.9482 38.1048C63.8124 38.1078 63.6786 38.1383 63.5549 38.1943C63.4311 38.2503 63.32 38.3308 63.2281 38.4309L60.175 41.4849C59.8664 39.5728 60.3149 37.6156 61.4255 36.0287C63.0085 33.9641 66.0001 32.8658 70.3167 32.764C70.215 37.0816 69.1156 40.0733 67.0571 41.6562ZM63.1274 19.2387C63.8411 20.6437 64.8631 21.8692 66.117 22.8238C64.8631 23.7784 63.8411 25.004 63.1274 26.4089C62.4136 25.004 61.3916 23.7784 60.1378 22.8238C61.3916 21.8692 62.4136 20.6437 63.1274 19.2387ZM29.9505 21.6419C31.6266 19.9384 33.7469 18.7393 36.0704 18.1807C38.394 17.6221 40.8277 17.7265 43.0949 18.482L43.1392 18.4971H43.1543C45.0003 19.1108 46.9953 19.1108 48.8413 18.4971H48.8534L48.9008 18.481C50.7693 17.858 52.7575 17.6802 54.7069 17.9618C56.6564 18.2435 58.513 18.9768 60.1287 20.1033C59.7766 20.5939 59.3214 21.0014 58.795 21.2973C58.2686 21.5933 57.6838 21.7704 57.0816 21.8162C56.8144 21.8162 56.5581 21.9224 56.3692 22.1113C56.1802 22.3003 56.074 22.5566 56.074 22.8238C56.074 23.0911 56.1802 23.3474 56.3692 23.5363C56.5581 23.7253 56.8144 23.8315 57.0816 23.8315C59.7811 23.8315 61.6714 27.6987 62.1721 29.189C62.2391 29.3893 62.3674 29.5636 62.5388 29.6871C62.7102 29.8106 62.9161 29.8771 63.1274 29.8772C63.3386 29.8768 63.5443 29.8101 63.7156 29.6864C63.8868 29.5627 64.0148 29.3884 64.0816 29.188C64.4372 28.2306 64.8964 27.3149 65.4509 26.4573C66.0451 27.9577 66.3653 29.5525 66.3961 31.1659C63.8332 31.5287 61.4939 32.8234 59.8254 34.8024C57.4555 37.8918 58.0742 41.7348 58.45 43.2453C58.5334 43.5801 58.7064 43.8859 58.9505 44.1299C59.1946 44.3738 59.5006 44.5466 59.8355 44.6297C60.4731 44.7861 61.122 44.8922 61.7761 44.9471C61.6159 45.2353 61.4557 45.5225 61.2875 45.8006C60.4566 47.0599 59.9849 48.5221 59.9231 50.0296C59.9231 56.9126 58.1517 74.2124 53.9681 74.2124C51.5015 74.2124 50.0283 70.0691 50.0283 63.1286V58.0804C50.0102 56.3413 49.1456 53.0524 45.9978 53.0524C42.85 53.0524 41.9855 56.3413 41.9674 58.0905V63.1286C41.9674 70.0691 40.4942 74.2124 38.0276 74.2124C33.8429 74.2124 32.0725 56.9126 32.0725 50.0296C32.011 48.5211 31.5393 47.0579 30.7082 45.7976C29.1245 43.0803 27.879 40.1797 26.9992 37.1602L26.4843 35.5198C25.7267 33.1119 25.6494 30.5414 26.2611 28.0923C26.8728 25.6432 28.1496 23.4108 29.9505 21.6419Z" fill="#1B8976"/>
<path d="M29.3807 35.6283C29.4833 35.6277 29.5852 35.6117 29.683 35.581C29.8097 35.5412 29.9273 35.4768 30.0291 35.3914C30.1308 35.306 30.2147 35.2014 30.2758 35.0835C30.337 34.9656 30.3742 34.8368 30.3854 34.7044C30.3966 34.5721 30.3815 34.4389 30.341 34.3124C29.8793 32.8794 29.7654 31.3572 30.0087 29.8715C30.2521 28.3858 30.8458 26.9795 31.7406 25.7688C32.5932 24.5772 33.7134 23.6022 35.0111 22.922C36.3089 22.2418 37.748 21.8753 39.2131 21.8522C39.4803 21.8522 39.7366 21.746 39.9256 21.557C40.1145 21.3681 40.2207 21.1118 40.2207 20.8445C40.2207 20.5773 40.1145 20.321 39.9256 20.132C39.7366 19.9431 39.4803 19.8369 39.2131 19.8369C37.4313 19.86 35.6797 20.301 34.0994 21.1244C32.5191 21.9478 31.1541 23.1307 30.1143 24.5778C29.0312 26.0432 28.3126 27.7455 28.0181 29.5437C27.7236 31.342 27.8615 33.1846 28.4205 34.919C28.484 35.1241 28.6115 35.3036 28.7842 35.4312C28.957 35.5588 29.166 35.6279 29.3807 35.6283Z" fill="#1B8976"/>
</g>
<defs>
<clipPath id="clip0_2753_3530">
<rect width="60.4571" height="60.4571" fill="white" transform="translate(15.7695 15.7705)"/>
</clipPath>
</defs>
</svg>
