<svg width="92" height="92" viewBox="0 0 92 92" fill="none" xmlns="http://www.w3.org/2000/svg">
<circle cx="46" cy="46" r="45.5" fill="#1B8976" fill-opacity="0.05" stroke="#1B8976"/>
<path d="M24.3716 37.478C24.3848 37.7257 24.495 37.9583 24.6784 38.1254C24.8617 38.2925 25.1034 38.3807 25.3513 38.3711C25.5992 38.3614 25.8333 38.2545 26.003 38.0736C26.1728 37.8927 26.2645 37.6523 26.2584 37.4043C26.2918 33.521 26.207 31.3371 30.4818 30.9992C30.7286 30.9788 30.9576 30.8622 31.1193 30.6745C31.2811 30.4869 31.3626 30.2432 31.3464 29.996C31.3302 29.7489 31.2175 29.5179 31.0327 29.353C30.8478 29.1881 30.6056 29.1024 30.3581 29.1144C24.6157 29.6436 24.3572 32.9547 24.3716 37.478Z" fill="#1B8976"/>
<path d="M47.3578 59.6232C47.1281 59.5238 46.8683 59.5194 46.6354 59.611C46.4024 59.7026 46.2152 59.8827 46.1147 60.112C45.6528 61.1724 45.1981 62.2052 44.7684 63.1817L43.7762 65.441C43.723 65.5684 43.629 65.6745 43.509 65.7429C43.389 65.8112 43.2498 65.8377 43.113 65.8185C42.9763 65.7992 42.8498 65.7351 42.7534 65.6362C42.657 65.5374 42.5961 65.4094 42.5802 65.2722L41.0504 54.8005C40.8471 54.1135 40.4274 53.5106 39.8537 53.0816C39.28 52.6526 38.5831 52.4203 37.8667 52.4195C37.1503 52.4187 36.4529 52.6493 35.8782 53.077C35.3035 53.5047 34.8824 54.1066 34.6775 54.7931L33.1671 65.2547C33.1489 65.3919 33.0859 65.5193 32.988 65.6172C32.89 65.715 32.7625 65.7779 32.6253 65.7959C32.488 65.814 32.3486 65.7863 32.2287 65.7172C32.1087 65.648 32.0149 65.5412 31.9618 65.4134C29.0728 58.9012 23.8683 47.0785 22.687 44.076C21.0558 39.8785 21.0262 33.2797 22.6234 30.5004C24.3533 27.509 27.0635 26.1747 31.4095 26.1747C34.4229 25.9386 38.8743 29.888 39.9549 31.3462C40.1161 31.5335 40.3444 31.6501 40.5906 31.671C40.8369 31.692 41.0815 31.6155 41.2721 31.4581C41.4626 31.3007 41.5839 31.0749 41.6098 30.8291C41.6358 30.5834 41.5644 30.3372 41.4109 30.1435C40.7808 29.4101 40.104 28.718 39.3849 28.0716C43.5877 24.664 50.9569 26.1554 53.0989 30.5107C53.7921 32.4083 55.929 31.1534 54.7393 29.5755C51.8374 24.1307 43.3625 22.3505 37.8841 26.8285C32.8397 22.4816 23.8506 23.9644 20.9875 29.5572C18.8888 33.2069 19.2714 40.4992 20.9276 44.764C22.1227 47.7997 27.341 59.6537 30.2338 66.1751C30.459 66.6699 30.8376 67.0791 31.3135 67.342C31.7895 67.6048 32.3374 67.7074 32.8762 67.6344C33.415 67.5615 33.9159 67.3169 34.3048 66.9369C34.6937 66.5569 34.9499 66.0618 35.0353 65.5248L36.5301 55.1731C36.6451 54.9149 36.8326 54.6958 37.0698 54.5422C37.3071 54.3887 37.5838 54.3073 37.8664 54.3081C38.149 54.3089 38.4252 54.3918 38.6616 54.5466C38.898 54.7015 39.0843 54.9217 39.1978 55.1805L40.7111 65.5434C40.7879 66.0849 41.0391 66.5866 41.4267 66.9726C41.8142 67.3585 42.317 67.6076 42.8588 67.6821C43.4007 67.7566 43.952 67.6526 44.4294 67.3856C44.9068 67.1187 45.2841 66.7034 45.5043 66.2028L46.4965 63.9425C46.9271 62.9642 47.3827 61.9295 47.8465 60.8663C47.8961 60.7526 47.9227 60.6302 47.925 60.5062C47.9273 60.3822 47.9051 60.259 47.8597 60.1435C47.8143 60.0281 47.7466 59.9227 47.6605 59.8334C47.5744 59.7442 47.4715 59.6727 47.3578 59.6232Z" fill="#1B8976"/>
<path d="M72.4314 51.1543V35.3056C72.4315 35.1816 72.4071 35.0588 72.3597 34.9442C72.3123 34.8296 72.2427 34.7255 72.155 34.6378C72.0673 34.5501 71.9632 34.4805 71.8486 34.4331C71.734 34.3857 71.6112 34.3613 71.4872 34.3614C66.9084 34.2739 62.4928 33.9281 58.9304 32.0561C58.7842 31.9683 58.6169 31.9219 58.4463 31.9219C58.2758 31.9219 58.1084 31.9682 57.9622 32.056C54.3963 33.9296 49.9879 34.2738 45.4047 34.3615C45.2806 34.3614 45.1578 34.3857 45.0432 34.4331C44.9286 34.4806 44.8245 34.5501 44.7368 34.6378C44.6491 34.7255 44.5795 34.8296 44.5321 34.9442C44.4847 35.0588 44.4603 35.1816 44.4604 35.3056C44.47 35.6172 44.3716 52.9305 44.5792 52.5301C45.4314 57.6572 56.7247 63.6861 58.0093 64.3565C58.1443 64.4267 58.2942 64.4634 58.4464 64.4634C58.5985 64.4634 58.7484 64.4267 58.8834 64.3565C60.3862 63.4842 72.9915 57.0531 72.4314 51.1543ZM70.5429 51.1562C70.7725 55.5257 62.3082 60.1802 58.4465 62.4507C54.5777 60.1813 46.1512 55.5264 46.3488 51.1563L46.3489 36.2407C50.7849 36.0889 54.8775 35.6532 58.4464 33.9465C62.0153 35.6556 66.1064 36.0883 70.5429 36.2407V51.1562Z" fill="#1B8976"/>
<path d="M55.3475 37.226C53.3555 37.7039 51.3278 38.0183 49.2846 38.1659C49.0476 38.1844 48.8263 38.2917 48.665 38.4662C48.5036 38.6407 48.414 38.8697 48.4141 39.1074V51.1541C48.429 53.909 53.6077 57.1205 57.9727 59.8214C58.1164 59.9041 58.2792 59.9476 58.445 59.9476C58.6107 59.9476 58.7736 59.904 58.9172 59.8213C62.3844 57.8184 67.7687 54.0874 68.3884 52.0173C68.4498 51.7331 68.4789 51.443 68.4751 51.1523V39.1074C68.4751 38.8697 68.3855 38.6407 68.2242 38.4662C68.0628 38.2917 67.8416 38.1844 67.6046 38.1659C64.5958 37.9907 61.6278 37.3839 58.7918 36.364C57.8183 36.1784 56.5456 37.0763 55.3475 37.226ZM66.5866 39.9723V51.1523C66.4954 52.541 63.149 54.9846 58.4452 57.9098C53.8353 55.1829 50.6678 52.3796 50.3229 51.4584C50.3089 51.3576 50.3021 51.2559 50.3026 51.1541V39.9723C53.0784 39.7458 55.8143 39.1686 58.445 38.2544C61.0752 39.1692 63.811 39.7465 66.5866 39.9723Z" fill="#1B8976"/>
</svg>
