<svg width="92" height="92" viewBox="0 0 92 92" fill="none" xmlns="http://www.w3.org/2000/svg">
<circle cx="46" cy="46" r="45.5" fill="#1B8976" fill-opacity="0.05" stroke="#1B8976"/>
<g clip-path="url(#clip0_2753_3502)">
<path d="M57.6106 51.5524C57.3479 51.2884 57.0355 51.0791 56.6915 50.9365C56.3474 50.794 55.9785 50.7211 55.6061 50.722H32.8345C32.4007 50.7219 31.98 50.5725 31.6433 50.2988L25.9405 45.6653L26.4412 45.1647C26.9702 44.6336 27.2672 43.9145 27.2672 43.1649C27.2672 42.4153 26.9702 41.6962 26.4412 41.1651L25.3265 40.0504C24.7956 39.5209 24.0765 39.2233 23.3267 39.2229V23.3274H38.8018C39.2479 23.719 39.7804 23.9994 40.3558 24.1454C40.3445 24.187 40.336 24.2293 40.3303 24.272V26.6157C39.4979 26.2668 38.5952 26.1185 37.695 26.1828C36.7947 26.2472 35.9223 26.5223 35.148 26.986L32.7448 28.4285C32.4987 28.5763 32.2896 28.7782 32.1332 29.019C31.9768 29.2597 31.8774 29.5329 31.8424 29.8179C31.8075 30.1028 31.8379 30.3919 31.9314 30.6634C32.0249 30.9348 32.179 31.1813 32.3821 31.3842L38.6866 37.686C38.8611 37.8616 39.0686 38.0009 39.2972 38.0959C39.5258 38.1909 39.771 38.2397 40.0185 38.2395C40.0968 38.2395 40.1751 38.2347 40.2528 38.2253C40.5381 38.1913 40.8118 38.0922 41.0528 37.9356C41.2937 37.7791 41.4954 37.5692 41.6424 37.3223L43.0839 34.92C43.7479 33.8157 44.0235 32.5211 43.8668 31.2421C43.7102 29.963 43.1304 28.7732 42.2196 27.8617V24.272C42.2139 24.2293 42.2054 24.187 42.1941 24.1454C42.7493 24.0093 43.2663 23.7487 43.706 23.3833C44.1456 23.0179 44.4964 22.5573 44.7318 22.0363C44.9671 21.5153 45.0808 20.9476 45.0644 20.3761C45.0479 19.8047 44.9017 19.2444 44.6367 18.7379C44.3718 18.2313 43.9951 17.7916 43.5351 17.4521C43.0751 17.1126 42.5439 16.8822 41.9818 16.7783C41.4196 16.6744 40.8412 16.6998 40.2903 16.8524C39.7393 17.0051 39.2304 17.2811 38.8018 17.6595H22.9659C22.2427 17.0185 21.3005 16.6804 20.3347 16.7154C19.369 16.7503 18.4537 17.1556 17.7787 17.8472C17.1038 18.5388 16.7209 19.4637 16.7094 20.43C16.698 21.3964 17.059 22.33 17.7174 23.0374C17.6825 23.1303 17.6627 23.2282 17.6588 23.3274V41.73C17.0871 42.0278 16.6083 42.4772 16.275 43.0291C15.9418 43.581 15.7669 44.2139 15.7696 44.8586C15.7701 45.3484 15.8718 45.8328 16.0683 46.2815C16.2649 46.7301 16.552 47.1334 16.9116 47.4658L17.6588 48.1554V75.2827C17.6588 75.5333 17.7584 75.7735 17.9355 75.9507C18.1127 76.1279 18.353 76.2274 18.6035 76.2274C18.854 76.2274 19.0943 76.1279 19.2715 75.9507C19.4486 75.7735 19.5481 75.5333 19.5481 75.2827V49.8992L21.4374 51.643V75.2827C21.4374 75.5333 21.5369 75.7735 21.7141 75.9507C21.8913 76.1279 22.1315 76.2274 22.3821 76.2274C22.6326 76.2274 22.8729 76.1279 23.05 75.9507C23.2272 75.7735 23.3267 75.5333 23.3267 75.2827V53.3869L27.5398 57.276C28.2369 57.9218 29.1524 58.2801 30.1026 58.2792H38.441V64.8917H35.3435C34.9466 64.8911 34.5596 65.0156 34.2375 65.2473C33.9153 65.4791 33.6743 65.8065 33.5487 66.183L32.092 70.5595H28.9946C28.8479 70.5595 28.7033 70.5937 28.5721 70.6592C28.4409 70.7248 28.3268 70.8201 28.2388 70.9374L25.4049 74.716C25.2997 74.8563 25.2356 75.0232 25.2198 75.1979C25.2041 75.3726 25.2373 75.5483 25.3157 75.7052C25.3942 75.8621 25.5148 75.9941 25.664 76.0863C25.8132 76.1785 25.9852 76.2274 26.1606 76.2274H31.8285C32.079 76.2274 32.3193 76.1279 32.4965 75.9507C32.6736 75.7735 32.7731 75.5333 32.7731 75.2827C32.7731 75.0322 32.6736 74.7919 32.4965 74.6148C32.3193 74.4376 32.079 74.3381 31.8285 74.3381H28.0499L29.4669 72.4488H50.7213C50.9719 72.4488 51.2122 72.3493 51.3893 72.1721C51.5665 71.995 51.666 71.7547 51.666 71.5042C51.666 71.2536 51.5665 71.0134 51.3893 70.8362C51.2122 70.659 50.9719 70.5595 50.7213 70.5595H34.0843L35.3435 66.7809H57.4784L58.1085 70.5595H54.4999C54.2494 70.5595 54.0091 70.659 53.832 70.8362C53.6548 71.0134 53.5553 71.2536 53.5553 71.5042C53.5553 71.7547 53.6548 71.995 53.832 72.1721C54.0091 72.3493 54.2494 72.4488 54.4999 72.4488H63.3626L64.3072 74.3381H35.6071C35.3565 74.3381 35.1163 74.4376 34.9391 74.6148C34.7619 74.7919 34.6624 75.0322 34.6624 75.2827C34.6624 75.5333 34.7619 75.7735 34.9391 75.9507C35.1163 76.1279 35.3565 76.2274 35.6071 76.2274H65.8356C65.9971 76.2283 66.156 76.1878 66.2974 76.1097C66.4387 76.0317 66.5577 75.9188 66.6429 75.7817C66.7282 75.6446 66.7769 75.4879 66.7844 75.3267C66.7919 75.1654 66.758 75.0049 66.6858 74.8605L64.7965 71.0819C64.7177 70.9242 64.5963 70.7916 64.446 70.6993C64.2958 70.607 64.1227 70.5586 63.9463 70.5595H60.0232L59.3412 66.4711C59.2693 66.0293 59.0423 65.6276 58.7008 65.3381C58.3594 65.0486 57.926 64.8903 57.4784 64.8917H53.5553V58.2792H53.7168C53.841 58.2791 53.964 58.3035 54.0788 58.351C54.1935 58.3985 54.2978 58.4681 54.3856 58.5559L61.5507 65.722C61.8815 66.0589 62.2759 66.3268 62.7109 66.5102C63.146 66.6936 63.6131 66.7888 64.0852 66.7904C64.5685 66.7897 65.0468 66.6934 65.4927 66.507C66.0422 66.2795 66.527 65.92 66.9042 65.4603C67.2815 65.0006 67.5395 64.455 67.6555 63.8717C67.7714 63.2884 67.7417 62.6856 67.5689 62.1166C67.3962 61.5476 67.0857 61.0299 66.665 60.6096L57.6106 51.5524ZM23.988 41.3861L25.1026 42.5008C25.2774 42.6776 25.3755 42.9162 25.3755 43.1649C25.3755 43.4135 25.2774 43.6521 25.1026 43.829L24.4641 44.4675L21.7709 42.2779L22.6607 41.3871C22.7197 41.3268 22.7879 41.2764 22.8629 41.2378C23.0412 41.1373 23.2473 41.0975 23.4502 41.1242C23.6531 41.1509 23.8418 41.2429 23.988 41.3861ZM20.4928 24.272C20.8121 24.268 21.1296 24.2229 21.4374 24.1379V39.9531C21.4006 39.9862 21.3628 40.0136 21.3269 40.0476L19.9987 41.3786C19.85 41.3492 19.6995 41.3296 19.5481 41.32V24.1379C19.856 24.2229 20.1734 24.268 20.4928 24.272ZM37.6305 21.4381H24.1372C24.2223 21.1303 24.2674 20.8128 24.2713 20.4935C24.2674 20.1741 24.2223 19.8566 24.1372 19.5488H37.6305C37.5454 19.8566 37.5003 20.1741 37.4963 20.4935C37.5003 20.8128 37.5454 21.1303 37.6305 21.4381ZM41.4639 33.9489L40.0223 36.3512L33.7178 30.0466L36.12 28.606C36.8648 28.1593 37.7375 27.9742 38.5995 28.0803C39.4615 28.1864 40.2632 28.5776 40.8774 29.1916C41.4916 29.8057 41.8829 30.6074 41.9891 31.4694C42.0954 32.3314 41.9105 33.2041 41.4639 33.9489ZM43.1642 20.4935C43.1642 20.8671 43.0534 21.2324 42.8458 21.5431C42.6382 21.8538 42.3431 22.0959 41.9979 22.2389C41.6527 22.3819 41.2728 22.4193 40.9063 22.3464C40.5399 22.2735 40.2032 22.0936 39.939 21.8294C39.6748 21.5652 39.4948 21.2285 39.4219 20.862C39.349 20.4955 39.3865 20.1157 39.5294 19.7705C39.6724 19.4252 39.9146 19.1302 40.2253 18.9226C40.536 18.715 40.9013 18.6042 41.2749 18.6042C41.776 18.6042 42.2565 18.8032 42.6108 19.1575C42.9652 19.5118 43.1642 19.9924 43.1642 20.4935ZM20.4928 18.6042C20.8664 18.6042 21.2317 18.715 21.5424 18.9226C21.8531 19.1302 22.0953 19.4252 22.2382 19.7705C22.3812 20.1157 22.4187 20.4955 22.3458 20.862C22.2729 21.2285 22.0929 21.5652 21.8287 21.8294C21.5645 22.0936 21.2278 22.2735 20.8614 22.3464C20.4949 22.4193 20.115 22.3819 19.7698 22.2389C19.4246 22.0959 19.1295 21.8538 18.9219 21.5431C18.7143 21.2324 18.6035 20.8671 18.6035 20.4935C18.6035 19.9924 18.8025 19.5118 19.1568 19.1575C19.5112 18.8032 19.9917 18.6042 20.4928 18.6042ZM51.666 64.8917H40.3303V58.2792H51.666V64.8917ZM64.7701 64.7594C64.4556 64.8969 64.1065 64.9349 63.7698 64.8682C63.433 64.8015 63.1248 64.6333 62.8865 64.3863L55.7213 57.2202C55.4587 56.9562 55.1463 56.7469 54.8022 56.6044C54.4581 56.4619 54.0892 56.389 53.7168 56.3899H30.1007C29.6257 56.3901 29.168 56.2113 28.8189 55.8892L23.0565 50.5718C23.0452 50.5595 23.032 50.5492 23.0188 50.5369L19.2799 47.0804L19.2534 47.0568L18.1926 46.0772C18.0246 45.9217 17.8904 45.7333 17.7986 45.5236C17.7068 45.3139 17.6592 45.0875 17.6588 44.8586C17.6545 44.5442 17.7415 44.2352 17.9091 43.9691C18.0768 43.7031 18.318 43.4913 18.6035 43.3595C18.8286 43.2507 19.0752 43.1936 19.3252 43.1923C19.7049 43.1941 20.0722 43.3276 20.3643 43.5701L30.4512 51.7611C31.1247 52.3093 31.9661 52.6094 32.8345 52.6113H55.6061C55.7303 52.6112 55.8533 52.6356 55.9681 52.6831C56.0828 52.7306 56.1871 52.8003 56.2749 52.8881L65.3302 61.9434C65.6528 62.2682 65.8344 62.7071 65.8356 63.1649C65.8423 63.5077 65.7437 63.8443 65.5532 64.1294C65.3626 64.4145 65.0894 64.6344 64.7701 64.7594Z" fill="#1B8976"/>
<path d="M75.8813 22.7744C75.9356 22.1234 75.8541 21.4681 75.6422 20.8501C75.4302 20.2321 75.0924 19.6648 74.65 19.1841C74.2076 18.7033 73.6703 18.3196 73.072 18.0571C72.4737 17.7947 71.8275 17.6591 71.1742 17.6592H70.9352C69.8636 17.6629 68.8249 18.0291 67.9879 18.6983L66.6597 19.7572C66.1584 20.162 65.5334 20.3828 64.889 20.3828C64.2446 20.3828 63.6197 20.162 63.1183 19.7572L61.7911 18.6983C60.9541 18.0291 59.9153 17.6629 58.8438 17.6592H58.6076C57.9502 17.659 57.2999 17.796 56.6985 18.0615C56.0971 18.327 55.5577 18.7151 55.1149 19.2011C54.6721 19.687 54.3356 20.26 54.127 20.8835C53.9183 21.5069 53.8421 22.1671 53.9033 22.8217L56.1704 39.7213C56.2509 40.3214 56.5184 40.8809 56.9349 41.3203C57.3513 41.7597 57.8957 42.0568 58.4906 42.1693C59.0855 42.2818 59.7007 42.2041 60.2489 41.9471C60.7971 41.6901 61.2504 41.267 61.5445 40.7377C61.5635 40.7036 61.5802 40.6683 61.5946 40.6319L64.0119 34.6382C64.0822 34.4632 64.2032 34.3132 64.3594 34.2076C64.5157 34.1019 64.6999 34.0455 64.8885 34.0455C65.0771 34.0455 65.2614 34.1019 65.4176 34.2076C65.5739 34.3132 65.6949 34.4632 65.7652 34.6382L68.1825 40.6319C68.1969 40.6683 68.2136 40.7036 68.2326 40.7377C68.5266 41.267 68.98 41.6901 69.5282 41.9471C70.0764 42.2041 70.6916 42.2818 71.2865 42.1693C71.8814 42.0568 72.4257 41.7597 72.8422 41.3203C73.2587 40.8809 73.5262 40.3214 73.6066 39.7213L75.1577 28.1759C75.1911 27.9275 75.1243 27.676 74.9723 27.4768C74.8202 27.2776 74.5952 27.147 74.3468 27.1136C74.0984 27.0803 73.8469 27.147 73.6477 27.2991C73.4485 27.4512 73.3178 27.6762 73.2845 27.9246L71.7353 39.471C71.7082 39.6735 71.6191 39.8628 71.4803 40.0128C71.3415 40.1628 71.1598 40.2663 70.9599 40.3091C70.7601 40.3519 70.5519 40.332 70.3638 40.2519C70.1758 40.1719 70.017 40.0357 69.9093 39.8621L67.5175 33.9316C67.3061 33.4077 66.9429 32.959 66.4747 32.643C66.0064 32.3271 65.4544 32.1582 64.8895 32.1582C64.3246 32.1582 63.7726 32.3271 63.3043 32.643C62.836 32.959 62.4729 33.4077 62.2615 33.9316L59.8696 39.8583C59.7619 40.032 59.6032 40.1681 59.4151 40.2482C59.2271 40.3282 59.0189 40.3482 58.819 40.3054C58.6192 40.2626 58.4374 40.1591 58.2986 40.009C58.1598 39.859 58.0708 39.6698 58.0437 39.4672L55.7765 22.6138C55.7445 22.2232 55.7939 21.8301 55.9215 21.4595C56.0492 21.0889 56.2523 20.7488 56.5181 20.4607C56.784 20.1726 57.1066 19.9428 57.4658 19.7858C57.825 19.6287 58.2128 19.5479 58.6048 19.5485H58.8409C59.4844 19.5492 60.1085 19.7684 60.6112 20.17L61.9384 21.2318C62.7739 21.9062 63.8153 22.2741 64.889 22.2741C65.9627 22.2741 67.0041 21.9062 67.8396 21.2318L69.1678 20.17C69.6697 19.769 70.2927 19.5499 70.9352 19.5485H71.1714C71.5625 19.5486 71.9494 19.6298 72.3076 19.7868C72.6659 19.9438 72.9878 20.1733 73.253 20.4608C73.5182 20.7483 73.7211 21.0876 73.8487 21.4573C73.9764 21.8271 74.0262 22.2192 73.9949 22.6091L73.789 24.146C73.7557 24.3943 73.8224 24.6456 73.9743 24.8448C74.1263 25.0439 74.3512 25.1745 74.5995 25.2078C74.6417 25.2135 74.6843 25.2163 74.727 25.2163C74.9554 25.2158 75.1759 25.1326 75.3477 24.982C75.5195 24.8314 75.6309 24.6237 75.6612 24.3973L75.8728 22.8217C75.8728 22.8132 75.8728 22.8056 75.8728 22.7971C75.8728 22.7886 75.8804 22.7829 75.8813 22.7744Z" fill="#1B8976"/>
<path d="M64.8925 29.9403C65.1431 29.9403 65.3833 29.8408 65.5605 29.6636C65.7376 29.4865 65.8372 29.2462 65.8372 28.9957V28.051H66.7818C67.0323 28.051 67.2726 27.9515 67.4498 27.7744C67.6269 27.5972 67.7265 27.3569 67.7265 27.1064C67.7265 26.8559 67.6269 26.6156 67.4498 26.4384C67.2726 26.2613 67.0323 26.1617 66.7818 26.1617H65.8372V25.2171C65.8372 24.9666 65.7376 24.7263 65.5605 24.5491C65.3833 24.372 65.1431 24.2725 64.8925 24.2725C64.642 24.2725 64.4017 24.372 64.2246 24.5491C64.0474 24.7263 63.9479 24.9666 63.9479 25.2171V26.1617H63.0032C62.7527 26.1617 62.5124 26.2613 62.3353 26.4384C62.1581 26.6156 62.0586 26.8559 62.0586 27.1064C62.0586 27.3569 62.1581 27.5972 62.3353 27.7744C62.5124 27.9515 62.7527 28.051 63.0032 28.051H63.9479V28.9957C63.9479 29.2462 64.0474 29.4865 64.2246 29.6636C64.4017 29.8408 64.642 29.9403 64.8925 29.9403Z" fill="#1B8976"/>
</g>
<defs>
<clipPath id="clip0_2753_3502">
<rect width="60.4571" height="60.4571" fill="white" transform="translate(15.7695 15.7705)"/>
</clipPath>
</defs>
</svg>
