<svg width="92" height="92" viewBox="0 0 92 92" fill="none" xmlns="http://www.w3.org/2000/svg">
<circle cx="46" cy="46" r="45.5" fill="#1B8976" fill-opacity="0.05" stroke="#1B8976"/>
<g clip-path="url(#clip0_2753_3543)">
<path d="M36.2416 24.6491C37.5229 25.2205 38.927 25.5208 40.3292 25.5208C42.3146 25.5208 44.2375 24.9387 45.8884 23.8368L46.5349 23.4068L45.4545 21.7842L44.808 22.2142C42.4404 23.7919 39.3103 24.0133 36.6843 22.7008L36.2074 22.4989L35.7686 22.7183C33.2226 23.9909 30.0476 23.7929 27.6801 22.2142L27.0336 21.7842L25.9531 23.4068L26.5987 23.8368C29.405 25.709 33.0744 26.0513 36.2416 24.6491Z" fill="#1B8976"/>
<path d="M55.6781 22.6275C54.9974 21.1473 53.9989 19.8124 52.7303 18.7251C50.508 16.8197 47.6724 15.7705 44.7441 15.7705H43.5603C41.1498 15.7705 38.7608 16.5672 36.833 18.0133C36.4878 18.2727 36.0071 18.2717 35.6619 18.0133C33.7331 16.5672 31.3441 15.7705 28.9336 15.7705H27.7498C24.8225 15.7705 21.9859 16.8197 19.7636 18.7251C17.2254 20.9006 15.7695 24.0648 15.7695 27.4075C15.7695 28.8692 16.0445 30.2978 16.5867 31.6542L21.199 43.1849C21.6466 44.3024 22.7124 45.024 23.9156 45.024H27.2954L26.645 48.9244H24.3964C22.8654 48.9244 21.6202 50.1696 21.6202 51.7006C21.6202 51.8527 21.6329 52.0048 21.6583 52.1569L25.1882 73.3335C25.4671 75.0107 26.9034 76.2276 28.603 76.2276C30.1076 76.2276 31.4123 75.2087 31.777 73.7499L34.7697 61.7794C34.9393 61.0997 35.5468 60.6258 36.247 60.6258C36.9471 60.6258 37.5546 61.0997 37.7242 61.7794L40.7169 73.7489C41.0816 75.2087 42.3863 76.2276 43.8909 76.2276C45.5905 76.2276 47.0268 75.0107 47.3067 73.3345L50.8366 52.156C50.861 52.0048 50.8737 51.8527 50.8737 51.7006C50.8737 50.1696 49.6285 48.9244 48.0975 48.9244H45.8489L45.1985 45.024H48.5783C49.7815 45.024 50.8473 44.3024 51.2949 43.1849L52.5158 40.1318C52.9438 40.1416 53.3719 40.1484 53.799 40.1484C64.6716 40.1484 76.2267 37.0729 76.2267 31.3724C76.2267 26.0141 65.9938 22.9513 55.6781 22.6275ZM73.3042 29.4192C73.038 29.6874 72.7075 29.9536 72.3369 30.2159C68.7943 28.213 63.0577 26.8771 56.6785 26.5689C56.6298 25.902 56.5245 25.2467 56.3626 24.606C64.7973 24.9736 71.0079 27.0887 73.3042 29.4192ZM55.9072 31.6551C56.3109 30.6449 56.5654 29.5947 56.6698 28.5201C62.1109 28.7893 67.0109 29.819 70.3145 31.3655C66.9397 32.9452 61.5678 34.1641 54.8551 34.2811L55.9072 31.6551ZM48.9234 51.7006C48.9234 51.7464 48.9195 51.7922 48.9127 51.8361L45.3828 73.0127C45.2609 73.746 44.6329 74.2774 43.8909 74.2774C43.2834 74.2774 42.7558 73.8659 42.6096 73.277L39.6169 61.3074C39.2298 59.757 37.8442 58.6756 36.247 58.6756C34.6497 58.6756 33.2641 59.757 32.8779 61.3064L29.8853 73.277C29.7381 73.8659 29.2105 74.2774 28.603 74.2774C27.861 74.2774 27.233 73.746 27.1111 73.0137L23.5822 51.8381C23.5744 51.7922 23.5705 51.7464 23.5705 51.7006C23.5705 51.2452 23.941 50.8747 24.3964 50.8747H48.0975C48.5529 50.8747 48.9234 51.2452 48.9234 51.7006ZM43.8724 48.9244H28.6215L29.272 45.024H43.2219L43.8724 48.9244ZM49.4832 42.4604C49.3349 42.8329 48.979 43.0737 48.5783 43.0737H23.9156C23.5149 43.0737 23.159 42.8329 23.0107 42.4604L18.3984 30.9296C17.9479 29.8053 17.7198 28.6196 17.7198 27.4075C17.7198 24.6353 18.927 22.0103 21.0322 20.2053C22.9015 18.6032 25.2867 17.7207 27.7498 17.7207H28.9336C30.9248 17.7207 32.8984 18.3789 34.4917 19.5735C35.5244 20.3467 36.9676 20.3487 38.0022 19.5735C39.5955 18.3789 41.5691 17.7207 43.5603 17.7207H44.7441C47.2063 17.7207 49.5924 18.6032 51.4617 20.2053C53.5669 22.0103 54.7741 24.6353 54.7741 27.4075C54.7741 28.6196 54.546 29.8044 54.0955 30.9296L52.7556 34.2801C42.7237 34.1066 35.6677 31.4699 33.8179 28.8585L33.0222 27.7332L32.2266 28.8585C31.659 29.661 31.3714 30.5064 31.3714 31.3724C31.3714 36.4878 40.6788 39.4882 50.4476 40.0499L49.4832 42.4604ZM53.799 38.1982C41.732 38.1982 33.3216 34.601 33.3216 31.3724C33.3216 31.3119 33.3245 31.2505 33.3304 31.19C36.8291 34.2606 44.6895 36.2479 53.799 36.2479C62.9086 36.2479 70.769 34.2606 74.2677 31.19C74.2735 31.2505 74.2764 31.3119 74.2764 31.3724C74.2764 34.601 65.8661 38.1982 53.799 38.1982Z" fill="#1B8976"/>
<path d="M58.6705 69.0001V42.1006H56.7202V69.0001L54.4843 66.7642L53.1055 68.143L57.6953 72.7329L62.2852 68.143L60.9064 66.7642L58.6705 69.0001Z" fill="#1B8976"/>
<path d="M66.479 54.3724V40.1494H64.5288V54.3724L62.2929 52.1365L60.9141 53.5153L65.5039 58.1052L70.0938 53.5153L68.715 52.1365L66.479 54.3724Z" fill="#1B8976"/>
</g>
<defs>
<clipPath id="clip0_2753_3543">
<rect width="60.4571" height="60.4571" fill="white" transform="translate(15.7695 15.7705)"/>
</clipPath>
</defs>
</svg>
