<svg width="92" height="92" viewBox="0 0 92 92" fill="none" xmlns="http://www.w3.org/2000/svg">
<circle cx="46" cy="46" r="45.5" fill="#1B8976" fill-opacity="0.05" stroke="#1B8976"/>
<path d="M58.8194 52.3793L57.7462 43.5966C59.7898 43.1186 61.6218 41.9687 62.9569 40.2797C66.1687 36.2164 65.4766 30.2973 61.414 27.0849C59.7382 25.7599 57.7255 25.0596 55.5937 25.0596C52.9997 25.0596 50.5764 26.1113 48.8099 27.9609C45.9338 28.2487 43.974 29.7897 42.6886 31.4239C41.972 30.5177 41.0292 29.6222 39.8094 28.9597C37.524 27.7191 34.7939 27.5868 31.6968 28.5673C29.5033 29.2613 28.0618 30.5612 27.4106 32.429C25.6013 37.6239 30.5493 45.5061 31.3485 46.7278C31.1168 48.5931 29.4479 63.0997 33.1339 66.4173C33.5199 66.7649 33.9022 66.9394 34.2731 66.9394C34.394 66.9394 34.5143 66.9211 34.6327 66.8839C35.8847 66.491 36.4382 64.13 37.2047 60.8622C38.2198 56.5325 39.4838 51.1443 42.6357 51.1443L42.7585 51.1399C45.8935 51.1399 47.1574 56.5281 48.1726 60.8571C48.939 64.125 49.4926 66.4859 50.7446 66.8789C51.2282 67.0307 51.732 66.8732 52.244 66.4129C55.9294 63.0953 54.2605 48.5881 54.0288 46.7227C54.2826 46.3342 54.9551 45.273 55.6964 43.841C56.0736 43.8366 56.4458 43.8082 56.8136 43.7603L57.8804 52.4933L58.8194 52.3793ZM53.1471 46.3443L53.047 46.4923L53.0703 46.6692C53.6471 51.0813 54.5093 63.1029 51.6124 65.7101C51.443 65.8625 51.2043 66.0325 51.0273 65.9771C50.2892 65.746 49.6532 63.0342 49.0921 60.6411C48.0007 55.9865 46.6423 50.1946 42.7422 50.1953L42.6194 50.1997C38.7356 50.1997 37.3772 55.9922 36.2858 60.6462C35.7247 63.0386 35.0887 65.7504 34.3506 65.9815C34.1749 66.0382 33.9356 65.8669 33.7662 65.7145C30.8686 63.1073 31.7314 51.0857 32.3076 46.6736L32.3309 46.496L32.2308 46.348C32.1735 46.2637 26.5327 37.8204 28.303 32.7395C28.8509 31.1676 30.0884 30.0668 31.9821 29.4673C33.2523 29.0655 34.4495 28.8646 35.5692 28.8646C36.9534 28.8646 38.2186 29.1719 39.3515 29.7853C42.659 31.5763 43.7643 35.4242 43.775 35.4626L44.6856 35.2107C44.6585 35.1125 44.27 33.7478 43.2668 32.2231C44.2618 30.8905 45.7499 29.5901 47.8917 29.0863C46.5743 30.9718 45.9892 33.2402 46.2588 35.5432C46.5497 38.0358 47.7941 40.2652 49.7621 41.8213C51.1892 42.9492 52.8618 43.6199 54.6428 43.7956C53.8373 45.3096 53.166 46.3153 53.1471 46.3443ZM56.18 42.8699C55.981 42.8837 55.7833 42.9032 55.5818 42.9032C55.4237 42.9032 55.2675 42.8925 55.1107 42.8837C53.3694 42.7886 51.7308 42.1746 50.3478 41.0813C48.5775 39.6814 47.4585 37.6762 47.1965 35.4349C46.9345 33.1936 47.5611 30.9837 48.9611 29.2135C49.0518 29.0989 49.1538 28.9968 49.2495 28.8879C49.5537 28.5403 49.878 28.2153 50.2281 27.9262C51.7245 26.6925 53.6037 26.0042 55.5943 26.0042C57.5107 26.0042 59.3206 26.634 60.8283 27.8261C64.4828 30.7155 65.105 36.0395 62.2163 39.694C60.7282 41.5757 58.5523 42.7042 56.18 42.8699Z" fill="#1B8976" stroke="#1B8976"/>
<path d="M61.731 30.5298C61.6321 29.9781 61.3248 29.497 60.8651 29.177C60.5111 28.9302 60.0968 28.7998 59.6666 28.7998C58.9802 28.7998 58.3359 29.1361 57.9442 29.6985C57.6237 30.1582 57.5009 30.7155 57.5998 31.2672C57.6986 31.8189 58.0059 32.3 58.4657 32.6199C58.8196 32.8668 59.234 32.9972 59.6641 32.9972C60.3506 32.9972 60.9948 32.6609 61.3871 32.0985C61.7071 31.6388 61.8292 31.0814 61.731 30.5298ZM60.6119 31.5582C60.2611 32.0607 59.5111 32.1986 59.0054 31.8447C58.7522 31.669 58.5834 31.4045 58.5293 31.101C58.4751 30.798 58.5425 30.4913 58.7188 30.2382C58.9342 29.9283 59.2881 29.7438 59.666 29.7438C59.9022 29.7438 60.1295 29.8156 60.3241 29.951C60.5766 30.1273 60.746 30.3912 60.8002 30.6954C60.855 30.9989 60.7876 31.3056 60.6119 31.5582Z" fill="#1B8976" stroke="#1B8976"/>
<path d="M52.6437 31.3715C52.8434 31.5107 53.0776 31.5844 53.3207 31.5844C53.708 31.5844 54.072 31.3948 54.2931 31.0768C54.4738 30.8173 54.5431 30.5024 54.4877 30.1913C54.4663 30.0704 54.4215 29.9577 54.3661 29.8519C54.2792 29.685 54.157 29.5383 53.999 29.4274C53.6684 29.1963 53.2357 29.1718 52.8711 29.3172C52.6645 29.3997 52.48 29.5351 52.349 29.7222C51.9756 30.2587 52.1078 30.9981 52.6437 31.3715ZM53.1236 30.2631C53.1683 30.1983 53.2426 30.1599 53.3214 30.1599C53.3554 30.1599 53.4064 30.1674 53.4574 30.2027C53.5285 30.2524 53.55 30.3211 53.5569 30.3576C53.5632 30.3941 53.567 30.4659 53.5172 30.5371C53.4523 30.6297 53.3528 30.7153 53.1828 30.5969C53.0751 30.5213 53.0487 30.3715 53.1236 30.2631Z" fill="#1B8976" stroke="#1B8976"/>
<path d="M60.6361 36.5289C60.1172 36.1661 59.347 36.3059 58.9867 36.823C58.8054 37.0824 58.7367 37.3973 58.7921 37.7084C58.8476 38.0201 59.0214 38.2909 59.2808 38.4717C59.4805 38.6109 59.7147 38.6845 59.9578 38.6845C60.3451 38.6845 60.7085 38.495 60.9308 38.177C61.3036 37.6417 61.1714 36.9017 60.6361 36.5289ZM60.1556 37.6379C60.0913 37.7298 59.9912 37.8161 59.8205 37.6977C59.75 37.648 59.7286 37.5793 59.7217 37.5428C59.7147 37.5063 59.7116 37.4345 59.7613 37.3633C59.8061 37.2991 59.8797 37.2607 59.9591 37.2607C59.9931 37.2607 60.0441 37.2682 60.0951 37.3035C60.2041 37.3797 60.2311 37.5296 60.1556 37.6379Z" fill="#1B8976" stroke="#1B8976"/>
<path d="M53.2656 40.2793L52.4909 39.7388L53.1729 38.7611L53.9477 39.3015L53.2656 40.2793Z" fill="#1B8976" stroke="#1B8976"/>
<path d="M55.7031 35.1641L56.4787 35.7044L55.7989 36.68L55.0234 36.1397L55.7031 35.1641Z" fill="#1B8976" stroke="#1B8976"/>
<path d="M52.4297 35.7197L53.4074 36.4018L52.867 37.1765L51.8892 36.4945L52.4297 35.7197Z" fill="#1B8976" stroke="#1B8976"/>
<path d="M56.0677 38.2402L55.5273 39.0155L56.4795 39.6786L56.5022 39.695L57.0425 38.9197L56.7862 38.7415L56.0677 38.2402Z" fill="#1B8976" stroke="#1B8976"/>
<path d="M51.6328 37.7217L52.8007 37.5128L52.9671 38.4427L51.7991 38.6516L51.6328 37.7217Z" fill="#1B8976" stroke="#1B8976"/>
<path d="M57.1459 36.75L55.9727 36.9597L56.1383 37.8899L57.0546 37.7261L57.3115 37.6802L57.2001 37.0548L57.1459 36.75Z" fill="#1B8976" stroke="#1B8976"/>
<path d="M53.7109 36.1924L53.5041 35.0215L54.4343 34.8572L54.6412 36.0281L53.7109 36.1924Z" fill="#1B8976" stroke="#1B8976"/>
<path d="M54.5 40.542L54.2884 39.372L55.2173 39.204L55.4289 40.374L54.5 40.542Z" fill="#1B8976" stroke="#1B8976"/>
<path d="M49.7718 32.5599L48.8605 32.3105C48.8341 32.4063 48.2295 34.674 49.6559 35.6684L50.1956 34.8938C49.3316 34.2905 49.7674 32.5769 49.7718 32.5599Z" fill="#1B8976" stroke="#1B8976"/>
<path d="M24.0185 25.7006L23.6589 25.3945C23.6394 25.4172 23.1784 25.9619 22.543 26.9557L22.941 27.2101C23.5569 26.246 24.0141 25.7056 24.0185 25.7006Z" fill="#1B8976" stroke="#1B8976"/>
<path d="M19.4059 38.9307C19.4059 37.9937 19.4733 37.0415 19.6068 36.0993L19.1395 36.0332C19.0029 36.9967 18.9336 37.9716 18.9336 38.9307C18.9336 39.0479 18.9342 39.1656 18.9367 39.284L19.4091 39.2752C19.4065 39.16 19.4059 39.0447 19.4059 38.9307Z" fill="#1B8976" stroke="#1B8976"/>
<path d="M21.4168 30.0067L20.9873 29.8096C20.532 30.8046 20.1459 31.8286 19.8398 32.8545L20.2926 32.9899C20.5924 31.9848 20.9703 30.9816 21.4168 30.0067Z" fill="#1B8976" stroke="#1B8976"/>
<path d="M20.1343 44.2695C19.9681 43.6675 19.8282 43.0547 19.7187 42.4482L19.2539 42.532C19.366 43.1529 19.509 43.7802 19.679 44.3955L20.1343 44.2695Z" fill="#1B8976" stroke="#1B8976"/>
<path d="M57.7695 72.5238L57.893 72.9797C57.9219 72.9721 58.6096 72.7832 59.6953 72.3222L59.5108 71.8877C58.4585 72.3342 57.7765 72.5219 57.7695 72.5238Z" fill="#1B8976" stroke="#1B8976"/>
<path d="M67.2812 66.4276L67.6301 66.7462C68.3657 65.942 69.0395 65.078 69.6328 64.1781L69.2386 63.918C68.6592 64.7971 68.0004 65.6416 67.2812 66.4276Z" fill="#1B8976" stroke="#1B8976"/>
<path d="M62.3516 70.437L62.5953 70.8419C63.5305 70.2802 64.4279 69.653 65.2617 68.9785L64.9644 68.6113C64.1476 69.2719 63.2685 69.886 62.3516 70.437Z" fill="#1B8976" stroke="#1B8976"/>
<path d="M70.7734 61.1268L71.2048 61.3202C71.4643 60.742 71.7004 60.1438 71.9064 59.5417L71.4593 59.3887C71.2577 59.9762 71.0272 60.5613 70.7734 61.1268Z" fill="#1B8976" stroke="#1B8976"/>
<path d="M71.6831 50.5127C70.9211 50.5127 70.3008 51.1324 70.3008 51.8938C70.3008 52.6558 70.9211 53.2761 71.6831 53.2761C72.4445 53.2761 73.0642 52.6558 73.0642 51.8938C73.0642 51.1324 72.4445 50.5127 71.6831 50.5127ZM71.6831 52.8044C71.1812 52.8044 70.7731 52.3963 70.7731 51.8944C70.7731 51.3931 71.1812 50.9856 71.6831 50.9856C72.1844 50.9856 72.5919 51.3931 72.5919 51.8944C72.5919 52.3957 72.1844 52.8044 71.6831 52.8044Z" fill="#1B8976" stroke="#1B8976"/>
<path d="M29.5137 70.8389C28.8562 70.8389 28.3203 71.3742 28.3203 72.0323C28.3203 72.6904 28.8556 73.2257 29.5137 73.2257C30.1718 73.2257 30.7071 72.6904 30.7071 72.0323C30.7071 71.3742 30.1718 70.8389 29.5137 70.8389ZM29.5137 72.7527C29.1163 72.7527 28.7926 72.429 28.7926 72.0316C28.7926 71.6343 29.1163 71.3106 29.5137 71.3106C29.9111 71.3106 30.2348 71.6343 30.2348 72.0316C30.2348 72.429 29.9111 72.7527 29.5137 72.7527Z" fill="#1B8976" stroke="#1B8976"/>
<path d="M61.2485 22.6415L62.6327 21.7819L64.0169 22.6415L63.6271 21.0596L64.8734 20.0091L63.248 19.8901L62.6327 18.3818L62.0193 19.8901L60.3945 20.0091L61.6389 21.0596L61.2485 22.6415ZM61.5848 20.3958L62.3462 20.3404L62.6333 19.6344L62.9211 20.3404L63.6819 20.3958L63.0981 20.8877L63.2807 21.6283L62.6333 21.2258L61.9859 21.6283L62.1686 20.8883L61.5848 20.3958Z" fill="#1B8976" stroke="#1B8976"/>
<path d="M29.7005 22.4778L30.9789 21.6849L32.2567 22.4778L31.8965 21.0174L33.0477 20.0475L31.5463 19.9392L30.9789 18.5449L30.4115 19.9392L28.9102 20.0482L30.0614 21.018L29.7005 22.4778ZM30.7384 20.3882L30.9783 19.7975L31.2182 20.3882L31.8543 20.4342L31.3669 20.8448L31.5199 21.4651L30.9783 21.1288L30.4361 21.4651L30.5891 20.8448L30.1017 20.4342L30.7384 20.3882Z" fill="#1B8976" stroke="#1B8976"/>
<path d="M22.6404 60.9952L21.9627 59.3301L21.2851 60.9952L19.4922 61.1249L20.8663 62.283L20.4362 64.0281L21.9621 63.0797L23.488 64.0281L23.0579 62.283L24.432 61.1249L22.6404 60.9952ZM22.7525 63.0148L21.9627 62.5242L21.173 63.0148L21.396 62.1105L20.6856 61.5122L21.6132 61.4454L21.9634 60.5839L22.3135 61.4454L23.2412 61.5122L22.5308 62.1105L22.7525 63.0148Z" fill="#1B8976" stroke="#1B8976"/>
<path d="M71.4492 32.5166H71.9215V36.2952H71.4492V32.5166Z" fill="#1B8976" stroke="#1B8976"/>
<path d="M71.4492 24.96H71.9215V28.7385H71.4492V24.96Z" fill="#1B8976" stroke="#1B8976"/>
<path d="M71.4492 40.0742H71.9215V43.0826H71.4492V40.0742Z" fill="#1B8976" stroke="#1B8976"/>
</svg>
