<svg width="92" height="92" viewBox="0 0 92 92" fill="none" xmlns="http://www.w3.org/2000/svg">
<circle cx="46" cy="46" r="45.5" fill="#1B8976" fill-opacity="0.05" stroke="#1B8976"/>
<g clip-path="url(#clip0_2753_3514)">
<path d="M68.0259 45.8603C67.5508 45.7445 67.0716 46.0365 66.9563 46.5116C66.3677 48.9318 65.5822 52.6315 64.6223 57.5078C64.5278 57.9875 64.8405 58.4534 65.3202 58.5479C65.3779 58.559 65.4355 58.5645 65.4922 58.5645C65.9069 58.5645 66.2773 58.2721 66.3603 57.85C67.3151 52.9991 68.0946 49.3252 68.6772 46.9299C68.793 46.4549 68.501 45.9761 68.0259 45.8603Z" fill="#1B8976"/>
<path d="M64.9113 60.6643C64.4307 60.5725 63.9672 60.887 63.8749 61.3677C63.0871 65.4788 62.3657 69.3994 61.8989 71.964C61.7721 72.6614 61.4021 73.2965 60.8569 73.7513C60.3117 74.2061 59.6203 74.4561 58.9109 74.4561C57.4017 74.4561 56.1393 73.374 55.9096 71.8828L52.5129 49.8927C52.3635 48.9157 51.8672 48.0237 51.1158 47.3802C50.3644 46.7363 49.4073 46.3821 48.4207 46.3821C46.3626 46.3821 44.6412 47.8581 44.3285 49.8913L40.9318 71.8828C40.8216 72.5987 40.4572 73.2527 39.9065 73.725C39.329 74.2204 38.5905 74.4792 37.8281 74.4547C36.4093 74.4086 35.1888 73.327 34.9264 71.8828C34.6681 70.464 34.4033 69.0226 34.1376 67.5904C37.519 65.941 39.8544 62.4682 39.8544 58.4595C39.8544 53.0642 35.6242 48.6399 30.3069 48.3253C29.896 46.508 29.5519 45.1395 29.2839 44.2585C29.2806 44.2488 29.2779 44.2396 29.2747 44.2299L26.324 34.2526C26.0131 33.2005 25.8554 32.123 25.8554 31.0497C25.8554 28.9095 26.4767 26.8168 27.652 24.9971C27.9172 24.5862 27.7991 24.0382 27.3886 23.7725C26.9776 23.5073 26.4297 23.6254 26.164 24.0359C24.8037 26.1429 24.0847 28.5677 24.0847 31.0497C24.0847 32.2932 24.2664 33.5395 24.6257 34.7549L27.5777 44.7363C27.5796 44.7433 27.5814 44.7502 27.5837 44.7566C27.5869 44.7673 27.5902 44.7779 27.5939 44.788C27.8323 45.5749 28.1377 46.7815 28.5025 48.3784C23.467 48.9734 19.5469 53.2658 19.5469 58.4595C19.5469 64.0581 24.1017 68.613 29.7008 68.613C30.6552 68.613 31.5786 68.4778 32.455 68.2306C32.7004 69.5558 32.9453 70.8874 33.1838 72.2001C33.5947 74.4593 35.5237 76.1517 37.7709 76.225C37.8235 76.2264 37.8761 76.2273 37.9286 76.2273C39.079 76.2273 40.1851 75.8191 41.0596 75.0691C41.9314 74.3214 42.5079 73.2859 42.6823 72.1526L46.0789 50.1611C46.2584 48.9974 47.2431 48.1528 48.4207 48.1528C48.9853 48.1528 49.5332 48.3558 49.9636 48.7248C50.3935 49.0929 50.6771 49.6025 50.7629 50.1611L54.1591 72.1526C54.5231 74.5138 56.5212 76.2273 58.9109 76.2273C60.0341 76.2273 61.1277 75.8311 61.9921 75.1115C62.8551 74.3906 63.4409 73.3851 63.642 72.2809C64.1078 69.72 64.8283 65.8054 65.6147 61.7007C65.7065 61.2205 65.392 60.7565 64.9113 60.6643ZM21.3181 58.4595C21.3181 53.8373 25.0782 50.0767 29.7008 50.0767C34.323 50.0767 38.0832 53.8373 38.0832 58.4595C38.0832 63.0817 34.323 66.8422 29.7008 66.8422C25.0782 66.8422 21.3181 63.0817 21.3181 58.4595Z" fill="#1B8976"/>
<path d="M71.6313 32.5034C71.0197 32.0915 70.2434 32.1095 69.653 32.5499C69.4569 32.6957 69.2577 32.6477 69.1811 32.6205C69.105 32.5928 68.9205 32.5034 68.8619 32.2663L68.5487 30.9983C68.4039 30.4084 68.0377 29.9102 67.5178 29.5956C66.9966 29.2806 66.3841 29.1879 65.7932 29.3336L62.7693 30.0795C62.499 30.1459 62.2255 29.9808 62.1586 29.7109L61.4399 26.8028C61.2799 26.1533 60.8449 25.6095 60.2467 25.3106C59.6494 25.0126 58.9543 24.991 58.3408 25.2525L53.887 27.1469C53.6674 27.24 53.4875 27.1515 53.4206 27.109C53.3372 27.0564 53.1956 26.9338 53.1859 26.7031L52.9442 21.1898C52.9239 20.7249 52.7108 20.283 52.3593 19.9776C52.0069 19.6709 51.5374 19.5201 51.0706 19.5653C47.5605 19.9015 44.0688 19.5763 40.6934 18.5985C39.5227 18.2599 38.3055 18.0879 37.0753 18.0879C34.067 18.0879 31.2511 19.0796 28.9305 20.955C28.55 21.2627 28.491 21.8203 28.7986 22.2004C29.1058 22.5809 29.6635 22.64 30.044 22.3323C32.0458 20.7147 34.4771 19.8591 37.0753 19.8591C38.139 19.8591 39.1906 20.0076 40.2007 20.2996C43.7713 21.3342 47.4641 21.6824 51.1771 21.3342L51.2652 23.3425L48.7878 24.0228C48.3164 24.1524 48.0392 24.64 48.1688 25.1114C48.2768 25.5043 48.6333 25.7626 49.0222 25.7626C49.0997 25.7626 49.1785 25.7525 49.2574 25.7308L51.345 25.157L51.4161 26.7797C51.4479 27.5255 51.8441 28.2087 52.4751 28.6067C53.1056 29.0052 53.8925 29.0684 54.5793 28.7765L55.3321 28.4563V32.5965L52.3113 35.6177C51.9654 35.9637 51.9654 36.5241 52.3113 36.87C52.4843 37.043 52.7108 37.1292 52.9377 37.1292C53.1642 37.1292 53.3907 37.043 53.5636 36.87L54.3842 36.0495L55.9515 37.6168C56.1245 37.7898 56.3514 37.876 56.5779 37.876C56.8044 37.876 57.0313 37.7898 57.2038 37.6168C57.5498 37.2708 57.5498 36.71 57.2038 36.3645L55.6365 34.7972L56.844 33.5896C57.0101 33.4236 57.1033 33.1985 57.1033 32.9637V27.7036L59.0341 26.8826C59.2195 26.8032 59.3772 26.8567 59.4552 26.895C59.5331 26.9342 59.6715 27.0292 59.7199 27.2271L60.4386 30.1362C60.7402 31.3539 61.9759 32.1002 63.1932 31.799L66.218 31.0532C66.3495 31.0209 66.4856 31.0417 66.6009 31.1113C66.7157 31.181 66.7965 31.2907 66.8287 31.4217L67.1419 32.6906C67.325 33.4328 67.8642 34.0301 68.5838 34.2879C69.2485 34.5259 69.9777 34.4425 70.5686 34.0679C70.5515 34.1293 70.534 34.1911 70.516 34.2529L68.0174 42.6975C67.879 43.1666 68.1465 43.6592 68.6156 43.7975C68.6996 43.8225 68.784 43.8344 68.867 43.8344C69.2494 43.8344 69.6018 43.5849 69.7157 43.1998L72.2143 34.7552C72.2544 34.6187 72.2927 34.4821 72.3282 34.3456C72.5137 33.6371 72.2401 32.9139 71.6313 32.5034Z" fill="#1B8976"/>
<path d="M66.3125 20.9148C66.473 21.0375 66.6621 21.097 66.8499 21.097C67.1165 21.097 67.3798 20.977 67.5537 20.7492L68.5819 19.4051C68.8794 19.0167 68.8051 18.4609 68.4167 18.1639C68.0284 17.8664 67.4721 17.9406 67.175 18.329L66.1469 19.6731C65.8499 20.0615 65.9241 20.6173 66.3125 20.9148Z" fill="#1B8976"/>
<path d="M63.076 19.2124C63.1148 19.2175 63.1535 19.2198 63.1913 19.2198C63.6295 19.2198 64.0105 18.8946 64.0686 18.4486L64.2868 16.7705C64.35 16.2853 64.0078 15.8411 63.523 15.7779C63.0373 15.7152 62.5936 16.057 62.5304 16.5418L62.3122 18.2198C62.249 18.705 62.5913 19.1492 63.076 19.2124Z" fill="#1B8976"/>
<path d="M68.8025 23.5926C68.9441 23.933 69.2734 24.1382 69.6203 24.1382C69.7338 24.1382 69.8491 24.1161 69.9602 24.07L71.5225 23.4201C71.9741 23.2323 72.1881 22.7139 71.9999 22.2623C71.8122 21.8107 71.2937 21.5972 70.8421 21.7849L69.2799 22.4348C68.8283 22.6225 68.6148 23.141 68.8025 23.5926Z" fill="#1B8976"/>
<path d="M33.1138 55.0456C32.7678 54.6996 32.2074 54.6996 31.8615 55.0456L29.7005 57.2065L27.5391 55.0456C27.1932 54.6996 26.6323 54.6996 26.2868 55.0456C25.9409 55.3915 25.9409 55.9519 26.2868 56.2979L28.4478 58.4593L26.2868 60.6203C25.9409 60.9662 25.9409 61.5271 26.2868 61.8726C26.4598 62.0455 26.6862 62.1322 26.9127 62.1322C27.1396 62.1322 27.3661 62.0455 27.5391 61.8726L29.7005 59.7116L31.8615 61.8726C32.0344 62.0455 32.2609 62.1322 32.4879 62.1322C32.7143 62.1322 32.9408 62.0455 33.1138 61.8726C33.4597 61.5266 33.4597 60.9662 33.1138 60.6203L30.9528 58.4593L33.1138 56.2979C33.4597 55.9519 33.4597 55.3915 33.1138 55.0456Z" fill="#1B8976"/>
</g>
<defs>
<clipPath id="clip0_2753_3514">
<rect width="60.4571" height="60.4571" fill="white" transform="translate(15.7695 15.7705)"/>
</clipPath>
</defs>
</svg>
