<svg width="92" height="92" viewBox="0 0 92 92" fill="none" xmlns="http://www.w3.org/2000/svg">
<circle cx="46" cy="46" r="45.5" fill="#1B8976" fill-opacity="0.05" stroke="#1B8976"/>
<path d="M60.1696 18.8509L55.2952 20.6646C53.1308 19.2884 50.6221 18.5504 48.0573 18.5354C45.4925 18.5204 42.9753 19.2289 40.7949 20.5796L37.2525 18.8887C36.7429 18.7433 36.2142 18.6764 35.6844 18.6903C29.2136 18.4541 24.1125 27.5321 25.1611 35.7978C23.0704 37.196 21.4598 39.2027 20.5473 41.5464C19.6347 43.8901 19.4643 46.4576 20.059 48.9014C20.6537 51.3451 21.9848 53.5472 23.8723 55.2095C25.7598 56.8718 28.1123 57.9141 30.6117 58.1953C32.501 64.7605 35.4199 69.9938 38.8679 72.9695C39.1735 73.2252 39.5459 73.3882 39.9411 73.4392C40.3363 73.4902 40.7379 73.4271 41.0984 73.2572C41.4589 73.0874 41.7633 72.818 41.9757 72.4808C42.1881 72.1436 42.2995 71.7526 42.2969 71.3541C42.2969 61.8983 45.6598 55.3141 48.6638 55.3141C51.6678 55.3141 55.0307 61.8983 55.0307 71.3825C55.03 71.7811 55.1437 72.1716 55.3583 72.5076C55.5729 72.8436 55.8793 73.111 56.2413 73.278C56.6033 73.4451 57.0056 73.5048 57.4005 73.4501C57.7953 73.3954 58.1663 73.2286 58.4692 72.9695C64.2504 67.9818 68.473 56.476 68.7753 44.9136C71.1373 41.6731 72.3717 37.7476 72.2893 33.7384C72.2138 24.8871 66.9993 17.6228 60.1696 18.8509ZM49.599 20.5323C50.7544 20.7025 51.8782 21.0431 52.9336 21.5431L47.2468 23.6591L42.9109 21.5903C44.9877 20.5875 47.3141 20.2195 49.599 20.5323ZM31.0462 45.9999V39.7464C31.0462 39.4958 31.1457 39.2556 31.3229 39.0784C31.5 38.9013 31.7403 38.8017 31.9909 38.8017C32.2414 38.8017 32.4817 38.9013 32.6588 39.0784C32.836 39.2556 32.9355 39.4958 32.9355 39.7464V45.6126L36.289 48.9566C36.4669 49.1345 36.5668 49.3758 36.5668 49.6273C36.5668 49.8789 36.4669 50.1202 36.289 50.298C36.1111 50.4759 35.8698 50.5758 35.6183 50.5758C35.3667 50.5758 35.1255 50.4759 34.9476 50.298L31.3202 46.6706C31.1462 46.4905 31.0481 46.2503 31.0462 45.9999ZM67.0466 44.1201C66.5459 55.2291 62.9185 66.8104 57.2317 71.5336C57.2088 71.5602 57.1772 71.5776 57.1425 71.5828C57.1078 71.588 57.0725 71.5806 57.0428 71.562C57.0031 71.5446 56.9698 71.5152 56.9477 71.4779C56.9257 71.4406 56.916 71.3973 56.92 71.3541C56.92 61.3031 53.302 53.4248 48.6638 53.4248C44.0256 53.4248 40.4076 61.3031 40.4076 71.3825C40.4089 71.4203 40.3988 71.4576 40.3785 71.4896C40.3583 71.5216 40.329 71.5468 40.2943 71.562C40.2639 71.5782 40.2291 71.5843 40.1951 71.5792C40.161 71.574 40.1296 71.5581 40.1053 71.5336C37.073 68.9169 34.3714 64.1182 32.5954 58.2519C48.4465 56.8916 47.8892 34.3052 31.9909 33.7196C30.2607 33.7218 28.5508 34.0921 26.9748 34.8059C26.9559 34.4469 26.937 34.088 26.937 33.7384C26.937 26.4836 30.8667 20.5796 35.6844 20.5796C35.9752 20.5835 36.2654 20.6056 36.5535 20.6457L52.0362 28.0328C52.2585 28.1201 52.5057 28.12 52.7279 28.0324C52.9501 27.9448 53.1309 27.7763 53.2339 27.5608C53.3368 27.3453 53.3543 27.0987 53.2828 26.8708C53.2114 26.6429 53.0562 26.4505 52.8486 26.3324L49.6179 24.7832L60.7458 20.6551C61.0458 20.6073 61.3489 20.582 61.6526 20.5796C70.759 20.9763 72.9884 37.3848 67.0466 44.1201Z" fill="#1B8976"/>
<path d="M67.6798 34.337C67.8119 32.1362 67.1777 29.9575 65.8849 28.1714C64.4491 26.1035 60.1736 23.4557 59.638 25.3658C59.6057 25.4856 59.5974 25.6106 59.6134 25.7337C59.6294 25.8568 59.6696 25.9755 59.7315 26.083C59.7934 26.1906 59.876 26.2849 59.9744 26.3605C60.0727 26.4362 60.1851 26.4917 60.3049 26.5239C61.9583 26.9896 63.4033 28.0052 64.4015 29.4031C65.3997 30.8009 65.8914 32.4974 65.7952 34.2124C65.7852 34.4586 65.8717 34.6989 66.0364 34.8822C66.2011 35.0655 66.4308 35.1772 66.6767 35.1935C66.9226 35.2097 67.1651 35.1293 67.3524 34.9693C67.5398 34.8093 67.6573 34.5824 67.6798 34.337Z" fill="#1B8976"/>
</svg>
