<svg width="92" height="92" viewBox="0 0 92 92" fill="none" xmlns="http://www.w3.org/2000/svg">
<circle cx="46" cy="46" r="45.5" fill="#1B8976" fill-opacity="0.05" stroke="#1B8976"/>
<path d="M19.682 52.3793C19.9667 52.4932 26.0834 54.9878 33.8176 54.9878C34.0682 54.9878 34.3187 54.9764 34.5693 54.965C34.444 57.5734 34.6149 60.9222 35.5945 64.6924C35.9476 66.0479 37.1664 66.9933 38.5446 66.9933C39.9798 66.9933 41.1986 66.0251 41.5175 64.6241C41.5745 64.3507 41.6542 63.9976 41.7339 63.599C43.545 54.9308 45.06 53.1083 46.0054 53.1083C48.2949 53.1083 49.7301 60.6488 50.1971 63.132C50.311 63.7356 50.4135 64.2482 50.4932 64.6241C50.8008 65.991 52.0423 66.9933 53.4548 66.9933C54.8444 66.9933 56.0518 66.0479 56.4049 64.6924C57.3845 60.9108 57.5553 57.5734 57.43 54.965C57.6806 54.965 57.9312 54.9878 58.1818 54.9878C65.9159 54.9878 72.044 52.4932 72.3174 52.3793C72.5566 52.2768 72.7502 52.106 72.8755 51.8895C76.3041 45.807 73.1261 32.2865 72.9894 31.717C72.9552 31.5575 72.8755 31.4095 72.773 31.2842L68.194 25.4522C67.8751 25.0536 67.3511 24.9055 66.8727 25.0991L61.4395 27.2633C60.9269 27.4684 60.6421 28.0037 60.7447 28.5391L61.7015 33.4142C61.8268 34.0179 62.4077 34.4166 63.0114 34.314L65.2097 33.9268C65.2211 35.1114 65.1983 36.9908 65.0389 38.9841C64.9136 40.5788 65.0958 41.9912 65.4148 43.1758C63.8543 42.3215 61.9407 41.5356 60.0157 41.342C60.0271 41.2167 60.0384 41.08 60.0384 40.9547C60.0384 32.8902 55.4936 29.9743 51.6095 29.9287C50.9147 29.9059 49.9693 30.1223 49.377 30.3274C47.1558 31.0905 44.8094 31.0905 42.5882 30.3274C41.9959 30.1223 41.0163 29.9287 40.3557 29.9287C36.4715 29.9743 31.9267 32.8902 31.9267 40.9547C31.9267 41.08 31.9381 41.2053 31.9495 41.342C30.0245 41.5242 28.1109 42.3215 26.5504 43.1758C26.8694 41.9912 27.0516 40.5788 26.9263 38.9841C26.7669 36.9908 26.7441 35.1114 26.7555 33.9268L28.9538 34.314C29.5689 34.4166 30.1498 34.0179 30.2637 33.4142L31.2205 28.5391C31.3231 28.0037 31.0383 27.4684 30.5257 27.2633L25.0925 25.0991C24.6255 24.9169 24.0901 25.0536 23.7712 25.4522L19.1922 31.2842C19.0897 31.4095 19.0213 31.5575 18.9758 31.717C18.8391 32.2865 15.6611 45.807 19.0897 51.8895C19.2491 52.106 19.4428 52.2768 19.682 52.3793ZM67.5448 47.322C67.989 47.7092 68.661 47.6751 69.0825 47.265C69.5039 46.8436 69.5381 46.1829 69.1508 45.7273C69.128 45.7045 67.0208 43.1303 67.3511 39.1664C67.6359 35.6923 67.5106 32.651 67.4992 32.5257C67.4878 32.1954 67.3284 31.8879 67.0778 31.6828C66.8272 31.4778 66.4855 31.3981 66.1665 31.4436L63.7517 31.8651L63.1936 29.0175L66.9525 27.5253L70.848 32.4916C71.2467 34.2571 73.5703 45.34 71.0872 50.4316C69.6064 50.9783 63.9226 52.8919 57.2478 52.7097C57.2364 52.6071 57.225 52.4932 57.2136 52.4021C56.9516 50.4999 57.3047 48.5521 58.2274 46.7752C58.7172 45.8412 59.2411 44.7363 59.6056 43.5859C63.3531 43.7567 67.4992 47.2764 67.5448 47.322ZM40.4013 32.1954C40.743 32.2182 41.4264 32.3207 41.8706 32.4688C44.5816 33.4028 47.4406 33.4028 50.1401 32.4688C50.573 32.3207 51.2906 32.2182 51.6095 32.1954C55.4253 32.241 57.7945 35.5898 57.7945 40.9433C57.7945 42.4582 56.9402 44.2807 56.2112 45.6931C55.0608 47.8915 54.6394 50.3177 54.9583 52.6869C55.3114 55.2497 55.4709 59.3048 54.2179 64.1115C54.1268 64.4646 53.8192 64.7038 53.4661 64.7038C53.113 64.7038 52.7941 64.4532 52.7258 64.1229C52.646 63.7584 52.5549 63.2686 52.441 62.6991C51.5981 58.2568 50.1857 50.8188 46.0054 50.8188C42.3718 50.8188 40.743 57.1747 39.5014 63.1206C39.4217 63.5078 39.3533 63.8496 39.285 64.1115C39.2053 64.4532 38.8977 64.6924 38.5446 64.6924C38.1915 64.6924 37.884 64.4419 37.7928 64.1001C36.5399 59.282 36.6994 55.227 37.0525 52.6755C37.3828 50.3063 36.9499 47.8801 35.7995 45.6817C35.0591 44.2579 34.2162 42.4355 34.2162 40.9319C34.2162 35.6012 36.5855 32.2524 40.4013 32.1954ZM21.1627 32.4802L25.0583 27.5139L28.8171 29.0061L28.259 31.8537L25.8442 31.4322C25.5253 31.3753 25.195 31.4664 24.933 31.6715C24.671 31.8765 24.5229 32.184 24.5115 32.5143C24.5115 32.6396 24.3749 35.6809 24.6596 39.155C24.9786 43.1189 22.8827 45.6931 22.8599 45.7045C22.4727 46.1601 22.5068 46.8322 22.9169 47.2422C23.3383 47.6637 24.0104 47.6865 24.466 47.2992C24.5115 47.265 28.6121 43.7681 32.4051 43.5631C32.7696 44.7022 33.2936 45.807 33.7834 46.7411C34.706 48.518 35.0591 50.4657 34.7971 52.3679C34.7858 52.4591 34.7744 52.573 34.763 52.6755C28.1109 52.8577 22.4043 50.9441 20.9235 50.3974C18.4518 45.3286 20.7755 34.2457 21.1627 32.4802Z" fill="#1B8976"/>
</svg>
