<svg width="108" height="108" viewBox="0 0 108 108" fill="none" xmlns="http://www.w3.org/2000/svg">
<path d="M14.7383 55.0198C13.6061 51.2767 13 47.3073 13 43.1979C13 20.5689 31.4087 2.16016 54.04 2.16016C76.6713 2.16016 95.08 20.5689 95.08 43.1979C95.08 58.8361 86.2908 72.4583 73.3923 79.3826M17.6865 62.2305C21.5095 69.5056 27.4526 75.4976 34.6878 79.3826" stroke="#1B8976" stroke-width="3" stroke-miterlimit="10" stroke-linecap="round" stroke-linejoin="round"/>
<path d="M65.4138 51.4961L73.498 30.2701C73.6631 29.8662 74.2347 29.8655 74.4008 30.2691L82.4114 51.4961M67.9351 46.2096H79.931M34.726 29.9668H26V51.4961M26 40.5276H34.0328M70.7652 96.674C73.0497 93.4038 74.3884 89.4277 74.3884 85.1363C74.3884 73.9872 65.3527 64.9516 54.2058 64.9516C43.0589 64.9516 34.0233 73.9872 34.0233 85.1363C34.0233 96.2832 43.0589 105.319 54.2058 105.319C58.2463 105.319 62.0094 104.131 65.1663 102.084M58.8274 40.7314C58.8274 46.6634 55.535 51.3573 50.3117 51.4485C48.5729 51.4789 44.0793 51.4961 44.0793 51.4961L44.0356 29.9668H50.1329C55.8624 29.9668 58.8274 34.7994 58.8274 40.7314Z" stroke="#1B8976" stroke-width="3" stroke-miterlimit="10" stroke-linecap="round" stroke-linejoin="round"/>
<path d="M63.9341 77.4274C62.5052 76.1269 60.2797 76.2526 58.9135 77.6188L51.0605 85.4718L48.1972 82.6086C46.831 81.2423 44.6056 81.1167 43.1766 82.4172C41.651 83.8056 41.6089 86.1696 43.0509 87.6115L47.8709 92.4314C49.6323 94.1928 52.4881 94.1928 54.2495 92.4314L64.0593 82.6217C65.5015 81.1795 65.4597 78.8158 63.9341 77.4274Z" stroke="#1B8976" stroke-width="3" stroke-miterlimit="10" stroke-linecap="round" stroke-linejoin="round"/>
</svg>
