<svg width="91" height="91" viewBox="0 0 91 91" fill="none" xmlns="http://www.w3.org/2000/svg">
<g clip-path="url(#clip0_7745_4250)">
<mask id="mask0_7745_4250" style="mask-type:luminance" maskUnits="userSpaceOnUse" x="0" y="0" width="91" height="91">
<path d="M61.0658 0H29.9342C13.402 0 0 13.402 0 29.9342V61.0658C0 77.598 13.402 91 29.9342 91H61.0658C77.598 91 91 77.598 91 61.0658V29.9342C91 13.402 77.598 0 61.0658 0Z" fill="white"/>
</mask>
<g mask="url(#mask0_7745_4250)">
<path d="M45.5162 0.00927783C27.3104 0.00662421 10.8565 10.8586 3.69079 27.5947L3.12368 27.7827L3.34355 28.4423C-6.09118 51.7119 5.12393 78.224 28.3934 87.6587C33.8283 89.8623 39.638 90.9936 45.5026 90.9903C70.6263 90.994 90.9962 70.6303 91 45.5066C91.0038 20.383 70.6399 0.0128791 45.5162 0.00927783ZM81.1983 68.4354L78.8624 66.1009V60.6633C78.865 60.4287 78.8131 60.1967 78.7107 59.9854L72.797 48.1746V42.4671C72.797 42.2176 72.7355 41.9718 72.6178 41.7517C72.5001 41.5316 72.3298 41.344 72.1222 41.2054L67.5731 38.1727C67.3968 38.055 67.1977 37.9757 66.9888 37.9396C66.7799 37.9036 66.5657 37.9117 66.3601 37.9636L60.789 39.3555L51.4315 35.3402L50.1442 26.321L53.7121 22.7546H61.3712L63.949 26.6288C64.0642 26.8012 64.2135 26.9481 64.3878 27.0606C64.562 27.173 64.7574 27.2484 64.962 27.2823L74.0601 28.7987C74.3038 28.8396 74.5538 28.8199 74.7879 28.7411L83.1673 25.948C90.1954 39.435 89.4437 55.6564 81.1983 68.4354ZM74.9441 14.9513L72.4785 16.5951L65.6049 15.2198L61.1453 13.7353C60.8724 13.6425 60.5786 13.6309 60.2992 13.7019L54.6614 15.1106L52.1897 14.2873L54.0215 10.6237H59.1498C59.385 10.624 59.6171 10.5695 59.8276 10.4645L65.0742 7.84123C68.6873 9.7271 72.011 12.1216 74.9441 14.9513ZM28.8941 6.428L32.5333 8.85415C32.7121 8.97316 32.9142 9.05276 33.1262 9.08767L40.4744 10.3129L39.7572 12.4585L35.9284 13.7369C35.5854 13.8508 35.2945 14.0837 35.108 14.3934L30.7531 21.6506L23.7582 25.8479L13.447 27.3203C13.0856 27.3714 12.7546 27.5513 12.515 27.8266C12.2754 28.1022 12.1433 28.4549 12.143 28.82V33.369C12.143 33.7711 12.3028 34.1568 12.5872 34.441L15.1757 37.0295V39.6346L8.86761 35.4281L6.57944 28.5636C10.9328 18.6164 18.9121 10.7012 28.8941 6.428ZM24.5771 56.1445L17.7231 54.7723L15.1757 49.6909V46.1276L20.8256 40.4777L22.9165 44.6613C23.0426 44.9133 23.2362 45.1253 23.476 45.2734C23.7157 45.4215 23.9919 45.4999 24.2738 45.4998H34.0299L38.1377 52.3461C38.2724 52.5704 38.4629 52.756 38.6907 52.8849C38.9184 53.0138 39.1756 53.0815 39.4372 53.0815H43.6527L42.5912 58.3994L36.8503 64.1403C36.7093 64.281 36.5973 64.448 36.5208 64.632C36.4443 64.816 36.4048 65.0132 36.4045 65.2123V69.0032L30.9456 73.0974C30.7574 73.2386 30.6045 73.4218 30.4992 73.6323C30.394 73.8429 30.3392 74.0751 30.3392 74.3105V79.7875L28.4528 79.1627L25.7901 72.503V57.6306C25.7901 57.2811 25.6694 56.9422 25.4484 56.6714C25.2274 56.4006 24.9195 56.2145 24.5771 56.1445ZM20.0188 79.4549C5.72175 68.7288 -0.324505 50.1959 4.89629 33.1021L6.15637 36.8809C6.26251 37.2007 6.47219 37.476 6.7523 37.6633L14.3113 42.7021L12.5872 44.4277C12.3028 44.7121 12.143 45.0977 12.143 45.4998V50.0488C12.1427 50.2841 12.1972 50.5162 12.3021 50.7267L15.3348 56.7921C15.4385 56.9987 15.5879 57.1791 15.772 57.3191C15.9559 57.4592 16.1695 57.5554 16.3963 57.6003L22.765 58.8725V72.7942C22.7648 72.9868 22.8014 73.1777 22.8726 73.3567L25.9053 80.9384C25.9873 81.1431 26.113 81.3273 26.2735 81.4784C26.4341 81.6295 26.6256 81.7439 26.8348 81.8133L31.3839 83.3297C31.5358 83.3812 31.6951 83.4079 31.8555 83.4086C32.2577 83.4086 32.6434 83.2488 32.9277 82.9644C33.2121 82.6801 33.3719 82.2943 33.3719 81.8923V75.0687L38.8307 70.9745C39.019 70.8332 39.1719 70.65 39.2771 70.4396C39.3824 70.2289 39.4372 69.9968 39.4372 69.7614V65.8401L45.0584 60.2191C45.2697 60.0072 45.4138 59.7376 45.4723 59.4441L46.9887 51.8624C47.0326 51.6425 47.0272 51.4156 46.973 51.198C46.9186 50.9804 46.8167 50.7776 46.6746 50.6042C46.5325 50.4307 46.3536 50.291 46.151 50.1949C45.9483 50.0989 45.7269 50.049 45.5026 50.0488H40.2955L36.1877 43.2025C36.053 42.9783 35.8625 42.7927 35.6348 42.6637C35.407 42.5349 35.1498 42.4671 34.8882 42.4671H25.2108L22.6057 37.2402C22.4982 37.0252 22.3411 36.8388 22.1472 36.6964C21.9535 36.554 21.7286 36.4597 21.4912 36.4214C21.2541 36.3804 21.0106 36.3976 20.7815 36.4716C20.5526 36.5456 20.345 36.674 20.1766 36.8459L18.2084 38.8066V36.4017C18.2083 35.9995 18.0484 35.614 17.764 35.3296L15.1757 32.7412V30.1346L24.4891 28.8048C24.6891 28.7758 24.8814 28.7072 25.0547 28.6031L32.6364 24.0541C32.8491 23.9262 33.0272 23.7482 33.155 23.5355L37.416 16.4344L41.4328 15.0939C41.6564 15.0205 41.8598 14.8955 42.0263 14.7291C42.1927 14.5627 42.3177 14.3594 42.3911 14.1356L43.9075 9.58654C43.9761 9.37893 43.999 9.15893 43.9745 8.94163C43.9502 8.72434 43.8791 8.51489 43.7662 8.32764C43.6533 8.1404 43.5012 7.97978 43.3203 7.85684C43.1395 7.73388 42.9343 7.65148 42.7186 7.61529L33.942 6.15201L32.3998 5.12393C41.942 2.01814 52.2771 2.40237 61.5623 6.20812L58.792 7.59103H53.0844C52.8013 7.58949 52.5235 7.66721 52.2822 7.81541C52.0411 7.9636 51.8462 8.17634 51.7197 8.42958L48.687 14.495C48.59 14.6894 48.536 14.9021 48.5285 15.1192C48.5211 15.3362 48.5602 15.5523 48.6434 15.7529C48.7268 15.9534 48.852 16.1337 49.011 16.2817C49.17 16.4296 49.3589 16.5417 49.5649 16.6103L54.114 18.1266C54.387 18.2193 54.6807 18.2311 54.9602 18.1601L60.598 16.7513L64.7284 18.1266C64.7876 18.1478 64.8484 18.1641 64.9104 18.1751L72.4921 19.6915C72.6874 19.7314 72.8886 19.732 73.084 19.6934C73.2795 19.655 73.4654 19.578 73.631 19.4671L77.0821 17.1653C78.7806 19.0571 80.307 21.0966 81.6434 23.2595L74.183 25.7463L66.1053 24.3998L63.4366 20.3966C63.2988 20.1901 63.1123 20.0205 62.8937 19.9028C62.675 19.7852 62.4308 19.7231 62.1824 19.7219H53.0844C52.6823 19.7219 52.2966 19.8817 52.0124 20.1661L47.4633 24.7152C47.2966 24.8817 47.1712 25.0847 47.0967 25.3082C47.0222 25.5316 47.0008 25.7694 47.0342 26.0026L48.5505 36.617C48.588 36.875 48.6915 37.1191 48.8508 37.3255C49.0102 37.5318 49.2201 37.6937 49.4603 37.7952L60.0747 42.3443C60.3788 42.476 60.7179 42.5031 61.0392 42.4216L66.4541 41.0675L69.7643 43.2783V48.5325C69.7616 48.7672 69.8135 48.9992 69.9159 49.2103L75.8297 61.0212V66.7287C75.8297 67.1309 75.9895 67.5164 76.2739 67.8008L79.4461 70.9745C65.3776 89.7266 38.771 93.5236 20.0188 79.4549Z" fill="#1B8976"/>
</g>
</g>
<defs>
<clipPath id="clip0_7745_4250">
<rect width="91" height="91" fill="white"/>
</clipPath>
</defs>
</svg>
