<svg width="108" height="108" viewBox="0 0 108 108" fill="none" xmlns="http://www.w3.org/2000/svg">
<path d="M32.6466 72.7417L22.2305 97.7445L35.2645 93.9978L41.7816 105.89L54.0001 79.4592L66.2189 105.89L72.7358 93.9978L85.7698 97.7445L75.3537 72.7417" stroke="#1B8976" stroke-width="3" stroke-miterlimit="10" stroke-linecap="round" stroke-linejoin="round"/>
<path d="M11.9453 42.3512C11.9453 38.0814 17.448 34.7334 18.6991 30.8806C19.9958 26.8876 17.5567 20.953 19.9755 17.6293C22.4185 14.2722 28.8326 14.77 32.1894 12.327C35.5131 9.90815 37.0082 3.64098 41.0014 2.34435C44.8541 1.09349 49.7302 5.24411 53.9999 5.24411C58.2697 5.24411 63.1455 1.09349 66.9984 2.34457C70.9914 3.64119 72.4865 9.90836 75.8105 12.3272C79.1676 14.7703 85.5812 14.2725 88.0244 17.6296C90.4432 20.9533 88.0042 26.8876 89.3007 30.8806C90.5518 34.7334 96.0545 38.0814 96.0545 42.3512C96.0545 46.621 90.5518 49.969 89.3007 53.8218C88.0041 57.8148 90.4432 63.7493 88.0244 67.0731C85.5812 70.4301 79.1673 69.9323 75.8105 72.3754C72.4866 74.7943 70.9915 81.0614 66.9985 82.358C63.1458 83.6091 58.2697 79.4584 53.9999 79.4584C49.7302 79.4584 44.8543 83.6091 41.0015 82.358C37.0085 81.0614 35.5134 74.7943 32.1896 72.3754C28.8326 69.9323 22.4188 70.4301 19.9755 67.0731C17.5567 63.7493 19.9955 57.815 18.6991 53.8219C17.448 49.969 11.9453 46.621 11.9453 42.3512Z" stroke="#1B8976" stroke-width="3" stroke-miterlimit="10" stroke-linecap="round" stroke-linejoin="round"/>
<path d="M53.9991 70.9438C69.7904 70.9438 82.5918 58.1424 82.5918 42.3511C82.5918 26.5598 69.7904 13.7583 53.9991 13.7583C38.2077 13.7583 25.4062 26.5598 25.4062 42.3511C25.4062 58.1424 38.2077 70.9438 53.9991 70.9438Z" stroke="#1B8976" stroke-width="3" stroke-miterlimit="10" stroke-linecap="round" stroke-linejoin="round"/>
<path d="M53.9993 23.2891L59.5048 34.4442L71.8152 36.233L62.9072 44.9162L65.0101 57.1768L53.9993 51.388L42.9886 57.1768L45.0915 44.9162L36.1836 36.233L48.4939 34.4442L53.9993 23.2891Z" stroke="#1B8976" stroke-width="3" stroke-miterlimit="10" stroke-linecap="round" stroke-linejoin="round"/>
</svg>
