<svg width="358" height="23" viewBox="0 0 358 23" fill="none" xmlns="http://www.w3.org/2000/svg">
<path d="M358 10H0V12H358V10Z" fill="#1B8976"/>
<path d="M182.06 4.87734L178.873 0L175.686 4.87734C175.014 5.9055 175.144 7.27962 175.995 8.15595L178.873 11.1156L181.75 8.15595C182.602 7.27962 182.732 5.9062 182.06 4.87734Z" fill="#1B8976"/>
<path d="M175.686 17.3526L178.873 22.2299L182.06 17.3526C182.732 16.3244 182.602 14.9503 181.75 14.0739L178.873 11.1143L175.995 14.0739C175.144 14.9503 175.014 16.3244 175.686 17.3526Z" fill="#1B8976"/>
<path d="M167.383 5.842L162.836 10.5197L160.474 8.08138C159.934 7.52397 159.175 7.59537 158.697 8.24777C157.828 9.43192 158.661 11.1159 160.115 11.1159C158.661 11.1159 157.828 12.7993 158.697 13.9841C159.176 14.6365 159.935 14.7079 160.474 14.1505L162.836 11.7122L167.383 16.3898C168.55 17.5899 170.398 17.7203 171.713 16.6956L178.874 11.1159L171.713 5.53694C170.398 4.51155 168.55 4.64259 167.383 5.842Z" fill="#1B8976"/>
<path d="M197.644 11.1163C199.202 11.1163 199.989 9.20972 198.897 8.08172C198.357 7.52431 197.598 7.59571 197.12 8.2481L195.22 10.8369L190.365 5.84233C189.198 4.64223 187.35 4.51191 186.035 5.5366L178.875 11.1156L186.035 16.6952C187.351 17.7199 189.199 17.5889 190.365 16.3895L195.22 11.395L197.12 13.9837C197.599 14.6361 198.357 14.7076 198.897 14.1502C199.989 13.0222 199.202 11.1163 197.644 11.1163Z" fill="#1B8976"/>
<path d="M239.087 8.05588L237.524 5.6626L235.96 8.05588C235.631 8.56061 235.694 9.2345 236.112 9.66434L237.524 11.1161L238.935 9.66434C239.352 9.2345 239.416 8.56061 239.087 8.05588Z" fill="#1B8976"/>
<path d="M235.96 14.1786L237.524 16.5719L239.087 14.1786C239.417 13.6739 239.353 13 238.935 12.5702L237.524 11.1177L236.112 12.5702C235.694 13 235.63 13.6739 235.96 14.1786Z" fill="#1B8976"/>
<path d="M243.161 8.52882C242.589 7.94021 241.682 7.87573 241.037 8.37906L237.523 11.1169L241.037 13.8547C241.683 14.3574 242.589 14.2936 243.161 13.705L245.677 11.1176L243.161 8.52882Z" fill="#1B8976"/>
<path d="M231.886 8.52877L229.371 11.1162L231.886 13.7035C232.459 14.2922 233.366 14.3566 234.011 13.8533L237.524 11.1155L234.011 8.37762C233.366 7.87637 232.459 7.94016 231.886 8.52877Z" fill="#1B8976"/>
<path d="M121.79 8.05588L120.227 5.6626L118.664 8.05588C118.334 8.56061 118.397 9.2345 118.815 9.66434L120.227 11.1161L121.638 9.66434C122.057 9.2345 122.12 8.56061 121.79 8.05588Z" fill="#1B8976"/>
<path d="M118.664 14.1786L120.227 16.5719L121.79 14.1786C122.12 13.6739 122.057 13 121.638 12.5702L120.227 11.1177L118.815 12.5702C118.397 13 118.334 13.6739 118.664 14.1786Z" fill="#1B8976"/>
<path d="M123.744 8.37865L120.23 11.1165L123.744 13.8543C124.39 14.357 125.296 14.2932 125.868 13.7046L128.384 11.1172L125.868 8.5298C125.296 7.9398 124.39 7.87601 123.744 8.37865Z" fill="#1B8976"/>
<path d="M114.59 8.52877L112.074 11.1162L114.59 13.7035C115.163 14.2922 116.069 14.3566 116.714 13.8533L120.228 11.1155L116.714 8.37762C116.07 7.87637 115.163 7.94016 114.59 8.52877Z" fill="#1B8976"/>
</svg>
