<svg width="96" height="86" viewBox="0 0 96 86" fill="none" xmlns="http://www.w3.org/2000/svg">
<path fill-rule="evenodd" clip-rule="evenodd" d="M10.302 54.5496C13.326 56.5656 16.782 57.5736 20.67 57.5736C24.558 57.5736 28.014 56.5656 31.038 54.5496C34.062 52.4856 36.438 49.5576 38.166 45.7656C39.942 41.9256 40.83 37.3176 40.83 31.9416C40.83 26.5656 39.942 21.9816 38.166 18.1896C36.438 14.3496 34.062 11.4216 31.038 9.40557C28.014 7.34157 24.558 6.30957 20.67 6.30957C16.782 6.30957 13.326 7.34157 10.302 9.40557C7.27803 11.4216 4.90203 14.3496 3.17403 18.1896C1.44603 21.9816 0.582031 26.5656 0.582031 31.9416C0.582031 37.3176 1.44603 41.9256 3.17403 45.7656C4.90203 49.5576 7.27803 52.4856 10.302 54.5496ZM28.446 50.4456C26.238 52.0296 23.646 52.8216 20.67 52.8216C17.79 52.8216 15.222 52.0296 12.966 50.4456C10.71 48.8136 8.95803 46.4616 7.71003 43.3896C6.46203 40.2696 5.83803 36.4536 5.83803 31.9416C5.83803 27.4296 6.46203 23.6376 7.71003 20.5656C8.95803 17.4456 10.71 15.0936 12.966 13.5096C15.222 11.8776 17.79 11.0616 20.67 11.0616C23.646 11.0616 26.238 11.8776 28.446 13.5096C30.654 15.0936 32.382 17.4456 33.63 20.5656C34.878 23.6376 35.502 27.4296 35.502 31.9416C35.502 36.4536 34.878 40.2696 33.63 43.3896C32.382 46.4616 30.654 48.8136 28.446 50.4456ZM59.1979 39.8865L64.3819 34.0541V6.74157H47.3179V11.3496H59.1979V39.8865Z" fill="black"/>
<line x1="95.353" y1="0.625853" x2="17.5786" y2="85.5148" stroke="black"/>
</svg>
