<svg width="107" height="86" viewBox="0 0 107 86" fill="none" xmlns="http://www.w3.org/2000/svg">
<path fill-rule="evenodd" clip-rule="evenodd" d="M9.82547 54.282C12.8495 56.298 16.3055 57.306 20.1935 57.306C24.0815 57.306 27.5375 56.298 30.5615 54.282C33.5855 52.218 35.9615 49.29 37.6895 45.498C39.4655 41.658 40.3535 37.05 40.3535 31.674C40.3535 26.298 39.4655 21.714 37.6895 17.922C35.9615 14.082 33.5855 11.154 30.5615 9.13799C27.5375 7.07399 24.0815 6.04199 20.1935 6.04199C16.3055 6.04199 12.8495 7.07399 9.82547 9.13799C6.80147 11.154 4.42547 14.082 2.69747 17.922C0.969469 21.714 0.105469 26.298 0.105469 31.674C0.105469 37.05 0.969469 41.658 2.69747 45.498C4.42547 49.29 6.80147 52.218 9.82547 54.282ZM27.9695 50.178C25.7615 51.762 23.1695 52.554 20.1935 52.554C17.3135 52.554 14.7455 51.762 12.4895 50.178C10.2335 48.546 8.48147 46.194 7.23347 43.122C5.98547 40.002 5.36147 36.186 5.36147 31.674C5.36147 27.162 5.98547 23.37 7.23347 20.298C8.48147 17.178 10.2335 14.826 12.4895 13.242C14.7455 11.61 17.3135 10.794 20.1935 10.794C23.1695 10.794 25.7615 11.61 27.9695 13.242C30.1775 14.826 31.9055 17.178 33.1535 20.298C34.4015 23.37 35.0255 27.162 35.0255 31.674C35.0255 36.186 34.4015 40.002 33.1535 43.122C31.9055 46.194 30.1775 48.546 27.9695 50.178ZM49.0013 53.202V56.874H54.3611L58.4568 52.266H56.5998L71.1287 38.0091L76.0319 32.4928L76.3269 32.755C77.3632 31.5943 78.2147 30.514 78.8813 29.514C80.0813 27.738 80.8973 26.058 81.3293 24.474C81.8093 22.89 82.0493 21.282 82.0493 19.65C82.0493 16.866 81.3533 14.442 79.9613 12.378C78.6173 10.314 76.6973 8.75399 74.2013 7.69799C71.7053 6.59399 68.7533 6.04199 65.3453 6.04199C61.5533 6.04199 58.1213 6.66599 55.0493 7.91399C51.9773 9.16199 49.4573 10.938 47.4893 13.242L51.1613 16.41C52.7933 14.49 54.7373 13.074 56.9933 12.162C59.2973 11.25 61.9373 10.794 64.9133 10.794C68.8013 10.794 71.7293 11.634 73.6973 13.314C75.7133 14.994 76.7213 17.298 76.7213 20.226C76.7213 21.33 76.5533 22.506 76.2173 23.754C75.8813 25.002 75.2333 26.346 74.2733 27.786C73.3133 29.178 71.8733 30.81 69.9533 32.682L49.0013 53.202Z" fill="black"/>
<line x1="105.853" y1="0.357298" x2="28.0786" y2="85.2462" stroke="black"/>
</svg>
