<svg width="107" height="86" viewBox="0 0 107 86" fill="none" xmlns="http://www.w3.org/2000/svg">
<g clip-path="url(#clip0_2465_48)">
<path d="M20.0879 5.98926C23.9759 5.98926 27.4321 7.02097 30.4561 9.08496C33.48 11.101 35.856 14.0292 37.584 17.8691C39.36 21.6611 40.248 26.2452 40.248 31.6211C40.248 36.9971 39.36 41.6053 37.584 45.4453C35.856 49.2373 33.48 52.1655 30.4561 54.2295C27.4321 56.2455 23.9759 57.2529 20.0879 57.2529C16.1999 57.2529 12.7437 56.2455 9.71973 54.2295C6.69573 52.1655 4.3198 49.2373 2.5918 45.4453C0.863797 41.6053 0 36.9971 0 31.6211C1.70639e-05 26.2452 0.863814 21.6611 2.5918 17.8691C4.31979 14.0292 6.69575 11.1009 9.71973 9.08496C12.7437 7.02098 16.1999 5.98926 20.0879 5.98926ZM65.2393 5.98926C68.6473 5.98926 71.5997 6.54151 74.0957 7.64551C76.5916 8.70148 78.5115 10.2613 79.8555 12.3252C81.2475 14.3892 81.9434 16.8137 81.9434 19.5977C81.9433 21.2294 81.7035 22.8371 81.2236 24.4209C80.7916 26.0049 79.9754 27.685 78.7754 29.4609C78.1005 30.4732 77.2344 31.5662 76.1807 32.7432L75.9258 32.5166L71.5947 37.3955L56.4941 52.2129H58.4424L54.3516 56.8213H48.8955V53.1494L69.8477 32.6289C71.7676 30.757 73.208 29.1254 74.168 27.7334C75.128 26.2934 75.7753 24.9492 76.1113 23.7012C76.4473 22.4532 76.6162 21.2769 76.6162 20.1729C76.6161 17.2452 75.6075 14.9416 73.5918 13.2617C71.6238 11.5817 68.6956 10.7412 64.8076 10.7412C61.8317 10.7412 59.1917 11.1974 56.8877 12.1094C54.6317 13.0214 52.6876 14.4374 51.0557 16.3574L47.3838 13.1895C49.3517 10.8855 51.8715 9.10932 54.9434 7.86133C58.0152 6.61338 61.4474 5.98931 65.2393 5.98926ZM20.0879 10.7412C17.2079 10.7412 14.6398 11.5575 12.3838 13.1895C10.1279 14.7734 8.3759 17.1253 7.12793 20.2451C5.87994 23.3171 5.25587 27.1092 5.25586 31.6211C5.25586 36.1331 5.87993 39.9493 7.12793 43.0693C8.3759 46.1412 10.1279 48.493 12.3838 50.125C14.6398 51.709 17.2079 52.501 20.0879 52.501C23.0639 52.501 25.6563 51.709 27.8643 50.125C30.0721 48.493 31.7999 46.1411 33.0479 43.0693C34.2958 39.9493 34.9199 36.1331 34.9199 31.6211C34.9199 27.1092 34.2958 23.3171 33.0479 20.2451C31.7999 17.1253 30.0721 14.7734 27.8643 13.1895C25.6563 11.5575 23.0639 10.7412 20.0879 10.7412Z" fill="black"/>
<path d="M105.745 0.337891L27.9712 85.3377" stroke="black"/>
</g>
<defs>
<clipPath id="clip0_2465_48">
<rect width="107" height="86" fill="white"/>
</clipPath>
</defs>
</svg>
