<svg width="107" height="86" viewBox="0 0 107 86" fill="none" xmlns="http://www.w3.org/2000/svg">
<g clip-path="url(#clip0_2465_45)">
<path d="M20.0879 5.9873C23.9758 5.9873 27.4321 7.01906 30.4561 9.08301C33.48 11.099 35.856 14.0272 37.584 17.8672C39.36 21.6591 40.248 26.2432 40.248 31.6191C40.248 36.9951 39.36 41.6034 37.584 45.4434C35.856 49.2353 33.48 52.1635 30.4561 54.2275C27.4321 56.2435 23.9759 57.251 20.0879 57.251C16.1999 57.251 12.7437 56.2435 9.71973 54.2275C6.69577 52.1635 4.31978 49.2353 2.5918 45.4434C0.863806 41.6034 0 36.9951 0 31.6191C1.70638e-05 26.2432 0.863814 21.6591 2.5918 17.8672C4.31978 14.0272 6.69576 11.099 9.71973 9.08301C12.7437 7.01903 16.1999 5.98733 20.0879 5.9873ZM48.5527 46.667C50.1847 48.347 52.3685 49.7398 55.1045 50.8438C57.0011 51.5959 59.0095 52.0903 61.1289 52.3301L57.3936 56.5381C56.1741 56.2732 54.9787 55.9364 53.8086 55.5234C50.5928 54.3235 48.0011 52.7393 46.0332 50.7715L48.5527 46.667ZM20.0879 10.7393C17.2079 10.7393 14.6398 11.5555 12.3838 13.1875C10.1279 14.7715 8.37588 17.1233 7.12793 20.2432C5.87994 23.3151 5.25587 27.1072 5.25586 31.6191C5.25586 36.1311 5.87993 39.9474 7.12793 43.0674C8.37588 46.1392 10.1279 48.4911 12.3838 50.123C14.6398 51.707 17.2079 52.499 20.0879 52.499C23.0639 52.499 25.6563 51.707 27.8643 50.123C30.0721 48.4911 31.7999 46.1392 33.0479 43.0674C34.2958 39.9474 34.9199 36.1311 34.9199 31.6191C34.9199 27.1072 34.2958 23.3151 33.0479 20.2432C31.7999 17.1234 30.0721 14.7715 27.8643 13.1875C25.6563 11.5555 23.0639 10.7393 20.0879 10.7393ZM80.5205 10.0908L66.252 27.9922C71.3738 28.2454 75.266 29.5745 77.9287 31.9795C78.1671 32.1914 78.3956 32.4084 78.6152 32.6299L75.2031 36.4746C74.8047 35.9739 74.3469 35.5062 73.8252 35.0752C71.6652 33.2512 68.2323 32.3389 63.5283 32.3389H59.9287V28.5234L73.874 11.0273H48.1211V6.41895H80.5205V10.0908Z" fill="black"/>
<path d="M108.538 0.337891L30.7641 85.3377" stroke="black"/>
</g>
<defs>
<clipPath id="clip0_2465_45">
<rect width="107" height="86" fill="white"/>
</clipPath>
</defs>
</svg>
