<svg width="110" height="86" viewBox="0 0 110 86" fill="none" xmlns="http://www.w3.org/2000/svg">
<path fill-rule="evenodd" clip-rule="evenodd" d="M10.0325 54.2517C13.0565 56.2677 16.5125 57.2757 20.4005 57.2757C24.2885 57.2757 27.7445 56.2677 30.7685 54.2517C33.7925 52.1877 36.1685 49.2597 37.8965 45.4677C39.6725 41.6277 40.5605 37.0197 40.5605 31.6437C40.5605 26.2677 39.6725 21.6837 37.8965 17.8917C36.1685 14.0517 33.7925 11.1237 30.7685 9.10772C27.7445 7.04372 24.2885 6.01172 20.4005 6.01172C16.5125 6.01172 13.0565 7.04372 10.0325 9.10772C7.0085 11.1237 4.6325 14.0517 2.9045 17.8917C1.1765 21.6837 0.3125 26.2677 0.3125 31.6437C0.3125 37.0197 1.1765 41.6277 2.9045 45.4677C4.6325 49.2597 7.0085 52.1877 10.0325 54.2517ZM28.1765 50.1477C25.9685 51.7317 23.3765 52.5237 20.4005 52.5237C17.5205 52.5237 14.9525 51.7317 12.6965 50.1477C10.4405 48.5157 8.6885 46.1637 7.4405 43.0917C6.1925 39.9717 5.5685 36.1557 5.5685 31.6437C5.5685 27.1317 6.1925 23.3397 7.4405 20.2677C8.6885 17.1477 10.4405 14.7957 12.6965 13.2117C14.9525 11.5797 17.5205 10.7637 20.4005 10.7637C23.3765 10.7637 25.9685 11.5797 28.1765 13.2117C30.3845 14.7957 32.1125 17.1477 33.3605 20.2677C34.6085 23.3397 35.2325 27.1317 35.2325 31.6437C35.2325 36.1557 34.6085 39.9717 33.3605 43.0917C32.1125 46.1637 30.3845 48.5157 28.1765 50.1477ZM57.6248 56.5469C56.4333 56.2846 55.2655 55.9516 54.1213 55.5477C50.9053 54.3477 48.3133 52.7637 46.3452 50.7957L48.8652 46.6917C50.4972 48.3717 52.6813 49.7637 55.4173 50.8677C57.2892 51.61 59.2697 52.1028 61.3587 52.346L57.6248 56.5469ZM75.4834 36.4546C75.0929 35.9701 74.6442 35.5185 74.1373 35.0997C71.9772 33.2757 68.5452 32.3637 63.8413 32.3637H60.2412V28.5477L74.1864 11.0517H48.4333V6.44372H80.8333V10.1157L66.5655 28.0165C71.6868 28.2698 75.5788 29.5989 78.2412 32.0037C78.467 32.2043 78.6842 32.4093 78.8931 32.6184L75.4834 36.4546Z" fill="black"/>
<line x1="108.849" y1="0.328001" x2="31.0747" y2="85.2169" stroke="black"/>
</svg>
