<svg width="118" height="87" viewBox="0 0 118 87" fill="none" xmlns="http://www.w3.org/2000/svg">
<path fill-rule="evenodd" clip-rule="evenodd" d="M10.3684 55.2224C13.3924 57.2384 16.8484 58.2464 20.7364 58.2464C24.6244 58.2464 28.0804 57.2384 31.1044 55.2224C34.1284 53.1584 36.5044 50.2304 38.2324 46.4384C40.0084 42.5984 40.8964 37.9904 40.8964 32.6144C40.8964 27.2384 40.0084 22.6544 38.2324 18.8624C36.5044 15.0224 34.1284 12.0944 31.1044 10.0784C28.0804 8.01442 24.6244 6.98242 20.7364 6.98242C16.8484 6.98242 13.3924 8.01442 10.3684 10.0784C7.34444 12.0944 4.96844 15.0224 3.24044 18.8624C1.51244 22.6544 0.648438 27.2384 0.648438 32.6144C0.648438 37.9904 1.51244 42.5984 3.24044 46.4384C4.96844 50.2304 7.34444 53.1584 10.3684 55.2224ZM28.5124 51.1184C26.3044 52.7024 23.7124 53.4944 20.7364 53.4944C17.8564 53.4944 15.2884 52.7024 13.0324 51.1184C10.7764 49.4864 9.02444 47.1344 7.77644 44.0624C6.52844 40.9424 5.90444 37.1264 5.90444 32.6144C5.90444 28.1024 6.52844 24.3104 7.77644 21.2384C9.02444 18.1184 10.7764 15.7664 13.0324 14.1824C15.2884 12.5504 17.8564 11.7344 20.7364 11.7344C23.7124 11.7344 26.3044 12.5504 28.5124 14.1824C30.7204 15.7664 32.4484 18.1184 33.6964 21.2384C34.9444 24.3104 35.5684 28.1024 35.5684 32.6144C35.5684 37.1264 34.9444 40.9424 33.6964 44.0624C32.4484 47.1344 30.7204 49.4864 28.5124 51.1184ZM49.6163 40.8224V44.5664H77.1362L78.0898 43.4935L81.2319 39.9584L83.2403 37.6988V28.2944H78.2003V39.9584H56.2776L82.0883 7.41442H76.3283L49.6163 40.8224Z" fill="black"/>
<line x1="116.849" y1="1.2987" x2="39.0747" y2="86.1876" stroke="black"/>
</svg>
