<svg width="111" height="87" viewBox="0 0 111 87" fill="none" xmlns="http://www.w3.org/2000/svg">
<path fill-rule="evenodd" clip-rule="evenodd" d="M10.1888 55.1931C13.2128 57.2091 16.6688 58.2171 20.5568 58.2171C24.4448 58.2171 27.9008 57.2091 30.9248 55.1931C33.9488 53.1291 36.3248 50.2011 38.0527 46.4091C39.8288 42.5691 40.7168 37.9611 40.7168 32.5851C40.7168 27.2091 39.8288 22.6251 38.0527 18.8331C36.3248 14.9931 33.9488 12.0651 30.9248 10.0491C27.9008 7.98512 24.4448 6.95312 20.5568 6.95312C16.6688 6.95312 13.2128 7.98512 10.1888 10.0491C7.16475 12.0651 4.78875 14.9931 3.06075 18.8331C1.33275 22.6251 0.46875 27.2091 0.46875 32.5851C0.46875 37.9611 1.33275 42.5691 3.06075 46.4091C4.78875 50.2011 7.16475 53.1291 10.1888 55.1931ZM28.3328 51.0891C26.1248 52.6731 23.5328 53.4651 20.5568 53.4651C17.6768 53.4651 15.1088 52.6731 12.8528 51.0891C10.5968 49.4571 8.84475 47.1051 7.59675 44.0331C6.34875 40.9131 5.72475 37.0971 5.72475 32.5851C5.72475 28.0731 6.34875 24.2811 7.59675 21.2091C8.84475 18.0891 10.5968 15.7371 12.8528 14.1531C15.1088 12.5211 17.6768 11.7051 20.5568 11.7051C23.5328 11.7051 26.1248 12.5211 28.3328 14.1531C30.5408 15.7371 32.2688 18.0891 33.5168 21.2091C34.7648 24.2811 35.3888 28.0731 35.3888 32.5851C35.3888 37.0971 34.7648 40.9131 33.5168 44.0331C32.2688 47.1051 30.5408 49.4571 28.3328 51.0891ZM82.8324 35.8933C82.7003 35.6502 82.5604 35.4115 82.4126 35.1771C81.0686 32.9211 78.8606 31.1691 75.7886 29.9211C72.7166 28.6731 68.6366 28.0491 63.5486 28.0491H57.0539L58.7469 11.9931H81.8366V7.38512H54.2606L51.6686 32.6571H62.3966C66.6686 32.6571 70.0286 33.0891 72.4766 33.9531C74.4721 34.6574 75.9891 35.6009 77.0278 36.7836L80.0317 33.4039L82.8324 35.8933ZM58.7597 57.3365C57.7982 57.1012 56.8506 56.8187 55.9166 56.4891C52.6526 55.2891 50.0606 53.7051 48.1406 51.7371L50.6606 47.6331C52.2446 49.3131 54.4046 50.7051 57.1406 51.8091C58.8248 52.477 60.5881 52.9429 62.4304 53.2067L58.7597 57.3365Z" fill="black"/>
<line x1="109.849" y1="1.26941" x2="32.0747" y2="86.1583" stroke="black"/>
</svg>
