<svg width="14" height="12" viewBox="0 0 14 12" fill="none" xmlns="http://www.w3.org/2000/svg">
<path d="M11.6632 2.41122L11.6626 2.41108L8.26904 1.75994C8.01481 1.71117 7.76914 1.87769 7.72034 2.13197C7.67154 2.38621 7.83809 2.63187 8.09233 2.68066L10.3708 3.11781L2.1408 8.669C1.92617 8.81377 1.86954 9.1051 2.01431 9.31973C2.15908 9.53436 2.45042 9.59099 2.66505 9.44622L10.895 3.89504L10.4468 6.17131C10.3968 6.42532 10.5622 6.67177 10.8162 6.72177C11.0703 6.77179 11.3167 6.60634 11.3667 6.35238L12.0342 2.96196L12.0343 2.96136C12.0841 2.70679 11.9171 2.46027 11.6632 2.41122Z" fill="black"/>
</svg>
