<svg width="35" height="35" viewBox="0 0 35 35" fill="none" xmlns="http://www.w3.org/2000/svg">
<path d="M7.90322 11.1975V11.0084H6.77419V11.1975C6.77419 11.521 6.78266 11.8444 6.79903 12.1662L7.92693 12.1086C7.91139 11.8052 7.90349 11.5014 7.90322 11.1975ZM8.01669 13.2021L6.895 13.3302C7.2179 16.1737 8.20919 18.9528 9.76105 21.3661L10.7106 20.7553C9.25185 18.4865 8.32097 15.8745 8.01669 13.2021ZM20.8086 5.48291C19.8309 6.14339 18.6866 6.49227 17.5 6.49227C16.3134 6.49227 15.1697 6.14339 14.1919 5.48347L13.5602 6.41944C14.7254 7.20581 16.0876 7.6213 17.5 7.6213C18.9124 7.6213 20.2746 7.20581 21.4403 6.41888L20.8086 5.48291ZM5.08064 21.7342H3.95161C3.95161 23.9127 2.17847 25.6858 0 25.6858V26.8148C2.17847 26.8148 3.95161 28.588 3.95161 30.7665H5.08064C5.08064 28.588 6.85379 26.8148 9.03226 26.8148V25.6858C6.85379 25.6858 5.08064 23.9127 5.08064 21.7342ZM4.51613 28.4491C4.02966 27.5054 3.26107 26.7368 2.31734 26.2503C3.26107 25.7639 4.02966 24.9953 4.51613 24.0515C5.0026 24.9953 5.77119 25.7639 6.71492 26.2503C5.77119 26.7368 5.0026 27.5054 4.51613 28.4491Z" fill="#1B8976"/>
<path d="M31.0479 7.05666H29.9668C28.8976 4.39722 26.2805 2.54053 23.3151 2.54053C21.9151 2.54053 20.5987 2.91932 19.508 3.63512C18.3005 4.42996 16.699 4.42996 15.4909 3.63512C14.4009 2.91932 13.0844 2.54053 11.6839 2.54053C7.73111 2.54053 4.51562 5.75601 4.51562 9.70875V11.1974C4.51562 15.245 5.67288 19.183 7.86151 22.5876C9.03726 24.4154 9.90569 26.4234 10.4323 28.532L11.0465 30.9899C11.1506 31.41 11.3925 31.7831 11.7336 32.0496C12.0747 32.316 12.4952 32.4605 12.928 32.4599C13.8962 32.4599 14.7034 31.765 14.8463 30.8075L16.1125 22.3635C16.2169 21.672 16.8001 21.1696 17.4995 21.1696C18.1989 21.1696 18.7821 21.672 18.8859 22.3635L20.1522 30.8075C20.2955 31.765 21.1028 32.4599 22.0709 32.4599C22.5038 32.4605 22.9243 32.316 23.2654 32.0496C23.6065 31.7831 23.8484 31.41 23.9525 30.9899L24.5672 28.532C25.0939 26.4234 25.9625 24.4153 27.1386 22.5876C28.4251 20.5858 29.3662 18.3504 29.9166 16.0302C29.916 16.05 29.9189 16.0692 29.9189 16.0889H31.0479C31.0479 13.9104 32.821 12.1373 34.9995 12.1373V11.0083C32.821 11.0083 31.0479 9.23512 31.0479 7.05666ZM26.1885 21.9768C24.9461 23.9084 24.0284 26.0305 23.4721 28.2587L22.8568 30.7167C22.8134 30.8922 22.7124 31.0481 22.5699 31.1594C22.4274 31.2708 22.2518 31.3311 22.0709 31.3308C21.6662 31.3308 21.3292 31.0401 21.2693 30.6399L20.0031 22.1958C19.8157 20.9466 18.7623 20.0405 17.4995 20.0405C16.2367 20.0405 15.1833 20.9466 14.9959 22.1958L13.7297 30.6399C13.6704 31.0401 13.3328 31.3308 12.928 31.3308C12.5555 31.3308 12.232 31.0785 12.1411 30.7167L11.5264 28.2587C10.9704 26.0303 10.0528 23.9082 8.8099 21.9768C6.73925 18.7551 5.64466 15.0276 5.64466 11.1974V9.70875C5.64466 6.37867 8.35377 3.66956 11.6839 3.66956C12.8631 3.66956 13.9651 3.98399 14.8705 4.57899C15.6614 5.09891 16.5466 5.36311 17.4995 5.36311C18.4524 5.36311 19.3376 5.09891 20.1279 4.57899C21.0339 3.98399 22.1359 3.66956 23.3151 3.66956C26.2935 3.66956 28.8632 5.88867 29.2866 8.78633L29.3103 9.15383C28.6103 10.2654 27.3751 11.0083 25.9672 11.0083V12.1373C27.2927 12.1373 28.4652 12.7955 29.1822 13.7998C28.8011 16.6946 27.7669 19.5212 26.1885 21.9768ZM30.4834 13.7716C29.9969 12.8278 29.2283 12.0593 28.2846 11.5728C29.2283 11.0863 29.9969 10.3177 30.4834 9.37399C30.9698 10.3177 31.7384 11.0863 32.6822 11.5728C31.7384 12.0593 30.9698 12.8278 30.4834 13.7716Z" fill="#1B8976"/>
</svg>
