<svg width="498" height="498" viewBox="0 0 498 498" fill="none" xmlns="http://www.w3.org/2000/svg">
<path d="M315.338 208.374C315.589 208.337 315.846 208.35 316.092 208.412C316.338 208.474 316.57 208.585 316.773 208.736C316.977 208.888 317.149 209.08 317.279 209.298C317.409 209.516 317.495 209.758 317.531 210.009V210.013C317.568 210.264 317.556 210.521 317.493 210.768C317.431 211.014 317.32 211.245 317.168 211.449C317.016 211.653 316.825 211.826 316.606 211.956C316.388 212.086 316.146 212.171 315.895 212.208C299.288 214.629 285.227 220.913 276.76 230.429L276.756 230.434C276.575 230.637 276.354 230.8 276.105 230.911C275.857 231.023 275.588 231.08 275.316 231.08H275.306C274.895 231.08 274.496 230.948 274.168 230.705L274.032 230.595L274.025 230.588C273.836 230.419 273.68 230.214 273.569 229.985C273.459 229.756 273.394 229.508 273.379 229.254C273.364 229 273.4 228.746 273.483 228.506C273.546 228.326 273.634 228.156 273.746 228.002L273.866 227.854C282.538 218.105 297.137 211.027 315.335 208.374H315.338ZM393.33 251.162L393.327 251.084C392.849 238.878 386.088 229.824 377.033 223.585C368.054 217.398 356.596 213.784 345.807 212.209V212.208L345.62 212.172C345.436 212.126 345.259 212.054 345.095 211.956C344.876 211.826 344.685 211.653 344.533 211.449C344.381 211.245 344.271 211.013 344.209 210.767C344.147 210.52 344.133 210.263 344.17 210.012V210.01C344.207 209.758 344.293 209.516 344.423 209.298C344.553 209.08 344.725 208.889 344.929 208.737C345.133 208.585 345.365 208.475 345.611 208.413C345.858 208.351 346.114 208.337 346.365 208.374H346.367C377.541 212.924 395.867 229.38 397.155 250.071L397.204 251.061C397.205 251.079 397.205 251.093 397.205 251.105V281.268C397.205 281.782 397.001 282.274 396.638 282.638C396.279 282.996 395.794 283.2 395.287 283.205H266.406C265.892 283.205 265.399 283 265.035 282.637C264.672 282.273 264.468 281.781 264.468 281.267C264.468 280.752 264.672 280.259 265.035 279.896C265.399 279.532 265.892 279.328 266.406 279.328H393.33V251.162Z" stroke="black" stroke-width="8"/>
<path d="M330.852 143.822C350.71 143.822 366.846 159.973 366.846 179.819C366.846 199.665 350.695 215.816 330.852 215.816C310.99 215.816 294.828 199.662 294.828 179.819C294.828 159.977 310.99 143.822 330.852 143.822ZM330.852 147.699C313.125 147.699 298.704 162.102 298.704 179.82C298.704 197.539 313.125 211.94 330.852 211.94C348.583 211.94 362.97 197.533 362.97 179.82C362.97 162.106 348.565 147.699 330.852 147.699Z" stroke="black" stroke-width="8"/>
<path d="M311.492 322.164L311.489 322.086C311.012 309.886 304.249 300.831 295.195 294.587C286.496 288.587 275.471 284.998 264.98 283.338L263.967 283.183C263.715 283.146 263.473 283.06 263.255 282.93C263.037 282.799 262.846 282.627 262.694 282.423C262.543 282.219 262.432 281.987 262.37 281.74C262.308 281.494 262.295 281.237 262.332 280.985L262.333 280.982C262.37 280.731 262.456 280.489 262.586 280.271C262.716 280.052 262.889 279.863 263.093 279.711C263.297 279.559 263.528 279.449 263.774 279.387C264.021 279.325 264.277 279.313 264.528 279.35H264.53C295.704 283.932 314.03 300.398 315.317 321.075L315.366 322.062C315.367 322.081 315.367 322.096 315.367 322.108V352.27C315.367 352.784 315.163 353.277 314.8 353.641C314.436 354.004 313.944 354.208 313.43 354.208H184.569C184.055 354.208 183.562 354.004 183.198 353.641C182.835 353.277 182.631 352.784 182.631 352.27V322.132C182.631 322.129 182.631 322.112 182.633 322.071V322.06C183.416 300.915 201.839 283.998 233.496 279.35L233.509 279.348C234.543 279.193 235.538 279.918 235.694 280.984V280.985C235.731 281.237 235.718 281.494 235.656 281.74C235.594 281.987 235.484 282.219 235.332 282.423C235.18 282.627 234.99 282.799 234.771 282.93C234.608 283.027 234.43 283.1 234.246 283.146L234.06 283.183C223.271 284.767 211.813 288.392 202.83 294.585C193.773 300.829 187.004 309.883 186.511 322.085L186.507 322.166V350.33H311.492V322.164Z" stroke="black" stroke-width="8"/>
<path d="M249.014 214.797C268.873 214.797 285.009 230.948 285.009 250.794C285.009 270.643 268.854 286.818 249.014 286.818C229.155 286.818 212.991 270.654 212.991 250.794C212.991 230.937 229.151 214.797 249.014 214.797ZM249.014 218.673C231.288 218.673 216.867 233.075 216.867 250.794C216.867 268.508 231.283 282.941 249.014 282.941C266.75 282.941 281.133 268.519 281.133 250.794C281.133 233.063 266.727 218.673 249.014 218.673Z" stroke="black" stroke-width="8"/>
<path d="M151.663 208.374C151.915 208.337 152.171 208.35 152.417 208.412C152.663 208.474 152.895 208.585 153.099 208.736C153.303 208.888 153.475 209.079 153.605 209.298C153.735 209.516 153.82 209.758 153.857 210.009V210.013C153.893 210.264 153.881 210.521 153.819 210.768C153.756 211.014 153.645 211.245 153.493 211.449C153.341 211.653 153.15 211.826 152.932 211.956C152.714 212.086 152.471 212.171 152.22 212.208C141.433 213.781 129.976 217.395 120.992 223.583C111.935 229.822 105.167 238.875 104.673 251.082L104.669 251.163V279.328H231.593C232.107 279.328 232.6 279.532 232.963 279.896C233.327 280.259 233.531 280.752 233.531 281.267C233.53 281.781 233.326 282.273 232.963 282.637C232.6 283 232.107 283.205 231.593 283.205H221.936L221.937 283.206H102.733C102.478 283.206 102.226 283.156 101.99 283.059C101.755 282.961 101.542 282.818 101.362 282.638C101.182 282.458 101.039 282.244 100.942 282.009C100.844 281.774 100.794 281.522 100.794 281.268V251.129C100.794 251.125 100.795 251.109 100.796 251.069V251.057C101.579 229.896 120.005 212.99 151.661 208.374H151.663ZM182.686 208.375L182.692 208.376C200.903 211.031 215.491 218.111 224.136 227.857H224.137C224.306 228.048 224.436 228.27 224.519 228.51C224.602 228.75 224.637 229.005 224.621 229.259C224.606 229.513 224.541 229.761 224.43 229.99C224.319 230.219 224.164 230.423 223.974 230.592L223.968 230.598C223.618 230.909 223.165 231.082 222.694 231.081H222.685C222.412 231.081 222.142 231.023 221.893 230.911C221.644 230.799 221.421 230.636 221.24 230.432L221.239 230.43L220.839 229.986C212.358 220.717 198.485 214.594 182.133 212.21H182.132C181.881 212.173 181.639 212.088 181.42 211.958C181.202 211.828 181.012 211.655 180.86 211.451C180.708 211.247 180.597 211.016 180.534 210.77C180.472 210.523 180.459 210.266 180.495 210.015V210.014C180.65 208.954 181.643 208.222 182.686 208.375Z" stroke="black" stroke-width="8"/>
<path d="M167.177 143.822C187.034 143.822 203.171 159.973 203.171 179.819C203.171 199.665 187.02 215.816 167.177 215.816C147.316 215.816 131.155 199.662 131.155 179.819C131.155 159.977 147.316 143.822 167.177 143.822ZM167.177 147.699C149.451 147.699 135.031 162.102 135.031 179.82C135.031 197.539 149.451 211.94 167.177 211.94C184.908 211.94 199.296 197.533 199.296 179.82C199.296 162.106 184.892 147.699 167.177 147.699Z" stroke="black" stroke-width="8"/>
<path d="M436.733 234.733C437.177 234.477 437.704 234.408 438.199 234.539C438.694 234.671 439.117 234.992 439.375 235.435C439.633 235.877 439.706 236.404 439.577 236.9C439.448 237.396 439.126 237.821 438.685 238.081L436.07 239.608L423.293 247.063H492.062C492.576 247.064 493.069 247.267 493.433 247.631C493.796 247.994 494 248.488 494 249.002C494 249.516 493.796 250.009 493.433 250.372C493.069 250.735 492.576 250.94 492.062 250.94H423.293L436.07 258.395L438.705 259.933C439.073 260.147 439.36 260.477 439.521 260.871C439.683 261.265 439.71 261.703 439.599 262.114C439.487 262.525 439.244 262.889 438.905 263.147C438.574 263.401 438.169 263.539 437.752 263.544H437.723C437.382 263.544 437.048 263.453 436.754 263.281L436.751 263.279L415.255 250.732L415.19 250.695C414.994 250.585 414.818 250.442 414.67 250.272L414.667 250.27C414.402 249.965 414.24 249.585 414.203 249.186L414.194 249.014V248.989C414.195 248.711 414.257 248.437 414.374 248.185C414.491 247.932 414.662 247.708 414.874 247.528L414.886 247.519C414.979 247.439 415.08 247.368 415.188 247.309L415.222 247.289L415.255 247.27L436.732 234.732L436.733 234.733ZM275.25 33.9814L275.259 33.9834L275.268 33.9844C322.961 39.7517 368.033 61.7243 402.157 95.8506C435.748 129.444 457.562 173.645 463.736 220.514L464.019 222.748C464.052 223.02 464.026 223.297 463.944 223.559C463.863 223.821 463.726 224.062 463.544 224.268C463.362 224.473 463.139 224.638 462.889 224.75C462.644 224.86 462.379 224.917 462.11 224.919H462.091L461.915 224.91C461.506 224.872 461.117 224.705 460.808 224.431C460.454 224.117 460.228 223.684 460.171 223.214C448.399 125.844 372.165 49.606 274.801 37.832C274.548 37.8015 274.305 37.7215 274.083 37.5967C273.861 37.4718 273.667 37.3037 273.51 37.1035C273.353 36.9034 273.236 36.6746 273.168 36.4297C273.1 36.1847 273.08 35.9283 273.11 35.6758L273.111 35.6738C273.241 34.5997 274.219 33.8524 275.25 33.9814Z" stroke="black" stroke-width="8"/>
<path d="M249.033 414.191L249.24 414.204C249.446 414.228 249.648 414.284 249.837 414.372C250.089 414.49 250.312 414.661 250.491 414.874L250.497 414.881C250.579 414.978 250.65 415.08 250.708 415.185L250.727 415.218L250.746 415.251L263.292 436.775V436.776C263.42 436.996 263.504 437.239 263.538 437.491C263.572 437.743 263.557 438 263.492 438.246C263.427 438.492 263.314 438.722 263.16 438.925C263.006 439.127 262.814 439.298 262.595 439.426L262.594 439.427C262.374 439.555 262.131 439.639 261.879 439.673C261.627 439.707 261.371 439.691 261.125 439.626C260.879 439.561 260.648 439.449 260.445 439.295C260.243 439.141 260.073 438.948 259.945 438.729L259.944 438.728L258.408 436.093L250.953 423.305V492.062C250.953 492.576 250.748 493.068 250.385 493.432C250.021 493.795 249.529 494 249.015 494C248.501 494 248.008 493.795 247.645 493.432C247.281 493.068 247.076 492.576 247.076 492.062V423.286L239.623 436.047L238.056 438.729L238.055 438.732C237.927 438.952 237.756 439.144 237.554 439.298C237.351 439.451 237.121 439.563 236.875 439.628C236.629 439.692 236.374 439.707 236.122 439.673C235.87 439.638 235.627 439.555 235.408 439.427L235.405 439.425L235.246 439.32C235.092 439.209 234.955 439.076 234.84 438.924C234.686 438.721 234.573 438.49 234.509 438.244C234.444 437.998 234.428 437.741 234.463 437.489C234.497 437.237 234.582 436.995 234.71 436.775L234.711 436.774L247.285 415.249L247.305 415.215L247.323 415.182C247.382 415.076 247.453 414.975 247.532 414.882L247.537 414.876L247.543 414.869C247.722 414.658 247.945 414.488 248.196 414.371C248.385 414.283 248.585 414.226 248.791 414.203L248.998 414.191H249.033ZM462.326 273.096C462.836 273.157 463.301 273.42 463.618 273.824C463.896 274.178 464.04 274.616 464.03 275.062L464.017 275.253C458.251 322.95 436.28 368.025 402.155 402.151C368.564 435.744 324.365 457.56 277.499 463.735L275.271 464.017C275.2 464.025 275.118 464.029 275.026 464.029C274.536 464.027 274.064 463.839 273.707 463.502C273.348 463.163 273.132 462.701 273.103 462.208C273.073 461.715 273.233 461.23 273.549 460.851C273.865 460.472 274.314 460.228 274.804 460.168L274.803 460.167C371.404 448.484 447.205 373.343 459.882 277.065L460.17 274.787C460.232 274.277 460.493 273.812 460.897 273.495C461.302 273.178 461.816 273.034 462.326 273.096Z" stroke="black" stroke-width="8"/>
<path d="M35.7236 273.092C36.6831 272.971 37.6067 273.619 37.8252 274.587L37.8594 274.785C49.6045 372.152 125.837 448.388 223.229 460.166L223.237 460.167C223.728 460.225 224.178 460.469 224.495 460.848C224.812 461.227 224.972 461.713 224.942 462.206C224.913 462.699 224.697 463.163 224.337 463.502C223.977 463.841 223.502 464.029 223.008 464.028L222.982 464.027C222.91 464.027 222.838 464.024 222.767 464.016L222.763 464.015C175.065 458.247 129.989 436.275 95.8623 402.148C62.2647 368.551 40.455 324.349 34.2939 277.483L34.0127 275.25C33.9513 274.74 34.0949 274.226 34.4121 273.821C34.7294 273.417 35.1941 273.155 35.7041 273.094L35.7236 273.092ZM60.5332 234.473C60.7849 234.507 61.0276 234.591 61.2471 234.719L61.249 234.72L82.7725 247.266L82.8027 247.283L82.833 247.3C83.0327 247.412 83.2113 247.558 83.3613 247.73L83.3623 247.731C83.6262 248.036 83.7871 248.414 83.8242 248.812L83.832 248.984V249.01C83.8311 249.288 83.7699 249.563 83.6523 249.815C83.5641 250.005 83.4461 250.178 83.3027 250.329L83.1504 250.472L83.1445 250.477C83.0474 250.559 82.9423 250.632 82.8311 250.694L82.7725 250.728L61.249 263.273L61.2422 263.277C60.9498 263.449 60.6171 263.539 60.2783 263.539H60.2041C59.8022 263.525 59.4142 263.388 59.0938 263.144C58.7552 262.885 58.5108 262.522 58.3994 262.11C58.2882 261.699 58.3157 261.262 58.4775 260.868C58.6394 260.474 58.9268 260.144 59.2949 259.93L59.2969 259.929L61.9326 258.393L74.7188 250.937H5.93848C5.42454 250.937 4.93086 250.733 4.56738 250.369C4.20399 250.006 4 249.512 4 248.998C4.00006 248.484 4.20419 247.991 4.56738 247.628C4.93086 247.264 5.42454 247.06 5.93848 247.06H74.7188L61.9326 239.604L59.2969 238.067L59.1377 237.964C58.9835 237.852 58.8461 237.718 58.7305 237.566C58.5766 237.364 58.4642 237.133 58.3994 236.888C58.3346 236.642 58.3183 236.385 58.3525 236.133C58.3868 235.881 58.4705 235.638 58.5986 235.418L58.5996 235.416C58.7275 235.197 58.8975 235.004 59.0996 234.851C59.302 234.697 59.5335 234.583 59.7793 234.519C60.025 234.454 60.2815 234.438 60.5332 234.473Z" stroke="black" stroke-width="8"/>
<path d="M222.813 33.9766C223.067 33.9426 223.325 33.9588 223.573 34.0254C223.82 34.092 224.053 34.2073 224.255 34.3643C224.458 34.5213 224.629 34.7173 224.755 34.9404C224.882 35.1636 224.963 35.4103 224.994 35.665C225.024 35.9197 225.004 36.178 224.934 36.4248C224.864 36.6717 224.747 36.9026 224.587 37.1035C224.428 37.3044 224.229 37.4709 224.004 37.5947C223.78 37.7185 223.533 37.7966 223.278 37.8242L223.229 37.8301C125.836 49.6079 49.6041 125.845 37.8589 223.211V223.212C37.8022 223.682 37.5749 224.115 37.2212 224.429C36.8661 224.744 36.4091 224.917 35.938 224.918H35.937C35.663 224.918 35.3921 224.86 35.1421 224.748C34.8919 224.636 34.6679 224.472 34.4858 224.267C34.3039 224.062 34.1672 223.82 34.0854 223.559C34.0036 223.297 33.9783 223.02 34.0112 222.748V222.747C39.7645 175.054 61.7309 129.979 95.8618 95.8486C129.99 61.7223 175.065 39.7507 222.762 33.9824L222.813 33.9766ZM249.013 4C249.527 4 250.021 4.20388 250.384 4.56738C250.748 4.93089 250.952 5.4243 250.952 5.93848V74.707L258.407 61.9336L259.944 59.2988L259.954 59.2812C260.081 59.06 260.252 58.8662 260.455 58.7109C260.657 58.5558 260.889 58.4425 261.135 58.377C261.382 58.3114 261.639 58.2949 261.892 58.3291C262.145 58.3633 262.389 58.4475 262.61 58.5762C262.83 58.7049 263.023 58.8757 263.177 59.0791C263.331 59.2826 263.444 59.5146 263.508 59.7617C263.573 60.0088 263.588 60.2666 263.552 60.5195C263.517 60.7725 263.431 61.0164 263.301 61.2363L263.292 61.2539L250.745 82.751L250.726 82.7822L250.708 82.8145C250.6 83.0093 250.457 83.1838 250.289 83.3301L250.28 83.3379C249.943 83.6317 249.515 83.7975 249.069 83.8086H248.998C248.719 83.8073 248.445 83.7448 248.193 83.627C247.941 83.509 247.717 83.3378 247.538 83.125L247.53 83.1152L247.418 82.9717C247.384 82.922 247.352 82.8702 247.323 82.8174L247.304 82.7842L247.285 82.752L234.718 61.2695C234.467 60.8278 234.399 60.3049 234.53 59.8135C234.661 59.3188 234.983 58.8961 235.424 58.6377C235.866 58.3793 236.392 58.3067 236.887 58.4346C237.382 58.5624 237.807 58.8805 238.069 59.3203L239.623 61.9775L247.076 74.7246V5.93848C247.076 5.42428 247.28 4.93089 247.643 4.56738C248.006 4.20402 248.499 4.0001 249.013 4Z" stroke="black" stroke-width="8"/>
</svg>
