<svg width="498" height="498" viewBox="0 0 498 498" fill="none" xmlns="http://www.w3.org/2000/svg">
<path d="M248.577 86C338.1 86 411.106 159.05 411.106 248.577C411.106 338.103 338.103 411.106 248.577 411.106C159.05 411.106 86 338.1 86 248.577C86.0002 159.053 159.053 86.0002 248.577 86ZM248.577 90.0625C161.272 90.0627 90.0627 161.272 90.0625 248.577C90.0625 335.884 161.275 407.044 248.577 407.044C335.881 407.044 407.044 335.881 407.044 248.577C407.044 161.275 335.884 90.0625 248.577 90.0625Z" stroke="black" stroke-width="12"/>
<path d="M248.972 435.48C250.091 435.48 251.004 436.393 251.004 437.512V489.915C251.003 491.033 250.091 491.946 248.972 491.946C247.854 491.946 246.941 491.033 246.941 489.915V437.512C246.941 436.393 247.854 435.481 248.972 435.48Z" stroke="black" stroke-width="12"/>
<path d="M282.301 36.7979C282.483 35.6944 283.533 34.9438 284.636 35.127H284.637C375.72 50.2307 447.714 122.225 462.818 213.308V213.309C463.001 214.412 462.251 215.462 461.147 215.645C460.042 215.828 458.993 215.076 458.81 213.974V213.973L458.453 211.882C442.883 123.482 372.665 53.8424 283.972 39.1348H283.971C282.869 38.952 282.117 37.9035 282.301 36.7979ZM248.972 6C250.091 6 251.004 6.9127 251.004 8.03125V60.4336C251.004 61.5522 250.091 62.4658 248.972 62.4658C247.854 62.4658 246.941 61.5522 246.941 60.4336V8.03125C246.941 6.91274 247.854 6.00007 248.972 6Z" stroke="black" stroke-width="12"/>
<path d="M458.811 283.972C458.993 282.869 460.042 282.118 461.147 282.301C462.251 282.484 463.002 283.533 462.818 284.637V284.638C447.833 375.009 376.842 446.589 286.769 462.454L284.637 462.818C283.533 463.002 282.484 462.251 282.301 461.147C282.129 460.111 282.779 459.124 283.77 458.854L283.972 458.811C373.363 443.987 443.987 373.364 458.811 283.973V283.972ZM437.511 246.941H489.914C491.032 246.942 491.945 247.854 491.945 248.973C491.945 250.091 491.033 251.004 489.914 251.004H437.511C436.392 251.004 435.479 250.091 435.479 248.973C435.48 247.854 436.392 246.942 437.511 246.941Z" stroke="black" stroke-width="12"/>
<path d="M36.7979 282.301C37.9035 282.118 38.952 282.869 39.1348 283.972V283.973C53.9582 373.363 124.582 443.987 213.973 458.811H213.974C215.076 458.993 215.828 460.042 215.645 461.147C215.462 462.251 214.412 463.002 213.309 462.818H213.308C122.225 447.715 50.2307 375.72 35.127 284.638V284.637L35.1035 284.431C35.039 283.405 35.7633 282.472 36.7979 282.301ZM8.03125 246.941H60.4336C61.5522 246.941 62.4658 247.854 62.4658 248.973C62.4658 250.091 61.5522 251.004 60.4336 251.004H8.03125C6.9127 251.004 6 250.091 6 248.973C6.00007 247.854 6.91274 246.941 8.03125 246.941Z" stroke="black" stroke-width="12"/>
<path d="M213.309 35.127C214.412 34.9438 215.462 35.6944 215.645 36.7979C215.828 37.9035 215.076 38.952 213.974 39.1348H213.973C124.582 53.9582 53.9582 124.582 39.1348 213.973V213.974C38.9521 215.076 37.9036 215.828 36.7979 215.645C35.6944 215.462 34.9438 214.412 35.127 213.309V213.308C50.2307 122.225 122.225 50.2307 213.308 35.127H213.309ZM248.973 6C250.091 6.00007 251.004 6.91274 251.004 8.03125V60.4336C251.004 61.5522 250.091 62.4658 248.973 62.4658C247.854 62.4658 246.941 61.5522 246.941 60.4336V8.03125C246.941 6.9127 247.854 6 248.973 6Z" stroke="black" stroke-width="12"/>
<path d="M182.07 148.151C192.692 142.49 203.512 139.418 215.277 140.092C226.045 140.709 237.127 144.437 249.134 151.428C261.136 144.444 272.218 140.717 282.985 140.099C294.751 139.423 305.573 142.491 316.194 148.151C331.167 156.131 339.668 171.043 342.816 186.95C345.963 202.846 343.94 220.428 337.161 234.913C331.003 248.072 327.517 256.887 325.084 265.922C322.637 275.008 321.2 284.515 319.324 299.206C317.349 314.674 312.563 327.616 306.64 337.423C300.809 347.075 293.554 354.199 286.311 357.213L286.309 357.214C281.984 359.011 277.453 359.034 273.332 357.007C269.402 355.073 266.498 351.602 264.439 347.619C260.353 339.713 258.676 328.077 259.667 314.527C260.551 302.441 258.287 294.552 255.558 289.917C252.691 285.049 249.744 284.256 249.133 284.256C248.522 284.256 245.575 285.049 242.708 289.917C239.979 294.552 237.714 302.441 238.598 314.527C239.588 328.077 237.912 339.713 233.826 347.619C231.768 351.602 228.864 355.073 224.934 357.007C220.813 359.034 216.281 359.011 211.956 357.214L211.954 357.213C204.711 354.199 197.456 347.074 191.626 337.422C185.703 327.615 180.915 314.674 178.94 299.206C177.065 284.515 175.627 275.009 173.181 265.922C170.748 256.886 167.262 248.072 161.104 234.913C154.324 220.428 152.302 202.847 155.448 186.95C158.597 171.043 167.099 156.131 182.07 148.151Z" stroke="black" stroke-width="12"/>
</svg>
