<svg width="512" height="512" viewBox="0 0 512 512" fill="none" xmlns="http://www.w3.org/2000/svg">
<path d="M234.917 22.667C249.992 16.5945 266.651 15.6704 282.306 20.0381L282.362 20.0537C313.921 28.292 334.357 43.9016 344.01 66.0674L344.011 66.0693C350.929 81.9292 351.41 99.1286 349.181 114.638C346.953 130.135 342.053 143.718 338.463 152.16L336.968 155.678L340.603 156.858C342.896 157.604 345.012 158.811 346.822 160.404C349.389 163.034 351.326 166.212 352.484 169.7C353.654 173.223 353.999 176.968 353.493 180.646L353.438 181.048L353.477 181.452C354.093 187.959 352.322 194.466 348.497 199.764C345.175 203.956 340.529 206.899 335.316 208.107L333.085 208.625L332.666 210.878C331.111 219.241 326.714 236.302 315.277 251.451C303.959 266.443 285.667 279.695 255.826 280.704C225.853 279.695 207.489 266.438 196.133 251.444C184.657 236.293 180.252 219.229 178.697 210.857L178.279 208.604L176.046 208.087C170.838 206.88 166.196 203.939 162.878 199.749C159.051 194.449 157.277 187.939 157.888 181.429L157.923 181.049L157.876 180.67C157.442 177.18 157.745 173.638 158.766 170.272C159.775 166.945 161.465 163.864 163.726 161.224C164.942 159.989 166.336 158.942 167.861 158.118L171.131 156.354L169.175 153.195C157.975 135.114 152.445 114.096 153.292 92.8467C156.787 68.1955 168.354 55.0067 180.347 47.8242C192.539 40.5223 205.503 39.2414 211.728 39.1025L213.287 39.0684L214.304 37.8857C219.943 31.3268 226.989 26.1243 234.917 22.667ZM280.698 26.6602C266.559 22.664 251.498 23.4358 237.841 28.8564L237.793 28.875L237.747 28.8955C229.826 32.3081 222.922 37.7107 217.705 44.5781L217.688 44.5996L217.672 44.6221C217.33 45.087 216.874 45.4561 216.348 45.6934C215.821 45.9306 215.243 46.0281 214.668 45.9766L214.653 45.9756L214.638 45.9736C213.626 45.8916 201.309 44.7541 188.281 49.9307C174.982 55.2151 161.202 67.003 157.689 92.0469L157.655 92.2881V92.5332C157.655 107.909 157.742 118.285 160.798 127.659C163.899 137.174 169.934 145.354 180.932 156.861L180.933 156.862C181.402 157.353 181.715 157.974 181.831 158.644C181.947 159.313 181.86 160.003 181.582 160.623L181.555 160.685L181.529 160.747C181.288 161.347 180.863 161.855 180.314 162.197C179.768 162.538 179.128 162.697 178.485 162.652L178.073 162.615L177.999 162.608L177.924 162.605L177.608 162.595C174.347 162.523 171.176 163.693 168.741 165.875L168.453 166.134L168.229 166.448C166.693 168.599 165.6 171.032 165.011 173.607C164.441 176.102 164.357 178.681 164.759 181.206C164.764 181.398 164.755 181.591 164.729 181.781L164.721 181.847L164.715 181.913C164.262 186.698 165.498 191.491 168.208 195.46L168.337 195.65L168.49 195.821C170.204 197.736 172.283 199.289 174.605 200.389C176.868 201.46 179.316 202.079 181.814 202.216C182.574 202.319 183.278 202.673 183.812 203.225C184.36 203.79 184.696 204.527 184.763 205.312L184.764 205.323C184.896 206.818 186.553 223.255 196.149 239.674C205.853 256.276 223.693 272.825 255.727 273.875L255.841 273.879L255.956 273.875C287.829 272.825 305.588 256.267 315.252 239.667C324.81 223.249 326.474 206.811 326.606 205.308L326.607 205.305C326.676 204.522 327.012 203.786 327.56 203.222C328.093 202.672 328.794 202.319 329.552 202.216C332.052 202.081 334.502 201.462 336.766 200.39C339.088 199.289 341.167 197.736 342.881 195.82L343.034 195.649L343.163 195.46C345.884 191.472 347.121 186.656 346.655 181.851L346.649 181.794L346.643 181.738L346.624 181.565C346.613 181.438 346.61 181.31 346.612 181.182C347.019 178.571 346.906 175.905 346.275 173.337C345.625 170.689 344.44 168.201 342.792 166.028L342.485 165.625L342.078 165.324L341.806 165.129C338.972 163.145 335.5 162.278 332.059 162.704L331.968 162.716L331.877 162.731C331.244 162.844 330.593 162.775 329.997 162.534C329.402 162.293 328.886 161.889 328.51 161.368C328.133 160.848 327.91 160.231 327.868 159.59C327.826 158.949 327.966 158.309 328.271 157.743L328.277 157.731L328.283 157.719C328.474 157.357 335.01 144.941 339.438 127.812C343.843 110.772 346.318 88.4731 337.711 68.7178L337.71 68.7148L337.279 67.7529C328.095 47.6609 308.749 33.9906 280.698 26.6602Z" stroke="black" stroke-width="7"/>
<path d="M210.413 78.3457C210.769 78.1601 211.174 78.092 211.572 78.1484C211.969 78.2049 212.338 78.3838 212.628 78.6611L212.678 78.709L212.728 78.7549C223.123 88.1704 235.43 95.2296 248.805 99.4502C262.18 103.671 276.31 104.953 290.227 103.209L290.316 103.198L290.404 103.184C290.622 103.148 290.844 103.14 291.065 103.158C306.627 104.798 316.851 113.888 323.447 125.221C330.128 136.702 332.851 150.171 333.207 159.261C333.227 159.768 333.045 160.263 332.7 160.636C332.356 161.009 331.877 161.23 331.369 161.251L331.294 161.254L331.219 161.26L331.177 161.262C330.719 161.237 330.284 161.053 329.951 160.734C329.594 160.392 329.382 159.924 329.362 159.43L329.361 159.419V159.408L329.31 158.533C329.099 155.437 328.128 145.28 323.966 134.821C319.213 122.878 309.78 109.417 291.573 107.071L290.938 106.989L290.304 107.07C276.709 108.797 262.904 107.72 249.74 103.907C236.577 100.094 224.335 93.6251 213.768 84.8994L210.729 82.3896L207.578 84.7588C197.715 92.1774 176.337 113.844 180.344 158.799C180.339 159.259 180.17 159.704 179.864 160.05C179.539 160.415 179.088 160.643 178.602 160.688C178.115 160.732 177.63 160.589 177.245 160.288C176.886 160.006 176.641 159.606 176.55 159.16C171.188 99.1182 209.546 78.7999 210.414 78.3467L210.413 78.3457ZM448.427 414.104C448.402 392.087 439.643 370.979 424.074 355.41C408.506 339.841 387.398 331.083 365.38 331.058H351.135C350.626 331.058 350.138 330.856 349.779 330.496C349.419 330.136 349.216 329.648 349.216 329.139C349.216 328.63 349.419 328.142 349.779 327.782C350.138 327.422 350.626 327.22 351.135 327.22H365.367L366.447 327.229C389.093 327.541 410.742 336.673 426.777 352.708C442.811 368.743 451.943 390.392 452.256 413.038L452.265 414.117V491.242C452.265 491.751 452.062 492.24 451.702 492.6C451.343 492.959 450.855 493.161 450.346 493.161H61.6545C61.1458 493.161 60.6579 492.959 60.2981 492.6C59.9382 492.24 59.7356 491.751 59.7356 491.242V414.12C59.7825 391.066 68.97 368.971 85.2834 352.681C101.597 336.39 123.705 327.234 146.76 327.22H160.041C160.55 327.22 161.039 327.422 161.399 327.782C161.758 328.142 161.96 328.63 161.96 329.139C161.96 329.648 161.759 330.136 161.399 330.496C161.039 330.856 160.55 331.058 160.041 331.058H146.754C124.721 331.069 103.592 339.818 87.9993 355.385C72.4063 370.951 63.6222 392.066 63.5735 414.1V489.323H448.427V414.104Z" stroke="black" stroke-width="10"/>
<path d="M307.241 305.534V305.535L355.561 320.098V320.099C355.62 320.116 355.674 320.146 355.719 320.187C355.765 320.227 355.801 320.277 355.825 320.333C355.849 320.389 355.861 320.449 355.859 320.51C355.858 320.54 355.855 320.57 355.847 320.6L355.816 320.686L336.621 359.201L334.658 363.14L337.585 366.425L348.709 378.909V378.91C348.768 378.978 348.806 379.062 348.813 379.152C348.821 379.242 348.798 379.332 348.751 379.408L348.741 379.426L279.476 491.463C279.439 491.523 279.386 491.574 279.324 491.608C279.262 491.643 279.191 491.66 279.12 491.66C279.06 491.66 279.001 491.648 278.947 491.623C278.892 491.598 278.844 491.561 278.804 491.516C278.765 491.47 278.736 491.416 278.719 491.358C278.703 491.301 278.699 491.241 278.708 491.183L306.708 305.874C306.717 305.815 306.738 305.757 306.771 305.707C306.804 305.657 306.847 305.614 306.898 305.582C306.949 305.55 307.006 305.53 307.065 305.521C307.124 305.513 307.184 305.517 307.241 305.534ZM204.105 305.544C204.165 305.552 204.222 305.573 204.272 305.605C204.323 305.638 204.365 305.68 204.398 305.73C204.415 305.755 204.429 305.782 204.439 305.81L204.462 305.896L232.472 491.181H232.473C232.482 491.24 232.477 491.301 232.461 491.358C232.444 491.416 232.415 491.47 232.376 491.516C232.337 491.561 232.288 491.597 232.234 491.622C232.182 491.646 232.126 491.658 232.069 491.659C232.001 491.658 231.934 491.642 231.874 491.608C231.812 491.574 231.759 491.524 231.721 491.463V491.462L162.435 379.445L162.426 379.43L162.395 379.37C162.369 379.308 162.358 379.24 162.364 379.173C162.372 379.083 162.408 378.998 162.468 378.931L162.467 378.93L173.592 366.445L176.519 363.16L174.556 359.222L155.358 320.702C155.333 320.649 155.319 320.59 155.317 320.531C155.316 320.47 155.328 320.409 155.352 320.354C155.377 320.298 155.412 320.248 155.458 320.208C155.503 320.168 155.556 320.137 155.613 320.119L155.614 320.12L203.932 305.556C203.988 305.54 204.048 305.536 204.105 305.544ZM306.349 313.894L284.59 457.897L296.545 462.288L345.344 383.413L347.894 379.29L344.67 375.67L333.855 363.527L333.852 363.523C333.797 363.461 333.761 363.384 333.75 363.301C333.739 363.219 333.753 363.136 333.789 363.062L351.418 327.679L354.852 320.784L347.479 318.558L314.656 308.643L307.471 306.473L306.349 313.894ZM196.552 308.642L163.728 318.535L156.35 320.76L159.786 327.657L177.409 363.04L177.41 363.042C177.447 363.117 177.461 363.201 177.45 363.284C177.439 363.366 177.403 363.444 177.348 363.506L166.535 375.649L163.31 379.27L165.861 383.392L214.66 462.268L226.615 457.876L204.854 313.894L203.734 306.477L196.552 308.642Z" stroke="black" stroke-width="13"/>
<path d="M373.942 327.729C374.43 327.661 374.925 327.788 375.32 328.082C375.352 328.107 375.421 328.162 375.525 328.248C375.671 328.37 375.888 328.556 376.165 328.812C376.719 329.322 377.519 330.111 378.486 331.217C380.418 333.426 383.028 336.909 385.694 341.974C390.849 351.768 396.284 367.621 397.289 391.841L397.372 394.21C397.386 394.718 397.198 395.211 396.849 395.58C396.5 395.95 396.019 396.166 395.51 396.181L395.501 396.182H395.492L395.418 396.184C394.93 396.176 394.462 395.984 394.111 395.644C393.797 395.339 393.598 394.938 393.544 394.508L393.53 394.322C392.865 371.164 388.118 355.649 383.311 345.753C380.911 340.812 378.51 337.302 376.631 334.963C375.692 333.795 374.885 332.921 374.277 332.311C373.973 332.005 373.719 331.766 373.523 331.588C373.425 331.499 373.341 331.426 373.274 331.368C373.241 331.339 373.212 331.314 373.187 331.293C373.175 331.283 373.164 331.273 373.155 331.266C373.148 331.26 373.137 331.251 373.141 331.255L373.096 331.217L373.05 331.181L372.905 331.054C372.584 330.743 372.377 330.329 372.321 329.882C372.258 329.371 372.397 328.856 372.709 328.447C373.009 328.055 373.452 327.796 373.942 327.729ZM212.272 357.657L212.334 357.667L212.395 357.675C241.058 361.2 270.045 361.202 298.709 357.682C299.204 357.632 299.7 357.776 300.091 358.085C300.485 358.397 300.742 358.851 300.804 359.351C300.867 359.85 300.731 360.354 300.427 360.754C300.126 361.147 299.686 361.409 299.198 361.485C284.909 363.276 270.522 364.169 256.121 364.158C241.36 364.148 226.614 363.254 211.96 361.482L211.887 361.474L211.815 361.467L211.625 361.439C211.437 361.403 211.255 361.339 211.086 361.248C210.86 361.127 210.659 360.962 210.498 360.763C210.337 360.563 210.217 360.333 210.146 360.087C210.075 359.84 210.054 359.582 210.085 359.327C210.115 359.073 210.197 358.826 210.324 358.604C210.451 358.381 210.622 358.186 210.826 358.03C211.03 357.875 211.263 357.761 211.511 357.697C211.76 357.633 212.019 357.62 212.272 357.657ZM215.193 263.177C215.446 263.191 215.694 263.256 215.923 263.366C216.151 263.477 216.355 263.631 216.523 263.82C216.692 264.01 216.822 264.23 216.905 264.47C216.988 264.709 217.023 264.963 217.009 265.216V265.227C216.929 266.642 216.429 274.054 214.713 282.758C212.963 291.63 210.092 301.062 205.665 307.076C205.485 307.319 205.25 307.516 204.98 307.65C204.71 307.785 204.411 307.854 204.108 307.852H204.089C203.734 307.85 203.387 307.75 203.086 307.563C202.785 307.377 202.541 307.11 202.383 306.794C202.224 306.477 202.155 306.123 202.185 305.77C202.216 305.416 202.343 305.078 202.553 304.793L202.552 304.792C206.575 299.354 209.043 290.95 210.578 283.646C212.158 276.129 212.93 268.849 213.154 264.993V264.992C213.169 264.739 213.233 264.492 213.344 264.264C213.454 264.035 213.608 263.831 213.798 263.662C213.987 263.494 214.208 263.365 214.447 263.281C214.687 263.198 214.94 263.162 215.193 263.177ZM296.053 263.193C296.564 263.177 297.063 263.356 297.445 263.696C297.786 264 298.011 264.409 298.086 264.855L298.109 265.049C298.337 268.923 299.111 276.173 300.683 283.653C302.219 290.959 304.684 299.365 308.701 304.796C308.91 305.08 309.037 305.417 309.067 305.77C309.097 306.123 309.029 306.477 308.87 306.794C308.711 307.11 308.468 307.377 308.167 307.563C307.866 307.75 307.518 307.85 307.164 307.852H307.156C306.857 307.85 306.563 307.779 306.297 307.645C306.031 307.51 305.799 307.316 305.622 307.076H305.623C301.177 301.066 298.305 291.634 296.56 282.76C294.849 274.059 294.359 266.649 294.279 265.227L294.278 265.217C294.249 264.709 294.422 264.21 294.76 263.83C295.092 263.457 295.557 263.23 296.053 263.193Z" stroke="black" stroke-width="10"/>
<path d="M391.117 392.765C395.452 391.902 399.946 392.344 404.031 394.035C408.115 395.727 411.606 398.592 414.062 402.268C416.441 405.828 417.746 409.995 417.826 414.271L417.829 414.686C417.822 420.61 415.465 426.29 411.277 430.479C407.087 434.67 401.406 437.027 395.481 437.035C391.061 437.036 386.741 435.726 383.066 433.271C379.39 430.816 376.524 427.326 374.831 423.242C373.139 419.158 372.695 414.664 373.557 410.328C374.419 405.992 376.547 402.009 379.672 398.883C382.798 395.756 386.781 393.628 391.117 392.765ZM133.543 328.34C133.987 328.09 134.511 328.026 135.001 328.162C135.492 328.299 135.908 328.625 136.159 329.068C136.409 329.512 136.473 330.036 136.336 330.526C136.2 331.017 135.873 331.433 135.43 331.684L135.384 331.709L135.34 331.735C134.269 332.37 127.861 336.443 122.144 346.245C116.492 355.935 111.701 370.91 113.089 393.075L113.16 394.137C113.195 394.644 113.028 395.144 112.695 395.528C112.37 395.902 111.915 396.133 111.423 396.179L111.228 396.185C110.752 396.178 110.296 395.998 109.947 395.674C109.59 395.343 109.373 394.888 109.338 394.403C107.526 368.873 113.658 352.431 120.052 342.41C126.488 332.326 133.402 328.419 133.533 328.346L133.543 328.34ZM413.992 414.68C413.986 409.775 412.036 405.072 408.569 401.603C405.101 398.133 400.399 396.18 395.494 396.173H395.488C391.826 396.171 388.246 397.255 385.201 399.288C382.155 401.321 379.781 404.211 378.378 407.594C376.976 410.976 376.607 414.699 377.321 418.291C378.034 421.883 379.796 425.182 382.385 427.772C384.974 430.362 388.272 432.127 391.864 432.842C395.455 433.557 399.178 433.191 402.561 431.79C405.944 430.389 408.836 428.016 410.87 424.972C412.905 421.927 413.992 418.347 413.992 414.686V414.68Z" stroke="black" stroke-width="10"/>
<path d="M113.025 391.954C117.317 390.758 121.804 390.423 126.227 390.97C130.67 391.519 134.959 392.948 138.844 395.172H138.845C145.791 399.185 151.346 405.221 154.769 412.476C158.192 419.73 159.32 427.856 158.002 435.769V435.771C157.918 436.273 157.638 436.721 157.224 437.017C156.81 437.313 156.296 437.432 155.794 437.349C155.291 437.265 154.843 436.985 154.547 436.571C154.251 436.157 154.131 435.643 154.214 435.141C155.396 428.033 154.393 420.734 151.338 414.209C148.282 407.684 143.317 402.239 137.101 398.596L137.088 398.587L137.073 398.579L136.421 398.213C133.139 396.425 129.55 395.265 125.839 394.793C121.879 394.29 117.86 394.581 114.014 395.648L113.889 395.684L113.766 395.725C105.585 398.461 98.8131 404.312 94.9186 412.01C91.0481 419.66 90.3322 428.519 92.9166 436.688C94.0161 440.701 95.8305 444.481 98.2721 447.845L98.7721 448.516C98.9839 448.798 99.1136 449.134 99.1471 449.485C99.1809 449.841 99.1151 450.199 98.9567 450.519C98.7981 450.839 98.553 451.108 98.2496 451.297C97.9481 451.484 97.6006 451.583 97.2457 451.585C96.9504 451.586 96.659 451.519 96.3942 451.389C96.1943 451.29 96.0138 451.158 95.86 450.998L95.7155 450.83C92.7289 446.908 90.5286 442.445 89.236 437.688L89.2145 437.609L89.191 437.533L88.9371 436.666C86.4268 427.692 87.4327 418.084 91.7711 409.812C96.236 401.298 103.871 394.884 113.025 391.954Z" stroke="black" stroke-width="10"/>
<path d="M105.658 444.738C105.911 444.747 106.159 444.806 106.389 444.911C106.618 445.016 106.825 445.165 106.997 445.35C107.169 445.534 107.303 445.752 107.392 445.988C107.48 446.225 107.522 446.477 107.513 446.729C107.504 446.982 107.445 447.23 107.34 447.46C107.235 447.69 107.086 447.896 106.901 448.068C106.72 448.237 106.508 448.37 106.276 448.458L97.9736 451.53C97.758 451.61 97.5298 451.65 97.2998 451.648H97.2666C96.816 451.649 96.379 451.491 96.0332 451.202C95.6877 450.913 95.4547 450.512 95.375 450.069C95.2954 449.626 95.3741 449.168 95.5977 448.777C95.8211 448.387 96.1749 448.087 96.5967 447.931L104.899 444.865L104.917 444.859C105.154 444.771 105.406 444.729 105.658 444.738ZM147.208 433.043C147.608 432.728 148.117 432.585 148.623 432.645L156.421 433.571C156.906 433.629 157.351 433.87 157.665 434.245C157.979 434.62 158.138 435.101 158.109 435.589C158.081 436.077 157.866 436.536 157.511 436.872C157.165 437.199 156.699 437.388 156.196 437.389H156.046C156.035 437.389 156.025 437.388 156.017 437.388L155.964 437.382L148.169 436.462H148.17C147.919 436.432 147.677 436.353 147.457 436.229C147.237 436.106 147.043 435.94 146.887 435.742C146.731 435.544 146.615 435.317 146.547 435.074C146.478 434.831 146.459 434.577 146.488 434.326C146.518 434.076 146.597 433.833 146.721 433.613C146.844 433.393 147.01 433.199 147.208 433.043Z" stroke="black" stroke-width="10"/>
</svg>
