<svg width="35" height="35" viewBox="0 0 35 35" fill="none" xmlns="http://www.w3.org/2000/svg">
<g clip-path="url(#clip0_1016_238)">
<path d="M17.4138 3.48054H18.4392V4.50593H17.4138V3.48054ZM15.363 2.45508H16.3884V3.48047H15.363V2.45508ZM13.6739 10.0968C14.522 10.0968 15.212 9.40682 15.212 8.55875C15.212 7.71068 14.522 7.02066 13.6739 7.02066C12.8258 7.02066 12.1358 7.71068 12.1358 8.55875C12.1358 9.40682 12.8258 10.0968 13.6739 10.0968ZM13.6739 8.04605C13.9566 8.04605 14.1866 8.27602 14.1866 8.55875C14.1866 8.84148 13.9566 9.07144 13.6739 9.07144C13.3912 9.07144 13.1612 8.84148 13.1612 8.55875C13.1612 8.27602 13.3912 8.04605 13.6739 8.04605ZM3.41992 29.7851V32.8613H9.05957V29.7851H3.41992ZM8.03418 31.8359H4.44531V30.8105H8.03418V31.8359ZM28.8479 31.7763C29.696 31.7763 30.386 31.0991 30.386 30.2667V28.216C30.386 27.5186 30.9845 26.6108 31.3061 26.1231L31.3588 26.043C32.003 25.062 31.9982 23.83 31.3465 22.9042C30.7048 21.9926 29.5979 21.6232 28.3855 21.916C27.9288 22.0263 27.5986 22.1845 27.3334 22.3115C27.0822 22.4318 26.9334 22.4999 26.7973 22.4999C26.661 22.4999 26.5123 22.4318 26.261 22.3115C25.9958 22.1845 25.6656 22.0263 25.2089 21.916C23.9965 21.623 22.8896 21.9926 22.2479 22.9042C21.5962 23.83 21.5913 25.0619 22.2356 26.043L22.2881 26.1229C22.6098 26.6106 23.2084 27.5186 23.2084 28.216V30.2667C23.2084 31.0991 23.8983 31.7763 24.7465 31.7763C25.5946 31.7763 26.2846 31.0991 26.2846 30.2667V29.2414C26.2846 28.9743 26.5145 28.7571 26.7973 28.7571C27.08 28.7571 27.31 28.9743 27.31 29.2414V30.2667C27.3098 31.0991 27.9998 31.7763 28.8479 31.7763ZM26.7971 27.7317C25.9491 27.7317 25.259 28.4089 25.259 29.2414V30.2667C25.259 30.5337 25.029 30.7509 24.7463 30.7509C24.4637 30.7509 24.2336 30.5337 24.2336 30.2667V28.216C24.2336 27.2109 23.5516 26.1765 23.1441 25.5584L23.0925 25.4801C22.6872 24.8629 22.6847 24.0648 23.0862 23.4944C23.4824 22.9316 24.1684 22.7195 24.968 22.9126C25.3199 22.9977 25.5731 23.119 25.818 23.2362C26.1284 23.3848 26.4214 23.5252 26.7971 23.5252C27.1728 23.5252 27.4659 23.3848 27.7762 23.2362C28.0211 23.1189 28.2744 22.9977 28.6262 22.9126C29.4259 22.7195 30.1117 22.9315 30.5079 23.4944C30.9096 24.0648 30.907 24.8629 30.5016 25.4801L30.45 25.5586C30.0425 26.1766 29.3605 27.2109 29.3605 28.2159V30.2666C29.3605 30.5336 29.1306 30.7509 28.8478 30.7509C28.5651 30.7509 28.3351 30.5336 28.3351 30.2666V29.2413C28.3352 28.4089 27.6452 27.7317 26.7971 27.7317Z" fill="#1D907C"/>
<path d="M28.4049 24.0596C27.9464 24.3121 27.5133 24.5507 26.7955 24.5507C26.0776 24.5507 25.6446 24.3122 25.1862 24.0596L24.6914 24.9577C25.1915 25.2332 25.8139 25.5761 26.7956 25.5761C27.7771 25.5761 28.3996 25.2332 28.8997 24.9577L28.4049 24.0596Z" fill="#1D907C"/>
<path d="M26.7969 18.5933C23.3745 18.5933 20.4355 20.7002 19.2073 23.6848L17.2625 23.0539V21.3503C18.9757 20.2512 20.1554 18.3899 20.319 16.249H20.8512C22.2648 16.249 23.4147 15.099 23.4147 13.6855V12.6601C23.4147 11.9918 22.9861 11.422 22.3895 11.2103L22.3894 10.0085C22.9862 9.79687 23.4149 9.22695 23.4149 8.5586C23.4149 7.89025 22.9862 7.32034 22.3894 7.1087L22.3893 6.31115C22.3893 5.28467 21.7729 4.36646 20.8516 3.96273C20.7203 2.74361 19.9298 1.73107 18.5454 1.01809C17.2711 0.361836 15.5409 0.000488281 13.6734 0.000488281C12.0395 0.000488281 10.4731 0.285137 9.2629 0.802002L9.66567 1.74502C10.7514 1.28134 12.1748 1.02588 13.6734 1.02588C17.9142 1.02588 19.8457 2.73917 19.8457 4.33112V4.72344L20.2244 4.82598C20.8953 5.00768 21.3638 5.6184 21.3638 6.31129L21.3639 7.02059H16.9154C16.3384 5.80919 15.1023 4.9698 13.6735 4.9698C12.2447 4.9698 11.0087 5.80919 10.4316 7.02059H5.98309L5.98315 6.31122C5.98315 5.6184 6.45169 5.00774 7.12264 4.82598L7.50135 4.72344V4.33112C7.50135 3.48784 7.94199 2.77007 8.81111 2.19776L8.24715 1.34143C7.20952 2.02475 6.60987 2.92524 6.49592 3.9626C5.5743 4.36626 4.95776 5.2846 4.95776 6.31115L4.9577 7.10877C4.36105 7.32041 3.93244 7.89025 3.93244 8.55853C3.93244 9.22695 4.36105 9.79687 4.95783 10.0085V11.2103C4.36112 11.4219 3.93244 11.9918 3.93244 12.6602V13.6856C3.93244 15.0991 5.08238 16.249 6.49592 16.249H7.02816C7.19182 18.39 8.37149 20.2513 10.0847 21.3504V23.0604L4.44801 24.9925C2.53853 25.6468 0 26.8343 0 29.5789V34.9995H26.7969C28.4134 34.9995 29.9778 34.5293 31.3207 33.6397L30.7544 32.7848C29.5799 33.5629 28.2114 33.9741 26.7969 33.9741C22.8391 33.9741 19.6191 30.7541 19.6191 26.7963C19.6191 22.8385 22.8391 19.6186 26.7969 19.6186C30.7547 19.6186 33.9746 22.8385 33.9746 26.7963C33.9746 28.2107 33.5634 29.5792 32.7854 30.7539L33.6403 31.3202C34.5298 29.977 35 28.4128 35 26.7964C35 22.2732 31.3201 18.5933 26.7969 18.5933ZM21.364 10.0967L21.3641 11.122H20.3386V10.0967H21.364ZM22.3893 13.6855C22.3893 14.5336 21.6993 15.2236 20.8512 15.2236H20.3385V12.1474H21.8766C22.1593 12.1474 22.3893 12.3774 22.3893 12.6601V13.6855ZM21.8768 8.04591C22.1594 8.04591 22.3895 8.27587 22.3895 8.5586C22.3895 8.84134 22.1594 9.0713 21.8768 9.0713H17.2253C17.2493 8.90375 17.2625 8.73271 17.2625 8.5586C17.2625 8.38449 17.2493 8.21346 17.2253 8.04591H21.8768ZM13.6737 5.99513C15.0871 5.99513 16.2371 7.14507 16.2371 8.5586C16.2371 9.97207 15.0872 11.122 13.6737 11.122C12.2601 11.122 11.1102 9.97207 11.1102 8.5586C11.1102 7.14507 12.2601 5.99513 13.6737 5.99513ZM10.122 9.0713H5.47046C5.18779 9.0713 4.95776 8.84127 4.95776 8.55853C4.95776 8.27587 5.18772 8.04591 5.47046 8.04591H10.122C10.0979 8.21346 10.0848 8.38449 10.0848 8.5586C10.0848 8.73271 10.0979 8.90375 10.122 9.0713ZM7.00861 10.0967V11.122H5.98322V10.0967H7.00861ZM4.95783 13.6855V12.6601C4.95783 12.3774 5.18779 12.1474 5.47053 12.1474H7.00861V15.2236H6.49592C5.64778 15.2236 4.95783 14.5336 4.95783 13.6855ZM8.034 15.7363V10.0967H10.4318C11.0089 11.308 12.2449 12.1474 13.6737 12.1474C15.1024 12.1474 16.3384 11.308 16.9155 10.0967H19.3131V15.7363C19.3131 18.8459 16.7832 21.3759 13.6735 21.3759C10.5639 21.3759 8.034 18.8459 8.034 15.7363ZM13.6735 22.4012C14.5815 22.4012 15.4474 22.2184 16.237 21.8883V23.2192L13.6735 25.8685L11.11 23.2192V21.8883C11.8997 22.2185 12.7656 22.4012 13.6735 22.4012ZM1.02539 29.5789C1.02539 27.9678 2.18347 26.8524 4.78051 25.9624L10.4555 24.0172L12.9602 26.6058L10.0848 29.5775V33.9741H1.02539V29.5789ZM22.8295 33.9741H11.1101V29.9923L16.8958 24.0129L18.8776 24.6559C18.6889 25.3537 18.5934 26.0735 18.5938 26.7964C18.5938 29.8814 20.3058 32.5737 22.8295 33.9741Z" fill="#1D907C"/>
<path d="M31.5039 32.2578L32.2258 31.5298L32.9538 32.2517L32.2319 32.9797L31.5039 32.2578Z" fill="#1D907C"/>
</g>
<defs>
<clipPath id="clip0_1016_238">
<rect width="35" height="35" fill="white"/>
</clipPath>
</defs>
</svg>
