<svg width="512" height="512" viewBox="0 0 512 512" fill="none" xmlns="http://www.w3.org/2000/svg">
<path d="M35.5219 49.8066H476.49C490.168 49.8066 501.311 60.9476 501.311 74.6396V366.524C501.311 380.216 490.168 391.357 476.49 391.357H35.5219C21.831 391.357 10.6888 380.215 10.6888 366.524V74.6396C10.6888 60.9488 21.831 49.8066 35.5219 49.8066ZM256.005 51.1855C200.884 51.1863 145.763 51.1879 104.422 51.1895C83.7521 51.1903 66.5269 51.1913 54.4691 51.1924C48.4404 51.1929 43.703 51.1927 40.473 51.1934C38.8582 51.1937 37.6194 51.194 36.7845 51.1943C36.3675 51.1945 36.0503 51.1951 35.8373 51.1953H35.5219C22.5793 51.1953 12.0668 61.7045 12.0668 74.6396V366.524C12.0668 379.46 22.5793 389.968 35.5219 389.968H476.49C489.423 389.968 499.933 379.458 499.933 366.524V74.6396C499.933 61.7105 489.427 51.1846 476.49 51.1846V56.1846L476.485 51.1846H407.588C366.247 51.1847 311.126 51.1848 256.005 51.1855Z" stroke="black" stroke-width="10"/>
<path d="M195.061 433.87C194.173 433.87 193.274 433.666 192.432 433.222C189.645 431.765 188.564 428.329 190.02 425.553L209.567 388.041C211.012 385.253 214.448 384.172 217.236 385.629C220.023 387.085 221.104 390.521 219.648 393.297L200.101 430.81C199.623 431.733 198.899 432.508 198.01 433.047C197.121 433.587 196.101 433.872 195.061 433.87ZM316.939 433.87C314.891 433.87 312.9 432.755 311.888 430.81L292.341 393.297C290.896 390.51 291.976 387.074 294.753 385.629C297.54 384.184 300.976 385.264 302.421 388.041L321.968 425.553C323.413 428.341 322.332 431.777 319.556 433.222C318.726 433.666 317.827 433.87 316.939 433.87Z" fill="black"/>
<path d="M174.979 427.48H337.021C357.579 427.48 375.46 441.401 380.507 461.324L380.509 461.331C380.56 461.529 380.516 461.748 380.385 461.916L380.38 461.922L380.375 461.929C380.314 462.008 380.234 462.073 380.144 462.117C380.053 462.161 379.954 462.185 379.853 462.185H132.153C131.938 462.185 131.735 462.084 131.604 461.916C131.49 461.769 131.44 461.591 131.466 461.404L131.482 461.323C136.529 441.391 154.408 427.48 174.979 427.48ZM174.979 428.858C166.758 428.858 158.706 431.188 151.755 435.577C144.804 439.966 139.24 446.235 135.705 453.657L132.301 460.807H379.693L376.296 453.66C372.766 446.234 367.201 439.961 360.248 435.571C353.297 431.182 345.242 428.854 337.021 428.858H174.979ZM11.3773 335.014H500.622C501.001 335.014 501.311 335.324 501.311 335.702C501.311 336.081 501.001 336.391 500.622 336.392H11.3773C10.9987 336.391 10.6888 336.081 10.6888 335.702C10.6891 335.324 10.9988 335.014 11.3773 335.014Z" stroke="black" stroke-width="10"/>
<path d="M300.191 333.513C301.398 333.513 302.38 334.494 302.38 335.701V353.61C302.369 360.101 297.082 365.379 290.611 365.379H221.4C214.917 365.379 209.642 360.1 209.642 353.61V335.701C209.642 334.494 210.625 333.513 211.832 333.513C213.039 333.513 214.02 334.494 214.02 335.701V353.61C214.02 357.669 217.315 361.001 221.4 361.001H290.611C294.676 361.001 298.002 357.7 298.003 353.61V335.701C298.003 334.494 298.984 333.513 300.191 333.513ZM349.662 240.567H449.263C453.435 240.568 456.834 243.968 456.834 248.149V268.363C456.841 272.543 453.443 275.938 449.263 275.938H349.662C345.49 275.938 342.091 272.538 342.091 268.356V248.149C342.091 243.97 345.499 240.567 349.662 240.567ZM346.469 271.561H452.467V244.957H346.469V271.561ZM344.28 212.089H415.22C416.428 212.089 417.41 213.071 417.41 214.278C417.41 215.485 416.427 216.467 415.22 216.467H344.28C343.073 216.467 342.092 215.485 342.091 214.278C342.091 213.071 343.073 212.089 344.28 212.089ZM344.28 178.035H454.656C455.863 178.035 456.845 179.017 456.845 180.225C456.845 181.432 455.863 182.413 454.656 182.413H344.28C343.073 182.413 342.092 181.432 342.091 180.225C342.091 179.017 343.073 178.035 344.28 178.035ZM344.28 144.152H454.656C455.863 144.152 456.845 145.134 456.845 146.341C456.845 147.548 455.863 148.53 454.656 148.53H344.28C343.073 148.53 342.091 147.548 342.091 146.341C342.092 145.134 343.073 144.152 344.28 144.152ZM344.28 110.258H454.656C455.863 110.258 456.845 111.239 456.845 112.446C456.845 113.654 455.863 114.636 454.656 114.636H344.28C343.073 114.636 342.091 113.653 342.091 112.446C342.092 111.239 343.073 110.258 344.28 110.258ZM70.2291 90.8574C71.0809 90.0056 72.472 90.0057 73.3239 90.8574C74.1757 91.7093 74.1757 93.1003 73.3239 93.9521L73.3229 93.9531L58.8961 108.392C58.6941 108.594 58.4534 108.754 58.1891 108.863C57.925 108.972 57.6418 109.027 57.3561 109.026H57.3444C56.7838 109.026 56.2233 108.815 55.7848 108.384C55.3795 107.974 55.152 107.42 55.152 106.843C55.1521 106.263 55.3816 105.707 55.7906 105.296L70.2291 90.8574Z" stroke="black" stroke-width="7"/>
<path d="M71.3013 91.918C71.5673 91.6519 72.0089 91.6519 72.2749 91.918L86.7104 106.354V106.354C86.8398 106.484 86.9125 106.66 86.9126 106.843C86.9126 107.026 86.8399 107.202 86.7104 107.332L86.6997 107.343C86.6417 107.401 86.5727 107.448 86.4966 107.479C86.4205 107.511 86.3387 107.527 86.2563 107.526H86.2319C86.0515 107.526 85.871 107.46 85.7212 107.312L71.3013 92.8916C71.0352 92.6256 71.0352 92.184 71.3013 91.918Z" stroke="black" stroke-width="10"/>
<path d="M71.7933 91.7109C72.172 91.7109 72.4826 92.0208 72.4828 92.3994V250.062C72.4828 250.44 72.1722 250.751 71.7933 250.751C71.4147 250.751 71.1049 250.44 71.1049 250.062V92.3994C71.1051 92.0209 71.4148 91.7112 71.7933 91.7109Z" stroke="black" stroke-width="10"/>
<path d="M56.8628 235.131C57.1288 234.865 57.5704 234.865 57.8364 235.131L72.272 249.566V249.567C72.4013 249.697 72.474 249.873 72.4741 250.056C72.4741 250.193 72.433 250.327 72.3579 250.439L72.272 250.545C72.1886 250.628 72.1097 250.674 72.0396 250.703C71.9658 250.733 71.8831 250.751 71.7935 250.751C71.6581 250.751 71.5231 250.713 71.4009 250.632L71.2837 250.536L56.8647 236.105L56.8628 236.104L56.7759 235.997C56.6012 235.731 56.63 235.364 56.8628 235.131Z" stroke="black" stroke-width="10"/>
<path d="M85.7395 235.143C86.0055 234.877 86.4471 234.877 86.7131 235.143C86.9792 235.409 86.9792 235.85 86.7131 236.116L72.2786 250.55C72.1495 250.678 71.9745 250.75 71.7922 250.75C71.6162 250.75 71.4416 250.686 71.2942 250.545C71.1714 250.416 71.1018 250.246 71.1018 250.067C71.1019 249.884 71.1747 249.709 71.304 249.579L71.303 249.578L85.7395 235.143Z" stroke="black" stroke-width="10"/>
<path d="M262.459 264.428C262.725 264.162 263.167 264.162 263.433 264.428L277.882 278.878C278.01 279.007 278.082 279.182 278.082 279.364C278.082 279.548 278.01 279.724 277.88 279.854L277.874 279.858L277.869 279.864C277.811 279.923 277.741 279.968 277.665 280C277.589 280.031 277.508 280.048 277.426 280.048H277.402C277.223 280.048 277.045 279.982 276.896 279.837L262.459 265.401C262.193 265.135 262.193 264.694 262.459 264.428Z" stroke="black" stroke-width="10"/>
<path d="M276.921 278.891C277.187 278.625 277.627 278.625 277.893 278.891C278.159 279.156 278.16 279.596 277.895 279.862L263.445 294.301L263.444 294.303C263.316 294.43 263.149 294.499 262.964 294.499C262.787 294.499 262.612 294.435 262.464 294.293C262.341 294.164 262.271 293.994 262.271 293.815C262.271 293.678 262.312 293.544 262.387 293.432L262.473 293.327L276.92 278.893L276.921 278.891Z" stroke="black" stroke-width="10"/>
<path d="M119.739 278.67H277.401C277.78 278.67 278.091 278.98 278.091 279.358C278.091 279.744 277.785 280.048 277.401 280.048H119.739C119.361 280.048 119.051 279.737 119.051 279.358C119.051 278.98 119.361 278.67 119.739 278.67Z" stroke="black" stroke-width="10"/>
<path d="M133.686 264.426C133.953 264.161 134.393 264.162 134.659 264.428C134.925 264.694 134.925 265.135 134.659 265.401L134.657 265.402L120.219 279.853L120.207 279.864C120.149 279.923 120.08 279.969 120.004 280C119.928 280.031 119.846 280.048 119.764 280.048H119.74C119.564 280.048 119.388 279.983 119.24 279.842C119.117 279.713 119.048 279.543 119.048 279.364C119.048 279.181 119.12 279.005 119.25 278.875L119.249 278.874L133.686 264.426Z" stroke="black" stroke-width="10"/>
<path d="M119.259 278.891C119.525 278.625 119.966 278.625 120.232 278.891L134.668 293.326V293.327C134.797 293.457 134.87 293.632 134.87 293.815C134.87 293.953 134.829 294.086 134.754 294.199L134.668 294.305C134.54 294.431 134.373 294.499 134.189 294.499C134.009 294.499 133.828 294.432 133.678 294.284L119.259 279.864C118.993 279.598 118.993 279.157 119.259 278.891Z" stroke="black" stroke-width="10"/>
<path d="M161.914 95.2295C169.649 91.1067 177.286 88.9897 185.481 89.459C193.599 89.9239 202.218 92.9244 211.981 98.9473C221.74 92.9302 230.359 89.9299 238.478 89.4639C246.675 88.9934 254.314 91.1079 262.047 95.2295C272.263 100.674 278.303 110.975 280.577 122.466C282.851 133.955 281.375 146.692 276.503 157.104C271.682 167.405 268.864 174.491 266.885 181.838C264.906 189.189 263.763 196.815 262.308 208.21C260.845 219.669 257.311 229.151 253.033 236.233C248.763 243.303 243.724 248.025 239.224 249.897H239.223C236.856 250.881 234.599 250.835 232.586 249.845C230.588 248.862 228.885 246.977 227.545 244.384C224.866 239.201 223.556 231.044 224.296 220.925C225.026 210.928 223.19 203.916 220.545 199.423C217.888 194.911 214.454 192.986 211.981 192.986C209.508 192.986 206.075 194.912 203.418 199.424C200.772 203.917 198.935 210.928 199.666 220.925C200.405 231.043 199.095 239.201 196.417 244.384C195.076 246.977 193.373 248.862 191.376 249.845C189.362 250.835 187.104 250.881 184.737 249.897C180.237 248.025 175.199 243.303 170.928 236.233C166.65 229.151 163.116 219.669 161.653 208.21C160.198 196.816 159.055 189.189 157.076 181.838C155.098 174.491 152.279 167.404 147.459 157.104C142.586 146.692 141.111 133.956 143.385 122.466C145.66 110.975 151.698 100.674 161.914 95.2295ZM190.81 105.969C197.332 105.646 202.203 104.178 205.596 102.685C208.379 101.46 210.147 100.233 211.075 99.5645C210.865 99.4362 210.655 99.31 210.446 99.1846L190.81 105.969Z" stroke="black"/>
<path d="M160.575 92.7178C168.548 88.4687 176.423 86.2061 184.843 86.5303C193.188 86.8516 202.023 89.7132 211.979 95.6221C221.933 89.7178 230.772 86.8592 239.119 86.5371C247.541 86.2123 255.417 88.4714 263.385 92.7178C272.193 97.4129 278.169 105.426 281.445 114.803C286.233 128.506 285.229 145.175 279.082 158.312C274.341 168.441 271.572 175.41 269.629 182.635C267.685 189.864 266.564 197.365 265.133 208.571C263.582 220.716 259.744 230.712 255.119 238.165C250.502 245.606 245.074 250.549 240.318 252.528C237.797 253.576 235.367 253.77 233.117 253.141C230.87 252.512 228.847 251.076 227.113 248.939C222.964 243.828 220.499 233.812 221.456 220.716C222.256 209.737 219.848 202.674 216.681 198.841C215.008 196.821 213.304 195.833 211.981 195.833C210.657 195.833 208.954 196.822 207.28 198.842L207.279 198.841C204.112 202.674 201.703 209.737 202.504 220.716C203.462 233.812 200.997 243.828 196.847 248.939C195.113 251.076 193.09 252.512 190.844 253.141C188.594 253.77 186.164 253.576 183.645 252.528H183.644C178.886 250.549 173.459 245.606 168.842 238.165C164.217 230.712 160.379 220.716 158.828 208.571C157.397 197.365 156.276 189.864 154.332 182.635C152.389 175.41 149.62 168.441 144.879 158.312C138.731 145.175 137.729 128.507 142.517 114.803C145.793 105.426 151.767 97.4129 160.575 92.7178ZM183.801 93.2959C176.902 93.1851 170.379 95.0785 163.723 98.626C156.687 102.377 151.878 108.768 149.1 116.281L148.837 117.012C144.676 128.921 145.481 143.401 150.693 154.926L150.944 155.473L151.842 157.403C156.213 166.877 158.876 173.704 160.784 180.781C162.819 188.326 163.991 196.141 165.47 207.725C167.132 220.742 171.577 231.032 176.665 237.904H176.666C179.848 242.198 183.201 245.092 186.214 246.346L186.425 246.429C187.476 246.817 188.436 246.81 189.309 246.494C190.249 246.154 191.134 245.437 191.925 244.366C193.354 242.432 194.447 239.61 195.157 236.049C195.926 232.191 196.21 227.543 195.9 222.269L195.829 221.205C194.863 207.996 198.133 199.399 202.121 194.576C205.272 190.766 209.008 189.139 211.981 189.139C214.954 189.139 218.689 190.766 221.84 194.576C225.703 199.249 228.893 207.464 228.21 219.98L228.132 221.205C227.449 230.572 228.577 238.003 230.962 242.617C231.839 244.313 232.865 245.531 233.993 246.181C235.097 246.816 236.339 246.93 237.746 246.346C240.759 245.092 244.113 242.198 247.295 237.904C252.384 231.032 256.83 220.742 258.491 207.725C259.971 196.141 261.143 188.326 263.177 180.781C265.212 173.232 268.107 165.968 273.017 155.473C278.453 143.861 279.351 129.11 275.124 117.013C272.391 109.183 267.501 102.498 260.238 98.627C253.064 94.8026 246.038 92.9014 238.526 93.3633C231.01 93.8255 222.959 96.656 213.744 102.376L213.745 102.377C213.306 102.65 211.109 104.483 207.106 106.241C203.212 107.951 197.579 109.615 190.003 109.854L189.264 109.873C188.376 109.889 187.518 109.552 186.879 108.937C186.24 108.321 185.87 107.476 185.853 106.589V106.588C185.837 105.701 186.174 104.843 186.789 104.204C187.405 103.565 188.249 103.195 189.137 103.178L189.897 103.157C197.026 102.915 202.12 101.206 205.426 99.6084C197.522 95.3822 190.467 93.403 183.801 93.2959ZM154.906 145.381C155.694 144.97 156.612 144.89 157.459 145.156C158.306 145.423 159.013 146.015 159.424 146.803L158.981 147.034L159.424 146.804V146.805C159.424 146.805 159.425 146.806 159.426 146.808C159.428 146.811 159.431 146.816 159.434 146.822C159.44 146.835 159.45 146.853 159.462 146.877C159.487 146.925 159.524 146.997 159.571 147.091C159.667 147.279 159.807 147.559 159.985 147.922C160.343 148.647 160.855 149.709 161.474 151.055C162.712 153.747 164.379 157.58 166.099 162.146C169.535 171.269 173.191 183.346 174.029 195.096C174.061 195.534 174.005 195.975 173.866 196.392C173.728 196.809 173.509 197.194 173.221 197.526C172.933 197.859 172.582 198.131 172.189 198.328C171.845 198.5 171.474 198.611 171.093 198.657L170.929 198.674C170.044 198.736 169.169 198.444 168.499 197.862C167.871 197.317 167.47 196.558 167.37 195.736L167.354 195.571C166.563 184.5 163.101 173.085 159.826 164.423C158.19 160.095 156.603 156.461 155.426 153.91C154.837 152.635 154.351 151.631 154.013 150.946C153.844 150.604 153.711 150.342 153.621 150.165C153.576 150.077 153.543 150.009 153.52 149.965C153.508 149.943 153.499 149.926 153.493 149.915C153.491 149.91 153.489 149.906 153.487 149.903C153.487 149.902 153.486 149.901 153.485 149.9V149.899L153.484 149.898C153.074 149.111 152.993 148.193 153.26 147.346C153.526 146.499 154.119 145.791 154.906 145.381ZM228.828 103.501C248.896 96.4331 270.57 108.298 272.835 130.361L272.886 130.894L272.887 130.902H272.886C272.946 131.778 272.66 132.642 272.09 133.309C271.52 133.975 270.711 134.392 269.837 134.469C268.963 134.545 268.093 134.275 267.416 133.717C266.739 133.159 266.307 132.358 266.215 131.485L266.214 131.477C264.626 113.397 246.653 103.819 230.264 110.107H230.263C229.434 110.424 228.514 110.398 227.703 110.037C226.893 109.676 226.259 109.008 225.94 108.18L225.939 108.179C225.622 107.35 225.648 106.429 226.009 105.618C226.37 104.808 227.038 104.173 227.866 103.854L228.828 103.501Z" fill="black" stroke="black"/>
</svg>
