<svg width="35" height="35" viewBox="0 0 35 35" fill="none" xmlns="http://www.w3.org/2000/svg">
<path d="M29.1774 22.9611C27.0749 21.8996 24.7648 21.1687 22.49 20.7096C21.952 20.1322 21.5819 19.4188 21.4197 18.6464C22.8278 17.5451 23.9058 15.8933 24.4965 13.9255C26.1273 13.6786 26.5514 11.1726 25.9046 9.80036C28.8745 -3.21404 6.20547 -3.24104 9.1048 9.77199C8.42421 11.1436 8.8477 13.6834 10.4975 13.9268C11.0803 15.8946 12.1661 17.5465 13.5743 18.6477C13.4059 19.4541 13.0124 20.1963 12.4395 20.7883C11.3628 20.9766 10.7 21.1352 10.6857 21.1507C6.27445 22.3649 2.35978 23.7296 2.89722 29.1599C2.67328 36.9379 32.3179 36.9452 32.1059 29.1601C32.3389 26.71 31.5478 24.0783 29.1774 22.9611ZM17.5163 1.07032C22.6337 0.99984 25.6475 4.36558 24.9839 8.90799C24.6813 8.76225 24.3179 8.75589 23.9922 8.82931C23.8633 8.44247 23.6531 7.82217 23.292 6.8151C23.2462 6.72589 23.1712 6.64516 23.1115 6.56368C18.5 3.49544 16.575 9.18464 12.4343 6.54693C12.4098 6.53148 12.393 6.51726 12.3711 6.50051C12.1596 6.44658 11.9226 6.4824 11.7883 6.67333C11.3597 7.53643 11.1345 8.49305 10.9927 8.82938C10.6799 8.74933 10.3368 8.75596 10.041 8.89255C9.37721 4.35396 12.4006 1.00128 17.5163 1.07032ZM11.395 13.2034C11.1323 12.539 10.6965 13.0115 10.4111 12.7933C9.76372 12.3533 9.6028 10.1034 10.4344 9.86735C10.8668 9.72509 11.2487 10.2761 11.6542 9.96018C11.7678 9.87069 11.8437 9.74185 11.867 9.59911C11.9057 9.425 12.1804 8.62294 12.4808 7.7938C17.2003 9.9597 18.2154 5.02252 22.3636 7.34762C22.9105 8.68282 22.9223 9.39102 23.3384 9.95895C23.7425 10.2768 24.1272 9.72017 24.5584 9.86605C24.8898 9.95888 25.2032 10.5894 25.1258 11.4393C25.0613 12.1472 24.7944 12.5998 24.5829 12.792C24.2757 12.9914 23.8092 12.541 23.599 13.2021C21.7183 20.8429 13.2682 20.8448 11.395 13.2034ZM14.5195 19.2782C15.4274 19.7938 16.4536 20.0648 17.4976 20.0648C18.5417 20.0648 19.5679 19.7938 20.4758 19.2782C20.7044 20.072 21.1166 20.8009 21.6789 21.4059C21.4042 22.2712 19.4274 23.9089 17.5008 25.1042C15.5665 23.9088 13.5897 22.2673 13.3215 21.4059C13.8814 20.7999 14.2916 20.0712 14.5195 19.2782ZM3.95959 29.1598C3.56537 24.83 5.93894 23.7563 9.57675 22.5678C9.40915 23.2625 9.28 23.9659 9.18991 24.6748C6.93412 25.3555 7.05607 27.4313 7.41038 29.3338C6.91532 30.0069 7.7521 30.9234 8.46653 30.4828C8.99912 30.192 8.97868 29.3712 8.44199 29.0979C8.24163 27.7035 7.86011 25.9799 9.76946 25.6963C11.5786 25.6163 11.6122 27.3688 11.7496 28.6943C11.2857 29.0953 11.4949 29.8949 12.0863 30.0374C12.8643 30.2741 13.4527 29.2092 12.8109 28.6943C12.6939 26.9046 12.4148 24.9085 10.2615 24.6194C10.3783 23.8102 10.5458 23.0091 10.7631 22.2209C11.108 22.1303 11.2668 22.0782 12.3841 21.8741C13.0688 23.4795 15.9187 25.3687 16.9721 26.0134V33.9285C10.7788 33.6748 3.96472 32.408 3.95959 29.1598ZM31.0394 29.1598C31.0378 32.4015 24.2253 33.6764 18.0243 33.9284V26.0134C19.0946 25.3518 21.9832 23.4343 22.6292 21.8276C23.1516 21.9267 23.6565 22.0563 24.1547 22.1887C24.4575 23.2965 24.6629 24.4287 24.7685 25.5724C22.3024 26.4599 23.56 30.1496 26.0546 29.3464C27.9406 28.7689 27.7616 25.8659 25.831 25.5104C25.7371 24.5117 25.5738 23.5206 25.3423 22.5445C28.9987 23.7252 31.4478 24.8048 31.0394 29.1598ZM25.4133 26.5176C26.6249 26.5296 26.6279 28.3679 25.4124 28.3737C24.1962 28.3653 24.2043 26.5275 25.4159 26.5176H25.4133Z" fill="#1B8976"/>
</svg>
