<svg width="80" height="100" viewBox="0 0 80 100" fill="none" xmlns="http://www.w3.org/2000/svg">
<path d="M3.60954 50.9441C2.56118 47.4783 2 43.8029 2 39.9979C2 19.0451 19.0451 2 40 2C60.9549 2 78 19.0451 78 39.9979C78 54.4777 69.8619 67.0909 57.9188 73.5023M6.33939 57.6207C9.87915 64.3569 15.382 69.905 22.0813 73.5023" stroke="#1B8976" stroke-width="3" stroke-miterlimit="10" stroke-linecap="round" stroke-linejoin="round"/>
<path d="M50.3781 47.6816L57.8634 28.0279C58.0163 27.654 58.5456 27.6533 58.6994 28.027L66.1166 47.6816M52.7126 42.7867H63.8199M21.9634 27.7471H13.8838V47.6816M13.8838 37.5256H21.3216M55.3331 89.513C57.4483 86.4851 58.6879 82.8035 58.6879 78.83C58.6879 68.5067 50.3215 60.1404 40.0003 60.1404C29.6791 60.1404 21.3128 68.5067 21.3128 78.83C21.3128 89.1512 29.6791 97.5175 40.0003 97.5175C43.7415 97.5175 47.2258 96.4178 50.1489 94.5225M44.2795 37.7143C44.2795 43.2069 41.231 47.5531 36.3946 47.6376C34.7846 47.6657 30.6239 47.6816 30.6239 47.6816L30.5834 27.7471H36.2291C41.5342 27.7471 44.2795 32.2217 44.2795 37.7143Z" stroke="#1B8976" stroke-width="3" stroke-miterlimit="10" stroke-linecap="round" stroke-linejoin="round"/>
<path d="M49.6101 71.6922C48.2871 70.488 46.2264 70.6044 44.9614 71.8694L37.6901 79.1407L35.0389 76.4896C33.7739 75.2245 31.7134 75.1082 30.3902 76.3124C28.9776 77.5979 28.9387 79.7868 30.2738 81.1219L34.7368 85.5848C36.3677 87.2157 39.012 87.2157 40.6429 85.5848L49.7261 76.5017C51.0614 75.1664 51.0227 72.9778 49.6101 71.6922Z" stroke="#1B8976" stroke-width="3" stroke-miterlimit="10" stroke-linecap="round" stroke-linejoin="round"/>
</svg>
