<svg width="256" height="320" viewBox="0 0 256 320" fill="none" xmlns="http://www.w3.org/2000/svg">
<path d="M10.2099 163.425C6.81646 152.207 5 140.31 5 127.994C5 60.1725 60.1725 5 128 5C195.828 5 251.001 60.1725 251.001 127.994C251.001 174.862 224.659 215.69 186.001 236.442M19.046 185.036C30.5036 206.84 48.3156 224.798 70 236.442" stroke="#1B8976" stroke-opacity="0.2" stroke-width="10" stroke-miterlimit="10" stroke-linecap="round" stroke-linejoin="round"/>
<path d="M161.591 152.866L185.82 89.2497C186.315 88.0394 188.029 88.0374 188.526 89.2471L212.535 152.866M169.148 137.022H205.101M69.6172 88.3408H43.4648V152.866M43.4648 119.992H67.5399M177.63 288.268C184.477 278.467 188.489 266.55 188.489 253.689C188.489 220.274 161.408 193.193 128 193.193C94.5919 193.193 67.5113 220.274 67.5113 253.689C67.5113 287.097 94.5919 314.178 128 314.178C140.11 314.178 151.388 310.618 160.849 304.483M141.851 120.603C141.851 138.382 131.984 152.45 116.329 152.723C111.118 152.815 97.65 152.866 97.65 152.866L97.5189 88.3408H115.793C132.965 88.3408 141.851 102.825 141.851 120.603Z" stroke="#1B8976" stroke-opacity="0.2" stroke-width="10" stroke-miterlimit="10" stroke-linecap="round" stroke-linejoin="round"/>
<path d="M159.107 230.582C154.824 226.685 148.154 227.061 144.059 231.156L120.523 254.692L111.942 246.111C107.847 242.016 101.177 241.639 96.8944 245.537C92.3219 249.698 92.1962 256.783 96.5178 261.105L110.964 275.551C116.243 280.83 124.802 280.83 130.081 275.551L159.482 246.15C163.804 241.828 163.679 234.744 159.107 230.582Z" stroke="#1B8976" stroke-opacity="0.2" stroke-width="10" stroke-miterlimit="10" stroke-linecap="round" stroke-linejoin="round"/>
</svg>
