<svg width="244" height="310" viewBox="0 0 244 310" fill="none" xmlns="http://www.w3.org/2000/svg">
<g opacity="0.9">
<path d="M121.698 80.409C143.363 80.409 160.926 62.6327 160.926 40.7045C160.926 18.7763 143.363 1 121.698 1C100.032 1 82.4692 18.7763 82.4692 40.7045C82.4692 62.6327 100.032 80.409 121.698 80.409Z" stroke="#1B8976" stroke-miterlimit="10"/>
<path d="M163.511 47.7616C163.583 24.487 145 5.56005 122.004 5.48696C99.0074 5.41388 80.3067 24.2224 80.2344 47.4969C80.1621 70.7714 98.7456 89.6984 121.742 89.7715C144.738 89.8446 163.439 71.0361 163.511 47.7616Z" stroke="#1B8976" stroke-miterlimit="10"/>
<path d="M121.754 98.5743C146.271 98.531 166.112 78.3715 166.069 53.5468C166.026 28.7221 146.116 8.63273 121.599 8.67601C97.0813 8.7193 77.2408 28.8788 77.2836 53.7036C77.3264 78.5283 97.2364 98.6176 121.754 98.5743Z" stroke="#1B8976" stroke-miterlimit="10"/>
<path d="M121.838 108.021C148.044 107.965 169.244 86.411 169.189 59.8777C169.134 33.3445 147.845 11.8801 121.639 11.9356C95.4324 11.9911 74.2325 33.5455 74.2875 60.0788C74.3424 86.6121 95.6314 108.077 121.838 108.021Z" stroke="#1B8976" stroke-miterlimit="10"/>
<path d="M121.697 117.84C149.727 117.84 172.449 94.8351 172.449 66.4575C172.449 38.0798 149.727 15.0752 121.697 15.0752C93.6678 15.0752 70.9453 38.0798 70.9453 66.4575C70.9453 94.8351 93.6678 117.84 121.697 117.84Z" stroke="#1B8976" stroke-miterlimit="10"/>
<path d="M121.697 127.796C151.651 127.796 175.933 103.214 175.933 72.8899C175.933 42.5661 151.651 17.9839 121.697 17.9839C91.744 17.9839 67.4619 42.5661 67.4619 72.8899C67.4619 103.214 91.744 127.796 121.697 127.796Z" stroke="#1B8976" stroke-miterlimit="10"/>
<path d="M121.697 137.937C153.675 137.937 179.598 111.695 179.598 79.3228C179.598 46.951 153.675 20.7085 121.697 20.7085C89.7191 20.7085 63.7959 46.951 63.7959 79.3228C63.7959 111.695 89.7191 137.937 121.697 137.937Z" stroke="#1B8976" stroke-miterlimit="10"/>
<path d="M181.785 84.3622C181.785 49.8745 154.166 21.9167 120.097 21.9167C86.0274 21.9167 58.4087 49.8745 58.4087 84.3622C58.4087 118.85 86.0274 146.808 120.097 146.808C154.166 146.808 181.785 118.85 181.785 84.3622Z" stroke="#1B8976" stroke-miterlimit="10"/>
<path d="M178.586 125.215C172.13 136.596 162.484 145.785 150.866 151.621C139.249 157.458 126.182 159.678 113.317 158.003C100.452 156.328 88.3666 150.832 78.5887 142.21C68.8108 133.588 61.7793 122.227 58.3829 109.563C54.9865 96.8993 55.3777 83.501 59.5071 71.062C63.6365 58.623 71.3187 47.7018 81.5826 39.6787C91.8466 31.6556 104.231 26.8909 117.172 25.9868C130.112 25.0828 143.027 28.08 154.283 34.5996C161.768 38.9282 168.335 44.7076 173.608 51.6071C178.882 58.5066 182.758 66.3906 185.016 74.8076C187.273 83.2247 187.867 92.0096 186.764 100.659C185.661 109.309 182.882 117.653 178.586 125.215Z" stroke="#1B8976" stroke-miterlimit="10"/>
<path d="M121.697 169.038C160.118 169.038 191.263 137.512 191.263 98.623C191.263 59.7339 160.118 28.208 121.697 28.208C83.2767 28.208 52.1309 59.7339 52.1309 98.623C52.1309 137.512 83.2767 169.038 121.697 169.038Z" stroke="#1B8976" stroke-miterlimit="10"/>
<path d="M121.698 179.609C162.355 179.609 195.314 146.239 195.314 105.076C195.314 63.9125 162.355 30.543 121.698 30.543C81.0403 30.543 48.0811 63.9125 48.0811 105.076C48.0811 146.239 81.0403 179.609 121.698 179.609Z" stroke="#1B8976" stroke-miterlimit="10"/>
<path d="M121.697 190.22C164.636 190.22 199.445 154.979 199.445 111.507C199.445 68.0357 164.636 32.7949 121.697 32.7949C78.7578 32.7949 43.9487 68.0357 43.9487 111.507C43.9487 154.979 78.7578 190.22 121.697 190.22Z" stroke="#1B8976" stroke-miterlimit="10"/>
<path d="M121.697 200.895C166.951 200.895 203.637 163.755 203.637 117.942C203.637 72.1278 166.951 34.9883 121.697 34.9883C76.4424 34.9883 39.7563 72.1278 39.7563 117.942C39.7563 163.755 76.4424 200.895 121.697 200.895Z" stroke="#1B8976" stroke-miterlimit="10"/>
<path d="M121.697 211.609C169.278 211.609 207.85 172.552 207.85 124.374C207.85 76.1951 169.278 37.1387 121.697 37.1387C74.1163 37.1387 35.5444 76.1951 35.5444 124.374C35.5444 172.552 74.1163 211.609 121.697 211.609Z" stroke="#1B8976" stroke-miterlimit="10"/>
<path d="M121.698 222.345C171.639 222.345 212.124 181.362 212.124 130.808C212.124 80.2528 171.639 39.27 121.698 39.27C71.7567 39.27 31.2715 80.2528 31.2715 130.808C31.2715 181.362 71.7567 222.345 121.698 222.345Z" stroke="#1B8976" stroke-miterlimit="10"/>
<path d="M121.697 233.142C174.009 233.142 216.417 190.206 216.417 137.241C216.417 84.2763 174.009 41.3398 121.697 41.3398C69.385 41.3398 26.9775 84.2763 26.9775 137.241C26.9775 190.206 69.385 233.142 121.697 233.142Z" stroke="#1B8976" stroke-miterlimit="10"/>
<path d="M121.698 243.96C176.403 243.96 220.751 199.061 220.751 143.675C220.751 88.2886 176.403 43.3892 121.698 43.3892C66.9918 43.3892 22.644 88.2886 22.644 143.675C22.644 199.061 66.9918 243.96 121.698 243.96Z" stroke="#1B8976" stroke-miterlimit="10"/>
<path d="M121.698 254.818C178.819 254.818 225.126 207.947 225.126 150.128C225.126 92.309 178.819 45.4375 121.698 45.4375C64.5758 45.4375 18.2695 92.309 18.2695 150.128C18.2695 207.947 64.5758 254.818 121.698 254.818Z" stroke="#1B8976" stroke-miterlimit="10"/>
<path d="M121.697 265.697C181.235 265.697 229.499 216.836 229.499 156.561C229.499 96.2871 181.235 47.4253 121.697 47.4253C62.1593 47.4253 13.8945 96.2871 13.8945 156.561C13.8945 216.836 62.1593 265.697 121.697 265.697Z" stroke="#1B8976" stroke-miterlimit="10"/>
<path d="M121.697 276.575C183.662 276.575 233.895 225.723 233.895 162.993C233.895 100.264 183.662 49.4116 121.697 49.4116C59.7325 49.4116 9.5 100.264 9.5 162.993C9.5 225.723 59.7325 276.575 121.697 276.575Z" stroke="#1B8976" stroke-miterlimit="10"/>
<path d="M121.697 287.495C186.112 287.495 238.33 234.634 238.33 169.427C238.33 104.219 186.112 51.3584 121.697 51.3584C57.2831 51.3584 5.06494 104.219 5.06494 169.427C5.06494 234.634 57.2831 287.495 121.697 287.495Z" stroke="#1B8976" stroke-miterlimit="10"/>
<path d="M121.698 298.415C188.561 298.415 242.765 243.545 242.765 175.859C242.765 108.174 188.561 53.3042 121.698 53.3042C54.8338 53.3042 0.629883 108.174 0.629883 175.859C0.629883 243.545 54.8338 298.415 121.698 298.415Z" stroke="#1B8976" stroke-miterlimit="10"/>
<path d="M121.753 309.65C188.716 309.65 243 252.64 243 182.314C243 111.988 188.716 54.9775 121.753 54.9775C54.7901 54.9775 0.505859 111.988 0.505859 182.314C0.505859 252.64 54.7901 309.65 121.753 309.65Z" stroke="#1B8976" stroke-miterlimit="10"/>
</g>
</svg>
