<svg width="309" height="309" viewBox="0 0 309 309" fill="none" xmlns="http://www.w3.org/2000/svg">
<g opacity="0.9">
<path d="M242.026 242.028C263.127 220.927 240.937 164.526 192.463 116.052C143.99 67.5786 87.5888 45.3888 66.4879 66.4897C45.3869 87.5906 67.5768 143.992 116.05 192.465C164.524 240.939 220.925 263.129 242.026 242.028Z" stroke="#1B8976" stroke-width="2" stroke-miterlimit="10"/>
<path d="M230.709 253.347C251.81 232.246 229.62 175.845 181.147 127.371C132.673 78.8979 76.2719 56.7081 55.171 77.809C34.0701 98.9099 56.2599 155.311 104.733 203.785C153.207 252.258 209.608 274.448 230.709 253.347Z" stroke="#1B8976" stroke-width="2" stroke-miterlimit="10"/>
<path d="M247.674 236.385C268.775 215.284 246.585 158.882 198.111 110.409C149.638 61.9355 93.2367 39.7457 72.1358 60.8466C51.0349 81.9475 73.2247 138.349 121.698 186.822C170.172 235.296 226.573 257.486 247.674 236.385Z" stroke="#1B8976" stroke-width="2" stroke-miterlimit="10"/>
<path d="M258.977 225.051C280.078 203.95 257.888 147.548 209.415 99.075C160.941 50.6015 104.54 28.4117 83.439 49.5126C62.3381 70.6136 84.5279 127.015 133.001 175.488C181.475 223.962 237.876 246.152 258.977 225.051Z" stroke="#1B8976" stroke-width="2" stroke-miterlimit="10"/>
<path d="M264.652 219.389C285.753 198.288 263.563 141.886 215.089 93.4129C166.616 44.9394 110.215 22.7496 89.1138 43.8505C68.0129 64.9515 90.2027 121.353 138.676 169.826C187.15 218.3 243.551 240.489 264.652 219.389Z" stroke="#1B8976" stroke-width="2" stroke-miterlimit="10"/>
<path d="M253.335 230.708C274.436 209.607 252.246 153.206 203.773 104.733C155.299 56.2592 98.8979 34.0694 77.797 55.1703C56.696 76.2713 78.8858 132.672 127.359 181.146C175.833 229.619 232.234 251.809 253.335 230.708Z" stroke="#1B8976" stroke-width="2" stroke-miterlimit="10"/>
<path d="M236.351 247.671C257.452 226.57 235.262 170.169 186.789 121.696C138.315 73.2221 81.914 51.0323 60.813 72.1332C39.7121 93.2342 61.902 149.635 110.375 198.109C158.849 246.582 215.25 268.772 236.351 247.671Z" stroke="#1B8976" stroke-width="2" stroke-miterlimit="10"/>
<path d="M213.745 270.31C234.846 249.209 212.656 192.808 164.182 144.334C115.709 95.8608 59.3075 73.671 38.2066 94.7719C17.1057 115.873 39.2955 172.274 87.769 220.748C136.242 269.221 192.644 291.411 213.745 270.31Z" stroke="#1B8976" stroke-width="2" stroke-miterlimit="10"/>
<path d="M225.062 258.991C246.162 237.89 223.973 181.488 175.499 133.015C127.026 84.5415 70.6244 62.3516 49.5235 83.4526C28.4226 104.554 50.6124 160.955 99.0859 209.428C147.559 257.902 203.961 280.092 225.062 258.991Z" stroke="#1B8976" stroke-width="2" stroke-miterlimit="10"/>
<path d="M219.387 264.634C240.488 243.533 218.298 187.132 169.824 138.659C121.351 90.1851 64.9496 67.9952 43.8487 89.0961C22.7478 110.197 44.9376 166.598 93.4111 215.072C141.885 263.545 198.286 285.735 219.387 264.634Z" stroke="#1B8976" stroke-width="2" stroke-miterlimit="10"/>
<path d="M270.299 213.744C291.4 192.644 269.21 136.242 220.737 87.7689C172.263 39.2954 115.862 17.1056 94.7613 38.2065C73.6604 59.3074 95.8502 115.709 144.324 164.182C192.797 212.656 249.198 234.845 270.299 213.744Z" stroke="#1B8976" stroke-width="2" stroke-miterlimit="10"/>
</g>
</svg>
