<svg width="264" height="264" viewBox="0 0 264 264" fill="none" xmlns="http://www.w3.org/2000/svg">
<g opacity="0.9">
<path d="M131.991 263.168C204.345 263.168 263 204.478 263 132.079C263 59.6804 204.345 0.989746 131.991 0.989746C59.6371 0.989746 0.982422 59.6804 0.982422 132.079C0.982422 204.478 59.6371 263.168 131.991 263.168Z" stroke="#1B8976" stroke-miterlimit="10"/>
<path d="M259.997 129.258C260.133 135.7 259.83 142.145 259.09 148.546C257.234 164.006 252.336 178.946 244.679 192.505C239.702 201.092 233.926 209.19 227.426 216.691C220.989 224.293 213.629 231.064 205.517 236.846C195.772 243.796 184.991 249.163 173.571 252.748C165.659 255.221 157.514 256.876 149.264 257.686C143.905 258.181 138.521 258.363 133.14 258.231C125.811 258.102 118.501 257.428 111.272 256.215C107.133 255.53 103.068 254.663 99.0777 253.615C80.0621 248.893 62.4924 239.585 47.9037 226.506C43.3994 222.368 39.1649 217.945 35.2261 213.264C30.5119 207.698 26.2075 201.797 22.3469 195.608C18.5289 189.437 15.2321 182.958 12.491 176.239C10.1672 170.569 8.31341 164.718 6.94831 158.745C4.88826 149.615 3.94748 140.268 4.14674 130.91C4.30112 123.474 5.03565 116.061 6.34365 108.74C9.54135 89.2113 17.1213 70.6612 28.5144 54.4818C36.4717 43.5266 46.2149 33.9878 57.3363 26.2645C68.4321 18.5238 80.6742 12.5727 93.6157 8.62874C106.219 4.79303 119.302 2.75739 132.475 2.58218C153.764 2.26604 174.782 7.37972 193.547 17.4407C212.311 27.5017 228.202 42.1782 239.721 60.0849C252.815 80.7929 259.839 104.758 259.997 129.258Z" stroke="#1B8976" stroke-miterlimit="10"/>
<path d="M256.994 126.415C257.282 132.724 257.174 139.045 256.671 145.341C255.236 160.664 250.535 175.502 242.885 188.856C237.869 197.31 232.251 205.393 226.076 213.042C220.11 220.71 213.149 227.549 205.376 233.379C195.895 240.465 185.238 245.821 173.894 249.201C166.094 251.498 158.064 252.924 149.95 253.453C144.673 253.746 139.384 253.746 134.108 253.453C126.941 253.131 119.799 252.377 112.723 251.196C108.692 250.511 104.661 249.725 100.771 248.757C82.0467 244.101 64.4915 235.838 50.6651 222.717C46.3459 218.574 42.2615 214.194 38.4309 209.596C33.8232 204.155 29.5492 198.441 25.6323 192.484C21.7695 186.59 18.3989 180.388 15.5547 173.941C13.1319 168.48 11.2223 162.806 9.8508 156.991C7.79772 148.068 6.95037 138.909 7.3314 129.761C7.63787 122.49 8.45958 115.249 9.79034 108.094C13.378 88.4227 19.6866 70.3636 30.7719 54.6224C38.5369 43.7775 48.1824 34.4119 59.2512 26.9695C70.2725 19.5563 82.3744 13.8928 95.1275 10.1802C107.548 6.54045 120.384 4.50836 133.322 4.13363C153.979 3.51001 174.446 8.2444 192.73 17.876C211.015 27.5077 226.496 41.7086 237.665 59.0969C250.02 78.587 256.228 101.766 256.994 126.415Z" stroke="#1B8976" stroke-miterlimit="10"/>
<path d="M254.011 123.594C254.416 129.766 254.49 135.956 254.233 142.136C253.266 157.304 248.796 172.04 241.172 185.188C236.12 193.455 230.651 201.461 224.786 209.173C219.3 216.887 212.752 223.788 205.336 229.67C196.113 236.893 185.57 242.246 174.297 245.432C166.56 247.582 158.599 248.82 150.574 249.12C145.411 249.252 140.245 249.125 135.095 248.737C128.061 248.254 120.986 247.427 114.174 246.298C110.143 245.654 106.293 244.928 102.444 244.041C84.1428 239.768 66.6481 232.25 53.3255 219.089C49.1735 215.058 45.2634 210.624 41.5145 206.089C37.0199 200.707 32.6664 195.205 28.7765 189.521C24.9559 183.883 21.5862 177.953 18.6989 171.785C16.1725 166.544 14.2065 161.052 12.8337 155.398C10.7717 146.663 10.0177 137.67 10.5965 128.713C11.0379 121.624 11.9197 114.57 13.2368 107.59C16.8446 88.2414 22.1857 70.5049 32.9486 54.8645C40.4903 44.1655 50.0061 35.0054 60.9845 27.8766C71.9001 20.7709 83.8441 15.387 96.3971 11.9137C108.631 8.4865 121.215 6.45801 133.906 5.86717C154.029 4.92462 174.042 9.32642 191.913 18.6253C209.65 27.7639 224.64 41.453 235.347 58.2907C247.36 77.1358 252.842 99.7097 254.011 123.594Z" stroke="#1B8976" stroke-miterlimit="10"/>
<path d="M251.008 120.773C251.411 127.041 251.955 132.866 251.794 138.912C251.315 153.93 247.073 168.587 239.459 181.541C234.34 190.106 228.696 197.665 223.516 205.364C218.542 213.122 212.427 220.087 205.377 226.023C196.419 233.382 185.985 238.729 174.781 241.704C167.135 243.711 159.266 244.74 151.361 244.767C146.362 244.767 141.283 244.384 136.204 243.921C129.392 243.296 122.539 242.389 115.787 241.321C111.877 240.696 108.027 240.031 104.278 239.205C86.3804 235.315 68.9663 228.542 56.1073 215.341C52.0763 211.31 48.4484 206.956 44.7398 202.502C40.346 197.201 35.9723 191.88 32.0823 186.378C28.2137 181.014 24.7637 175.361 21.7629 169.468C19.1543 164.433 17.1258 159.118 15.7163 153.626C13.6295 145.059 12.9488 136.209 13.7008 127.424C14.3081 120.462 15.2972 113.538 16.6636 106.684C20.2915 87.6778 24.7257 70.2637 35.1258 54.7442C42.4532 44.1803 51.8467 35.2119 62.7384 28.3812C73.562 21.6144 85.3442 16.5183 97.6875 13.2648C109.732 10.0355 122.067 8.01 134.511 7.21825C153.985 5.99067 173.43 10.0286 190.805 18.9082C208.134 27.5851 222.768 40.8254 233.13 57.2031C244.679 75.6854 249.476 97.6344 251.008 120.773Z" stroke="#1B8976" stroke-miterlimit="10"/>
<path d="M248.005 117.951C248.529 124.118 249.315 129.862 249.355 135.707C249.354 150.56 245.335 165.137 237.725 177.892C232.586 186.377 227.003 193.754 222.226 201.554C217.731 209.401 211.993 216.466 205.235 222.475C196.528 229.986 186.169 235.331 175.002 238.076C167.463 239.889 159.715 240.682 151.965 240.434C147.047 240.293 142.21 239.688 137.131 239.103C130.52 238.338 123.828 237.37 117.197 236.322C113.368 235.717 109.599 235.133 105.91 234.307C88.4358 230.759 71.1024 224.773 58.7069 211.531C54.9177 207.5 51.3906 203.187 47.7828 198.813C43.4897 193.613 39.1161 188.494 35.1858 183.314C31.3061 178.205 27.8097 172.815 24.7253 167.19C22.0156 162.367 19.9296 157.22 18.5175 151.872C16.4673 143.523 15.9145 134.877 16.8849 126.335C17.5702 119.482 18.9004 112.771 20.1097 106.059C23.7578 87.3953 27.164 70.2835 37.3021 54.9051C44.4111 44.458 53.7012 35.6769 64.5318 29.167C75.2547 22.7244 86.8774 17.915 99.0173 14.8971C110.878 11.8628 122.974 9.83335 135.176 8.83032C153.966 7.26175 172.827 10.8653 189.716 19.2505C206.617 27.4512 220.872 40.2393 230.852 56.1547C242.039 74.2339 246.11 95.4977 248.005 117.951Z" stroke="#1B8976" stroke-miterlimit="10"/>
<path d="M245.002 115.129C245.626 121.176 246.695 126.759 247.017 132.483C247.51 147.16 243.722 161.663 236.113 174.224C230.933 182.669 225.431 189.864 221.037 197.765C217.038 205.608 211.713 212.7 205.296 218.727C196.877 226.351 186.651 231.7 175.587 234.266C168.114 235.956 160.438 236.567 152.792 236.08C147.974 235.798 143.258 234.992 138.3 234.287C131.891 233.359 125.34 232.271 118.83 231.324C115.081 230.759 111.393 230.235 107.765 229.57C90.7136 226.386 73.501 221.166 61.549 207.883C57.9412 203.852 54.5753 199.579 51.0481 195.286C46.8558 190.167 42.4822 185.209 38.5317 180.351C34.6377 175.509 31.082 170.405 27.8898 165.074C25.103 160.465 22.9665 155.493 21.5409 150.3C19.4857 142.141 19.0271 133.661 20.1905 125.328C20.9967 118.656 22.3673 112.126 23.6773 105.535C27.3456 87.1737 29.7239 70.4046 39.6 55.1471C46.5017 44.8308 55.6884 36.2443 66.4467 30.054C77.0629 23.9308 88.5183 19.3948 100.449 16.5902C112.093 13.7406 123.918 11.6868 135.841 10.4429C153.961 8.56678 172.245 11.7701 188.648 19.6942C205.088 27.4395 218.944 39.7633 228.555 55.1875C239.378 72.7628 242.764 93.4823 245.002 115.129Z" stroke="#1B8976" stroke-miterlimit="10"/>
<path d="M241.998 112.286C242.744 118.333 244.014 123.654 244.478 129.277C245.452 143.766 241.895 158.199 234.299 170.575C229.079 178.94 223.637 185.954 219.667 193.955C216.166 201.827 211.247 208.987 205.155 215.078C197.013 222.833 186.884 228.183 175.889 230.537C168.496 232.077 160.912 232.484 153.396 231.746C148.68 231.283 144.085 230.295 139.288 229.469C133.08 228.4 126.691 227.292 120.301 226.345C116.653 225.8 113.025 225.337 109.478 224.732C92.8299 221.931 75.6375 217.476 64.2095 204.134C60.7831 200.103 57.5784 195.91 54.1319 191.678C50.1008 186.659 45.6667 181.943 41.676 177.287C37.7673 172.713 34.1651 167.885 30.8929 162.836C28.0064 158.451 25.8044 153.653 24.3627 148.606C22.3192 140.638 21.9623 132.332 23.3146 124.218C24.2619 117.708 25.7332 111.339 27.0634 104.869C30.7518 86.8506 32.2232 70.424 41.7364 55.2673C48.4099 45.0868 57.4661 36.688 68.1196 30.799C78.6401 24.9999 89.9428 20.7503 101.678 18.1818C113.155 15.5358 124.759 13.4773 136.446 12.0144C153.883 9.82475 171.584 12.62 187.499 20.0764C203.552 27.3335 217.074 39.2144 226.338 54.1992C236.718 71.3109 239.419 91.4661 241.998 112.286Z" stroke="#1B8976" stroke-miterlimit="10"/>
<path d="M238.996 109.465C239.862 115.33 241.414 120.551 242.039 126.073C243.514 140.357 240.188 154.725 232.586 166.908C227.326 175.212 221.944 182.044 218.377 190.147C215.031 197.745 211.665 204.86 205.095 211.43C197.246 219.322 187.215 224.685 176.293 226.829C168.98 228.198 161.495 228.389 154.122 227.393C149.486 226.789 145.032 225.62 140.275 224.652C134.229 223.443 128.041 222.274 121.793 221.347C118.205 220.823 114.638 220.44 111.171 219.916C94.9464 217.457 77.8144 213.869 66.8298 200.406C63.5849 196.374 60.5616 192.223 57.2158 188.091C53.1848 183.153 48.8514 178.618 44.8405 174.224C40.909 169.917 37.2536 165.367 33.8963 160.599C30.9263 156.437 28.6653 151.813 27.2047 146.914C25.1567 139.132 24.8949 130.988 26.4388 123.09C27.5272 116.761 29.1195 110.554 30.4699 104.205C34.1784 86.5287 34.7025 70.4246 43.8731 55.3888C50.3509 45.3276 59.3218 37.1136 69.9136 31.5453C80.3273 26.0795 91.4628 22.1165 102.988 19.7746C114.033 17.3157 125.784 15.3002 137.091 13.6071C153.847 11.1333 170.961 13.5332 186.391 20.5204C202.009 27.3247 215.164 38.7563 224.081 53.2726C234.058 69.8603 236.093 89.4511 238.996 109.465Z" stroke="#1B8976" stroke-miterlimit="10"/>
<path d="M235.992 106.643C236.959 112.408 238.773 117.467 239.6 122.768C241.556 136.814 238.463 151.099 230.872 163.078C225.592 171.321 220.251 177.952 217.086 186.156C214.184 193.754 211.382 200.929 204.993 207.601C197.418 215.603 187.48 220.97 176.635 222.919C169.391 224.159 161.99 224.159 154.746 222.919C150.211 222.133 145.898 220.782 141.242 219.694C135.438 218.343 129.351 217.094 123.224 216.227C119.717 215.723 116.23 215.401 112.823 214.937C97.0218 212.922 79.9705 209.959 69.51 196.536C66.4262 192.505 63.5843 188.474 60.3192 184.342C56.4292 179.504 52.0354 175.171 48.0245 171.019C44.066 166.975 40.3573 162.695 36.919 158.2C33.8557 154.272 31.5336 149.819 30.0662 145.059C28.0129 137.468 27.8469 129.49 29.5825 121.82C30.7918 115.653 32.5252 109.727 33.8554 103.419C37.6043 86.0649 37.1407 70.2834 45.9485 55.3686C52.2209 45.4391 61.0855 37.4108 71.5859 32.1498C81.9082 27.0234 92.8891 23.3473 104.217 21.2257C115.081 18.9482 126.61 16.9528 137.614 15.038C153.69 12.2617 170.228 14.2588 185.181 20.7822C200.371 27.1186 213.164 38.1048 221.722 52.1639C231.397 68.409 232.767 87.4355 235.992 106.643Z" stroke="#1B8976" stroke-miterlimit="10"/>
<path d="M233.009 103.822C234.077 109.485 236.133 114.363 237.161 119.644C239.621 133.5 236.741 147.774 229.099 159.591C223.778 167.794 218.497 174.224 215.756 182.528C213.257 190.106 211.04 197.362 204.953 204.114C197.68 212.26 187.821 217.648 177.038 219.372C169.856 220.469 162.533 220.244 155.432 218.706C151.018 217.759 146.825 216.247 142.27 215.018C136.506 213.442 130.65 212.224 124.735 211.37C121.309 210.886 117.903 210.624 114.658 210.261C99.2591 208.528 82.2682 206.432 72.3317 192.948C69.4294 188.917 66.7487 184.886 63.5843 180.855C59.7906 176.332 55.7037 172.063 51.3501 168.077C47.3699 164.303 43.6146 160.298 40.1035 156.084C36.9539 152.391 34.5697 148.109 33.0895 143.487C31.033 136.078 30.9635 128.257 32.888 120.813C34.2384 114.766 36.0725 108.961 37.4229 102.874C41.1919 85.8634 39.7811 70.4045 48.3067 55.5904C54.3508 45.8 63.0918 37.9618 73.4805 33.0165C83.6851 28.221 94.4926 24.831 105.608 22.9389C116.29 20.9234 127.638 18.9079 138.34 16.7311C153.749 13.6498 169.727 15.2576 184.213 21.3467C198.969 27.2117 211.399 37.7448 219.606 51.3377C228.736 66.9378 229.462 85.4201 233.009 103.822Z" stroke="#1B8976" stroke-miterlimit="10"/>
<path d="M230.006 101C231.195 106.563 233.513 111.259 234.743 116.419C236.216 123.164 236.329 130.136 235.077 136.926C233.824 143.716 231.23 150.188 227.446 155.963C222.085 164.025 216.845 170.314 214.527 178.759C212.511 186.297 210.818 193.633 204.953 200.486C197.975 208.746 188.206 214.154 177.502 215.683C170.385 216.63 163.152 216.199 156.198 214.413C151.864 213.305 147.813 211.592 143.359 210.241C137.784 208.524 132.083 207.25 126.308 206.432C122.962 205.968 119.636 205.767 116.371 205.485C101.396 204.094 84.4654 202.804 74.9723 189.239C72.2514 185.329 69.7521 181.177 66.6683 177.308C62.9922 172.893 58.9465 168.8 54.5752 165.073C50.5587 161.577 46.7369 157.863 43.1271 153.948C39.8955 150.475 37.4424 146.352 35.9317 141.855C33.8398 134.612 33.8398 126.926 35.9317 119.684C37.4232 113.859 39.3782 108.155 40.7286 102.189C44.5178 85.5208 42.1395 70.3842 50.3427 55.6911C55.8047 45.9158 65.2172 38.5188 75.194 33.7622C85.2986 29.2877 95.9533 26.1768 106.878 24.511C117.379 22.6165 128.505 20.6815 138.925 18.283C153.619 14.9334 168.984 16.1283 182.984 21.7094C197.317 27.0941 209.397 37.1848 217.248 50.3298C226.076 65.4866 226.156 83.2633 230.006 101Z" stroke="#1B8976" stroke-miterlimit="10"/>
<path d="M227.003 98.1574C228.333 103.619 230.873 108.235 232.304 113.213C234.018 119.82 234.319 126.714 233.186 133.445C232.054 140.176 229.515 146.592 225.733 152.274C220.332 160.336 215.132 166.383 213.257 174.928C211.584 182.466 210.536 189.864 204.913 196.817C198.235 205.206 188.528 210.635 177.885 211.933C170.834 212.737 163.692 212.085 156.903 210.019C152.671 208.749 148.841 206.875 144.407 205.403C139.026 203.51 133.469 202.16 127.819 201.372C124.554 200.949 121.309 200.808 118.125 200.586C103.552 199.578 86.6824 199.054 77.6932 185.45C75.1133 181.56 72.7955 177.387 69.7924 173.639C66.1976 169.315 62.1427 165.395 57.6993 161.948C53.6682 158.71 49.813 155.259 46.1503 151.609C42.8523 148.384 40.3359 144.448 38.7937 140.1C36.748 133.051 36.8815 125.547 39.1766 118.575C40.7891 112.931 42.8651 107.388 44.2356 101.564C48.0449 85.1976 44.7193 70.4238 52.6 55.8314C57.8 46.1771 67.1722 39.0018 77.0281 34.5274C86.884 30.0529 97.3647 27.9568 108.249 26.1227C118.568 24.4095 129.512 22.5149 139.61 19.8947C153.609 16.231 168.401 17.0129 181.936 22.1319C195.821 27.0539 207.535 36.6991 215.031 49.3818C223.415 64.0346 222.871 81.227 227.003 98.1574Z" stroke="#1B8976" stroke-miterlimit="10"/>
<path d="M223.999 95.3359C225.451 100.697 228.232 105.071 229.865 109.989C231.819 116.459 232.309 123.283 231.298 129.966C230.287 136.65 227.801 143.024 224.02 148.626C218.578 156.688 213.418 162.453 211.926 171.12C210.677 178.637 210.213 186.115 204.832 193.169C201.677 197.373 197.686 200.879 193.111 203.467C188.536 206.054 183.476 207.667 178.247 208.205C171.251 208.871 164.195 208.004 157.568 205.665C153.436 204.234 149.647 202.199 145.475 200.586C140.286 198.553 134.873 197.145 129.351 196.394C126.146 195.991 122.961 195.931 119.858 195.789C105.749 195.124 88.879 195.407 80.3936 181.681C78.1232 177.657 75.6336 173.761 72.9362 170.011C69.4422 165.782 65.4106 162.029 60.9438 158.845C56.9128 155.721 52.8818 152.798 49.2337 149.332C45.8569 146.349 43.2737 142.575 41.7158 138.347C39.6681 131.478 39.9015 124.131 42.3809 117.406C44.1344 111.924 46.4119 106.582 47.7019 100.858C51.5314 84.7343 47.2585 70.3838 54.7965 55.9124C59.7749 46.3789 69.0866 39.4052 78.8417 35.2331C88.5968 31.061 98.9969 29.3075 109.598 27.6749C119.95 26.2666 130.197 24.1794 140.275 21.4268C153.572 17.4794 167.78 17.8605 180.847 22.5152C194.291 26.9537 205.652 36.1495 212.793 48.3743C220.754 62.5837 219.606 79.1714 223.999 95.3359Z" stroke="#1B8976" stroke-miterlimit="10"/>
<path d="M220.996 92.5141C222.589 97.7746 225.592 101.967 227.426 106.784C229.625 113.106 230.308 119.857 229.419 126.491C228.529 133.126 226.093 139.458 222.306 144.978C216.804 152.899 211.685 158.522 210.677 167.31C209.83 174.808 209.951 182.366 204.812 189.481C201.81 193.746 197.907 197.298 193.379 199.886C188.85 202.474 183.808 204.034 178.61 204.456C171.665 204.968 164.695 203.885 158.233 201.292C154.202 199.699 150.534 197.482 146.382 195.729C141.409 193.561 136.158 192.096 130.782 191.375C127.658 190.992 124.554 190.992 121.51 190.912C107.784 190.609 91.0153 191.698 83.0137 177.952C80.9348 173.957 78.5916 170.106 75.9997 166.423C72.5925 162.297 68.5757 158.716 64.088 155.801C59.936 152.939 56.0259 150.299 52.2166 147.114C48.7736 144.38 46.1227 140.775 44.5375 136.674C42.3002 130.628 42.9654 123.452 45.4848 116.297C47.6175 111.02 49.4809 105.639 51.0678 100.173C54.9174 84.4923 49.6771 70.3634 56.8926 56.0129C61.6291 46.6005 70.9005 39.8888 80.5347 35.9787C90.1688 32.0686 100.347 30.6779 110.767 29.2469C120.932 28.0574 130.969 25.9596 140.758 22.9787C153.365 18.7858 166.991 18.7858 179.597 22.9787C192.6 26.9443 203.614 35.6962 210.415 47.4671C218.094 61.1122 216.34 77.1155 220.996 92.5141Z" stroke="#1B8976" stroke-miterlimit="10"/>
<path d="M217.994 89.6923C219.727 94.8521 222.952 98.863 224.987 103.579C227.435 109.741 228.315 116.413 227.548 122.999C226.782 129.584 224.392 135.876 220.594 141.31C215.051 149.19 209.952 154.592 209.408 163.48C208.944 170.958 209.67 178.597 204.772 185.853C201.937 190.154 198.142 193.737 193.686 196.322C189.23 198.907 184.235 200.422 179.094 200.747C172.168 201.135 165.251 199.835 158.939 196.958C154.908 195.205 151.461 192.827 147.43 190.912C142.659 188.602 137.549 187.071 132.294 186.377C129.292 186.113 126.277 186.019 123.264 186.095C109.962 186.095 93.2128 188.11 85.7352 174.223C83.8468 170.251 81.6428 166.436 79.1444 162.815C75.8188 158.784 71.8066 155.372 67.2932 152.738C63.1211 150.138 59.1303 147.78 55.2001 144.857C51.6894 142.384 48.9614 138.957 47.3395 134.981C45.1023 129.055 45.8682 122.142 48.5892 115.189C50.8623 110.109 52.8145 104.892 54.4342 99.5684C58.304 84.2102 52.1163 70.424 59.0094 56.1742C63.4839 46.8827 72.715 40.3322 82.2484 36.7648C91.7818 33.1973 101.799 32.1089 112.078 30.8795C122.053 29.9069 131.884 27.8041 141.384 24.6112C153.266 20.1029 166.307 19.6564 178.469 23.3415C191.112 26.7953 201.873 35.1142 208.4 46.4796C215.434 59.6611 213.096 75.0597 217.994 89.6923Z" stroke="#1B8976" stroke-miterlimit="10"/>
<path d="M214.991 86.8714C216.865 91.9102 220.311 95.7599 222.549 100.355C225.227 106.357 226.298 112.954 225.654 119.495C225.011 126.036 222.677 132.297 218.88 137.663C213.297 145.442 208.198 150.683 208.118 159.712C208.118 167.15 209.387 174.869 204.732 182.226C202.057 186.571 198.358 190.195 193.959 192.781C189.56 195.367 184.595 196.836 179.497 197.06C172.64 197.282 165.837 195.763 159.725 192.646C155.875 190.63 152.469 188.171 148.539 186.136C143.984 183.684 139.017 182.092 133.886 181.44C130.957 181.178 128.013 181.137 125.078 181.319C112.199 181.682 95.4904 184.423 88.5167 170.536C86.8224 166.591 84.7644 162.812 82.3693 159.249C79.1333 155.31 75.1282 152.073 70.5987 149.735C66.4064 147.357 62.3351 145.322 58.5056 142.661C54.924 140.452 52.1092 137.194 50.4435 133.329C48.1659 127.625 49.0729 120.873 51.9753 114.101C54.3743 109.21 56.3957 104.143 58.0218 98.9445C61.9118 83.9289 54.7768 70.4652 61.3273 56.3364C65.58 47.1657 74.7506 40.837 84.1833 37.5517C93.6159 34.2664 103.452 33.5206 113.549 32.4927C123.338 31.7665 132.974 29.6561 142.17 26.2245C153.333 21.4378 165.791 20.585 177.502 23.8058C183.482 25.2944 189.096 27.9872 193.999 31.7196C198.903 35.4519 202.994 40.1455 206.021 45.513C212.753 58.2108 209.871 72.9845 214.991 86.8714Z" stroke="#1B8976" stroke-miterlimit="10"/>
<path d="M211.987 84.0295C214.002 88.9876 217.67 92.6761 220.049 97.1505C225.974 107.994 224.966 123.11 217.106 133.994C211.463 141.734 206.383 146.752 206.766 155.903C207.089 163.32 209.044 171.12 204.61 178.577C202.102 182.967 198.501 186.633 194.157 189.219C189.813 191.804 184.873 193.221 179.819 193.331C172.996 193.411 166.276 191.672 160.349 188.292C156.6 186.277 153.335 183.495 149.505 181.319C145.185 178.746 140.383 177.086 135.397 176.441C132.539 176.209 129.668 176.209 126.811 176.441C114.335 177.167 97.6663 180.734 91.1964 166.746C89.6971 162.845 87.7849 159.115 85.4925 155.621C82.3408 151.755 78.3313 148.677 73.7823 146.632C69.5699 144.616 65.4381 142.782 61.4675 140.383C57.8541 138.416 54.9811 135.324 53.2845 131.576C50.9868 126.093 51.9946 119.483 55.0985 112.932C57.6526 108.235 59.7775 103.318 61.4473 98.2389C65.4784 83.5659 57.2954 70.4247 63.4629 56.3966C67.4939 47.3671 76.6242 41.2399 85.9158 38.257C95.2073 35.274 104.942 34.8709 114.818 34.0244C124.421 33.5404 133.87 31.4135 142.753 27.736C153.2 22.686 165.075 21.4179 176.352 24.1483C182.097 25.3989 187.51 27.8594 192.23 31.3661C196.949 34.8728 200.867 39.3451 203.723 44.485C210.092 56.7595 206.645 70.9084 211.987 84.0295Z" stroke="#1B8976" stroke-miterlimit="10"/>
<path d="M209.004 81.2068C211.16 86.0441 215.05 89.5712 217.671 93.9247C224.08 104.486 223.334 119.602 215.453 130.345C209.77 138.004 204.691 142.841 205.557 152.093C206.243 159.49 208.822 167.37 204.63 174.928C202.289 179.356 198.785 183.062 194.495 185.647C190.205 188.233 185.291 189.6 180.283 189.602C173.493 189.537 166.856 187.582 161.115 183.958C157.467 181.701 154.323 178.839 150.614 176.501C146.499 173.791 141.817 172.06 136.929 171.442C134.14 171.263 131.34 171.337 128.564 171.663C116.471 172.732 99.8634 177.105 93.9378 163.057C92.6233 159.191 90.8504 155.497 88.6571 152.052C85.5822 148.273 81.5734 145.362 77.0276 143.607C72.7748 141.753 68.5624 140.342 64.5313 138.186C60.8941 136.456 57.9521 133.542 56.1871 129.922C53.8894 124.662 55.0181 118.232 58.3034 111.782C60.9957 107.289 63.2113 102.527 64.9143 97.5729C68.9453 83.2023 59.8352 70.4239 65.7205 56.4966C69.4895 47.588 78.5795 41.6825 87.7703 39.0018C96.9611 36.3212 106.515 36.2607 116.209 35.6158C125.44 35.0313 135.216 33.6002 143.459 29.3072C153.177 24.0034 164.461 22.3179 175.304 24.5506C180.807 25.565 186.014 27.7938 190.547 31.0747C195.08 34.3556 198.824 38.6062 201.506 43.5167C207.432 55.2873 203.441 68.8315 209.004 81.2068Z" stroke="#1B8976" stroke-miterlimit="10"/>
<path d="M206.001 78.3857C208.319 83.102 212.39 86.4478 215.232 90.7207C218.614 96.1738 220.281 102.517 220.015 108.928C219.749 115.34 217.563 121.523 213.741 126.677C208.017 134.296 202.938 138.932 204.268 148.284C205.336 155.681 208.521 163.622 204.59 171.261C202.424 175.732 199.02 179.487 194.783 182.08C190.546 184.674 185.653 185.997 180.686 185.893C173.919 185.681 167.362 183.495 161.821 179.605C158.274 177.186 155.25 174.163 151.743 171.684C147.86 168.847 143.315 167.051 138.542 166.464C135.849 166.298 133.146 166.419 130.48 166.827C118.85 168.238 102.262 173.458 96.8205 159.329C95.6938 155.504 94.0674 151.845 91.9833 148.445C88.9706 144.75 84.9525 142.006 80.4142 140.544C76.1614 138.932 71.8684 137.844 67.7769 135.949C64.109 134.477 61.091 131.738 59.2714 128.229C56.9535 123.191 58.183 116.922 61.6698 110.735C64.1892 106.28 67.1521 101.927 68.5428 96.9687C72.5738 82.8601 62.4962 70.4848 68.0792 56.6583C71.6265 47.8707 80.656 42.1668 89.7259 39.7884C98.7957 37.4101 108.228 37.7729 117.701 37.2489C126.751 36.8458 136.365 35.4349 144.266 30.9403C153.178 25.4162 163.783 23.2909 174.136 24.9542C184.657 26.7481 194.493 33.0163 199.209 42.5295C204.772 53.8366 200.338 66.736 206.001 78.3857Z" stroke="#1B8976" stroke-miterlimit="10"/>
<path d="M202.998 75.5641C205.498 80.1595 209.75 83.3843 212.794 87.5161C216.404 92.7693 218.272 99.0239 218.134 105.396C217.997 111.769 215.861 117.937 212.028 123.03C206.264 130.568 201.164 135.123 202.998 144.475C204.43 151.872 208.239 159.873 204.53 167.613C202.54 172.115 199.238 175.912 195.057 178.508C190.875 181.104 186.007 182.378 181.09 182.165C174.348 181.797 167.875 179.393 162.527 175.272C159.08 172.672 156.158 169.507 152.671 166.867C149.017 163.918 144.612 162.048 139.953 161.466C137.307 161.334 134.655 161.517 132.052 162.01C120.826 163.743 104.198 169.79 99.3403 155.58C98.4191 151.8 96.9382 148.179 94.9465 144.837C91.9984 141.224 87.9734 138.647 83.458 137.481C79.1649 136.131 74.8114 135.365 70.6594 133.712C66.9698 132.497 63.8747 129.935 61.9927 126.537C59.6345 121.699 61.0051 115.612 64.6733 109.606C67.3137 105.313 70.3974 101.141 71.8083 96.3039C75.8393 82.6185 64.895 70.5051 70.0749 56.7996C73.4005 48.1329 82.3696 42.691 91.3387 40.5545C100.308 38.4181 109.478 39.1034 118.851 38.8615C127.719 38.6398 137.151 37.3499 144.73 32.5328C153.397 27.0304 162.345 23.9869 173.088 25.4381C183.166 26.7885 192.679 32.5126 197.012 41.5623C202.112 52.3856 197.073 64.64 202.998 75.5641Z" stroke="#1B8976" stroke-miterlimit="10"/>
<path d="M199.995 72.7222C202.656 77.1966 207.11 80.2804 210.375 84.2912C214.21 89.3326 216.287 95.4921 216.287 101.826C216.287 108.16 214.21 114.32 210.375 119.361C204.571 126.839 199.451 131.132 201.769 140.685C203.563 148.062 208.017 156.124 204.55 163.965C202.736 168.496 199.533 172.336 195.402 174.936C191.271 177.535 186.423 178.761 181.553 178.436C174.827 177.916 168.436 175.285 163.293 170.918C159.947 168.157 157.145 164.872 153.78 162.07C150.37 158.999 146.099 157.049 141.545 156.487C138.959 156.37 136.368 156.607 133.846 157.193C123.043 159.208 106.415 166.142 102.122 151.851C101.033 148.224 100.368 144.354 98.0907 141.23C95.1955 137.702 91.1617 135.293 86.6829 134.417C82.3495 133.309 77.9355 132.885 73.7231 131.454C71.8879 130.984 70.1637 130.156 68.6489 129.018C67.1341 127.88 65.8585 126.455 64.8951 124.823C62.5168 120.228 63.9881 114.282 67.8579 108.477C70.6192 104.446 73.9045 100.415 75.2549 95.6588C79.2859 82.2959 67.4145 70.505 72.2719 56.9204C75.3355 48.3746 84.2642 43.094 93.1325 41.3203C102.001 39.5467 111.091 40.494 120.161 40.4537C128.848 40.4537 138.159 39.2443 145.375 34.1047C153.437 28.421 161.64 24.8737 171.98 25.8412C181.614 26.7885 190.784 32.0086 194.755 40.6754C199.451 50.9344 193.888 62.5035 199.995 72.7222Z" stroke="#1B8976" stroke-miterlimit="10"/>
<path d="M67.7763 123.129C68.7945 124.691 70.1171 126.032 71.6651 127.07C73.2131 128.109 74.9547 128.826 76.7857 129.176C81.0586 130.365 85.5532 130.466 89.8866 131.312C94.3358 131.875 98.3986 134.126 101.234 137.601C103.25 140.644 103.834 144.474 104.761 148.082C108.49 162.432 125.138 154.713 135.538 152.314C137.967 151.656 140.48 151.364 142.996 151.448C147.442 152.017 151.574 154.044 154.746 157.212C157.991 160.155 160.672 163.601 163.937 166.544C168.886 171.113 175.191 173.944 181.895 174.606C192.456 175.452 200.68 169.426 204.449 160.195C207.674 152.254 202.594 144.071 200.418 136.754C197.596 127.12 202.756 123.008 208.601 115.591C212.456 110.61 214.493 104.459 214.372 98.1608C214.251 91.8625 211.98 85.7948 207.936 80.9647C204.469 77.0546 199.874 74.112 196.991 69.7786C190.723 60.2452 196.79 49.3412 192.497 39.5458C188.909 31.3426 180.041 26.5861 170.89 26.1225C160.934 25.5985 153.355 29.6698 145.999 35.5551C139.166 41.0172 129.995 42.045 121.49 41.9039C112.602 41.7427 103.653 40.4326 94.9052 41.9039C86.1579 43.3753 77.2896 48.4545 74.4477 56.8794C69.9128 70.3632 82.7516 81.8112 78.7005 94.8315C77.2694 99.4269 73.9237 103.236 71.0415 107.187C66.9702 112.971 65.398 118.736 67.7763 123.129Z" stroke="#1B8976" stroke-miterlimit="10"/>
</g>
</svg>
