<svg width="309" height="299" viewBox="0 0 309 299" fill="none" xmlns="http://www.w3.org/2000/svg">
<g opacity="0.9">
<path d="M304.44 185.407C306.949 150.666 247.838 118.088 172.413 112.642C96.988 107.196 33.8104 130.944 31.3019 165.684C28.7933 200.425 87.9038 233.003 163.329 238.449C238.754 243.896 301.931 220.148 304.44 185.407Z" stroke="#1B8976" stroke-width="0.8" stroke-miterlimit="10"/>
<path d="M299.433 178.168C300.417 144.202 241.424 114.935 167.668 112.797C93.9119 110.66 33.3228 136.461 32.3385 170.427C31.3541 204.393 90.3473 233.66 164.103 235.798C237.86 237.935 298.449 212.133 299.433 178.168Z" stroke="#1B8976" stroke-width="0.8" stroke-miterlimit="10"/>
<path d="M165.018 233.18C237.093 232.01 295.085 204.151 294.546 170.956C294.007 137.761 235.142 111.799 163.067 112.969C90.9919 114.139 33.0003 141.998 33.5392 175.193C34.078 208.388 92.9432 234.35 165.018 233.18Z" stroke="#1B8976" stroke-width="0.8" stroke-miterlimit="10"/>
<path d="M165.793 230.515C236.195 226.036 291.594 196.12 289.532 163.695C287.469 131.271 228.725 108.616 158.323 113.095C87.9212 117.573 32.5213 147.489 34.584 179.914C36.6467 212.339 95.3909 234.993 165.793 230.515Z" stroke="#1B8976" stroke-width="0.8" stroke-miterlimit="10"/>
<path d="M166.479 227.952C235.216 220.169 288.033 188.202 284.45 156.553C280.866 124.903 222.239 105.556 153.502 113.339C84.7652 121.122 31.9481 153.088 35.5317 184.737C39.1153 216.387 97.7427 235.735 166.479 227.952Z" stroke="#1B8976" stroke-width="0.8" stroke-miterlimit="10"/>
<path d="M167.231 225.344C234.291 214.255 284.513 180.227 279.405 149.342C274.298 118.457 215.795 102.41 148.736 113.499C81.6763 124.589 31.4544 158.616 36.5618 189.501C41.6693 220.386 100.172 236.434 167.231 225.344Z" stroke="#1B8976" stroke-width="0.8" stroke-miterlimit="10"/>
<path d="M168.044 222.671C233.434 208.27 281.068 172.19 274.437 142.083C267.807 111.976 209.423 99.244 144.033 113.645C78.6436 128.046 31.0098 164.126 37.6402 194.233C44.2706 224.34 102.654 237.072 168.044 222.671Z" stroke="#1B8976" stroke-width="0.8" stroke-miterlimit="10"/>
<path d="M168.775 220.111C232.486 202.406 277.525 164.268 269.371 134.926C261.218 105.585 202.959 96.1515 139.248 113.856C75.5365 131.561 30.498 169.699 38.6517 199.041C46.8053 228.382 105.063 237.816 168.775 220.111Z" stroke="#1B8976" stroke-width="0.8" stroke-miterlimit="10"/>
<path d="M169.647 217.247C231.679 196.226 274.12 156.03 264.44 127.466C254.761 98.902 196.627 92.7874 134.595 113.808C72.5621 134.829 30.1216 175.026 39.8011 203.59C49.4805 232.153 107.615 238.268 169.647 217.247Z" stroke="#1B8976" stroke-width="0.8" stroke-miterlimit="10"/>
<path d="M170.381 214.709C230.745 190.382 270.599 148.128 259.398 120.334C248.196 92.5393 190.181 89.7287 129.817 114.056C69.4528 138.383 29.5987 180.637 40.8002 208.431C52.0017 236.226 110.017 239.036 170.381 214.709Z" stroke="#1B8976" stroke-width="0.8" stroke-miterlimit="10"/>
<path d="M171.106 212.196C229.796 184.566 267.059 140.255 254.333 113.225C241.608 86.195 183.715 86.6814 125.024 114.312C66.3339 141.942 29.0716 186.252 41.7967 213.283C54.5219 240.313 112.416 239.826 171.106 212.196Z" stroke="#1B8976" stroke-width="0.8" stroke-miterlimit="10"/>
<path d="M171.939 209.416C228.952 178.473 263.618 132.103 249.367 105.845C235.116 79.5872 177.345 83.3853 120.332 114.328C63.3186 145.271 28.6527 191.641 42.9035 217.899C57.1543 244.157 114.925 240.359 171.939 209.416Z" stroke="#1B8976" stroke-width="0.8" stroke-miterlimit="10"/>
<path d="M172.668 206.867C228.01 172.62 260.091 124.199 244.322 98.7171C228.553 73.2348 170.906 80.3399 115.563 114.587C60.2208 148.834 28.1402 197.254 43.9092 222.736C59.6781 248.219 117.325 241.114 172.668 206.867Z" stroke="#1B8976" stroke-width="0.8" stroke-miterlimit="10"/>
<path d="M170.364 208.749C224.08 171.41 253.69 121.092 236.499 96.3613C219.308 71.6307 161.827 81.8519 108.111 119.191C54.3946 156.53 24.7851 206.848 41.9759 231.579C59.1667 256.309 116.648 246.088 170.364 208.749Z" stroke="#1B8976" stroke-width="0.798919" stroke-miterlimit="10"/>
<path d="M174.263 201.419C226.258 160.547 253.151 108.005 234.331 84.0635C215.511 60.1217 158.105 73.8462 106.11 114.718C54.1154 155.59 27.222 208.131 46.042 232.073C64.862 256.015 122.269 242.29 174.263 201.419Z" stroke="#1B8976" stroke-width="0.8" stroke-miterlimit="10"/>
<path d="M175.029 198.826C225.354 154.645 249.663 100.049 229.325 76.8816C208.986 53.7144 151.702 70.749 101.377 114.93C51.0515 159.11 26.7426 213.707 47.0812 236.874C67.4198 260.041 124.704 243.006 175.029 198.826Z" stroke="#1B8976" stroke-width="0.8" stroke-miterlimit="10"/>
<path d="M175.806 196.093C224.45 148.606 246.163 91.9572 224.303 69.5639C202.443 47.1705 145.287 67.5129 96.6423 115C47.9977 162.487 26.2848 219.136 48.1452 241.529C70.0056 263.922 127.161 243.58 175.806 196.093Z" stroke="#1B8976" stroke-width="0.8" stroke-miterlimit="10"/>
<path d="M176.561 193.442C223.534 142.645 242.655 83.936 219.269 62.3109C195.883 40.6858 138.846 64.334 91.874 115.131C44.9015 165.927 25.7807 224.637 49.1664 246.262C72.5521 267.887 129.589 244.239 176.561 193.442Z" stroke="#1B8976" stroke-width="0.8" stroke-miterlimit="10"/>
<path d="M177.327 190.858C222.628 136.755 239.164 75.9921 214.261 55.1404C189.358 34.2886 132.446 61.2441 87.1449 115.347C41.8436 169.45 25.3075 230.213 50.2106 251.064C75.1136 271.916 132.026 244.961 177.327 190.858Z" stroke="#1B8976" stroke-width="0.8" stroke-miterlimit="10"/>
<path d="M178.076 188.16C221.701 130.749 235.643 67.9304 209.217 47.8502C182.791 27.7701 126.004 58.0325 82.3794 115.443C38.7548 172.854 24.8126 235.673 51.2385 255.753C77.6644 275.833 134.452 245.571 178.076 188.16Z" stroke="#1B8976" stroke-width="0.8" stroke-miterlimit="10"/>
<path d="M178.848 185.497C220.796 124.781 232.145 59.9076 204.197 40.5985C176.248 21.2895 119.586 54.8562 77.6386 115.572C35.6909 176.288 24.3422 241.161 52.2905 260.47C80.2388 279.779 136.901 246.212 178.848 185.497Z" stroke="#1B8976" stroke-width="0.8" stroke-miterlimit="10"/>
<path d="M179.67 183.079C219.955 119.057 228.721 52.1237 199.249 33.5786C169.778 15.0336 113.228 51.8996 72.943 115.921C32.6577 179.943 23.8916 246.876 53.3635 265.421C82.8354 283.966 139.385 247.1 179.67 183.079Z" stroke="#1B8976" stroke-width="0.8" stroke-miterlimit="10"/>
</g>
</svg>
