<svg width="786" height="209" viewBox="0 0 786 209" fill="none" xmlns="http://www.w3.org/2000/svg">
<path d="M47.14 8.21999C47.14 25.38 46.92 42.6867 46.48 60.14C45.8933 83.3133 45.6 101.573 45.6 114.92C45.6 130.32 46.04 145.647 46.92 160.9C44.72 163.1 39 164.2 29.76 164.2C24.48 164.2 20.5933 164.127 18.1 163.98L15.46 163.76L11.5 163.54C8.56667 163.54 4.82667 164.127 0.28 165.3C1.16 152.54 1.6 138.973 1.6 124.6C1.6 118.88 1.45333 110.447 1.16 99.3L0.94 86.54C0.353334 70.9933 0.0600004 58.38 0.0600004 48.7C0.0600004 34.18 0.72 19.88 2.04 5.79999C3.94667 5.50666 6 5.36 8.2 5.36C9.37333 5.36 10.9867 5.50666 13.04 5.79999C15.0933 5.94666 17.5133 5.94666 20.3 5.79999C27.9267 6.23999 34.0133 6.38666 38.56 6.24H47.14V8.21999ZM116.608 59.92C116.755 59.92 116.755 59.92 116.608 59.92C116.608 59.7733 116.682 59.7 116.828 59.7C120.348 57.3533 124.382 55.52 128.928 54.2C133.622 52.7333 138.242 52 142.788 52C152.468 52 159.948 54.3467 165.228 59.04C165.228 59.1867 165.668 59.7 166.548 60.58C166.695 60.58 166.695 60.6533 166.548 60.8C166.402 60.8 166.402 60.8733 166.548 61.02L168.528 59.7C172.048 57.3533 176.082 55.52 180.628 54.2C185.175 52.7333 189.795 52 194.488 52C204.168 52 211.648 54.3467 216.928 59.04C221.035 62.7067 223.088 74.8067 223.088 95.34C223.088 101.353 222.942 110.52 222.648 122.84C222.355 133.4 222.208 140.953 222.208 145.5C222.208 150.487 222.355 156.06 222.648 162.22C214.582 163.393 206.662 163.833 198.888 163.54H188.548C188.255 159.14 188.108 150.633 188.108 138.02V127.02C188.108 118.807 187.888 112.647 187.448 108.54C186.715 100.913 185.688 95.78 184.368 93.14C183.048 90.5 180.775 89.18 177.548 89.18C176.082 89.18 174.835 89.7667 173.808 90.94C172.782 91.9667 171.975 94.1667 171.388 97.54C171.388 103.7 171.242 113.233 170.948 126.14C170.655 135.82 170.508 142.787 170.508 147.04C170.508 151.587 170.655 156.647 170.948 162.22C162.882 163.393 154.962 163.833 147.188 163.54H136.848C136.555 159.14 136.408 150.633 136.408 138.02V127.02C136.408 119.833 136.262 114.627 135.968 111.4C135.968 111.253 135.895 111.033 135.748 110.74C135.748 110.3 135.748 109.567 135.748 108.54C135.455 103.7 134.942 99.74 134.208 96.66C133.622 93.58 132.448 91.4533 130.688 90.28C129.515 89.5467 127.828 89.18 125.628 89.18C122.988 89.18 120.642 90.1333 118.588 92.04C116.535 93.9467 115.435 97.1 115.288 101.5C115.142 103.7 115.068 107.073 115.068 111.62C115.068 115.287 115.215 120.64 115.508 127.68C115.802 135.013 115.948 140.513 115.948 144.18C115.948 150.78 115.655 156.647 115.068 161.78C111.108 162.807 107.882 163.393 105.388 163.54C103.042 163.833 100.402 163.907 97.4684 163.76C96.1484 163.613 94.0218 163.54 91.0884 163.54C87.7151 163.54 84.4151 163.687 81.1884 163.98C81.1884 146.38 81.1151 133.327 80.9684 124.82C80.6751 105.753 80.5284 91.3067 80.5284 81.48C80.5284 74.2933 80.6751 64.1 80.9684 50.9C85.6618 51.4867 89.3284 51.78 91.9684 51.78C94.4618 51.78 96.8818 51.6333 99.2284 51.34L102.968 50.9C106.195 50.6067 108.688 50.46 110.448 50.46C113.968 50.46 115.875 50.9733 116.168 52C116.462 53.76 116.608 56.3267 116.608 59.7V59.92ZM256.659 192.36C256.659 178.573 256.366 158.333 255.779 131.64C255.339 114.92 255.119 97.32 255.119 78.84C255.119 66.08 255.192 56.84 255.339 51.12H261.499L267.219 50.9L291.639 51.34C291.786 51.4867 291.859 53.1 291.859 56.18C294.646 52.66 298.459 50.9 303.299 50.9C305.792 50.9 308.579 51.12 311.659 51.56C322.659 52.5867 331.019 56.1067 336.739 62.12C342.459 68.1333 346.272 75.3933 348.179 83.9C350.086 92.26 351.259 102.527 351.699 114.7C351.699 125.7 350.012 135.453 346.639 143.96C343.266 152.32 338.279 157.82 331.679 160.46C326.106 162.513 319.139 163.54 310.779 163.54C302.712 163.54 296.332 162.88 291.639 161.56L291.859 169.26C292.006 171.9 292.079 175.42 292.079 179.82C292.079 182.46 291.932 187.447 291.639 194.78C291.346 197.567 291.126 201.527 290.979 206.66C290.099 207.247 287.679 207.76 283.719 208.2C279.759 208.64 275.506 208.86 270.959 208.86C264.506 208.86 259.739 208.42 256.659 207.54V192.36ZM320.019 108.54C320.019 101.06 318.479 94.6067 315.399 89.18C312.319 83.6067 308.286 80.82 303.299 80.82C297.872 80.82 294.426 83.3133 292.959 88.3C291.492 93.14 290.759 100.913 290.759 111.62C290.759 119.54 290.906 125.04 291.199 128.12C291.639 131.2 292.519 133.253 293.839 134.28C295.159 135.307 297.506 135.82 300.879 135.82C305.866 135.82 309.899 134.573 312.979 132.08C316.059 129.44 317.966 125.7 318.699 120.86C319.139 117.927 319.432 115.58 319.579 113.82C319.872 112.06 320.019 110.3 320.019 108.54ZM418.55 40.78V47.16L418.33 68.72C418.037 90.1333 417.89 106.12 417.89 116.68C417.89 136.48 418.183 151.147 418.77 160.68C418.037 161.707 416.497 162.367 414.15 162.66C411.95 163.1 408.87 163.32 404.91 163.32C400.363 163.32 397.21 163.247 395.45 163.1C389.73 162.807 384.89 163.247 380.93 164.42C381.957 150.34 382.47 137.287 382.47 125.26C382.47 116.46 382.177 103.26 381.59 85.66C381.003 66.5933 380.71 52.22 380.71 42.54C380.71 27.8733 381.37 14.0133 382.69 0.959988L418.99 1.61999L418.55 40.78ZM546.382 51.34C546.382 52.0733 546.455 53.32 546.602 55.08C546.895 56.84 547.042 58.4533 547.042 59.92C546.895 63.7333 546.822 69.4533 546.822 77.08C546.822 87.3467 546.895 95.0467 547.042 100.18V113.38L547.262 126.58C547.262 135.233 547.042 144.107 546.602 153.2V155.4C546.602 157.747 546.309 159.58 545.722 160.9C545.135 162.073 543.595 162.88 541.102 163.32H513.162C509.789 162.293 508.102 160.313 508.102 157.38V155.84C504.435 158.187 500.402 160.093 496.002 161.56C491.602 162.88 487.349 163.54 483.242 163.54C475.469 163.54 468.869 160.387 463.442 154.08C458.162 147.773 454.202 140 451.562 130.76C448.922 121.373 447.602 112.28 447.602 103.48C447.602 93.8 449.362 85.0733 452.882 77.3C456.402 69.38 461.242 63.1467 467.402 58.6C473.562 54.0533 480.382 51.7067 487.862 51.56C492.409 51.56 496.662 51.9267 500.622 52.66C504.582 53.3933 507.075 54.2733 508.102 55.3C508.102 54.5667 507.955 53.6133 507.662 52.44C507.369 51.2667 507.442 50.3867 507.882 49.8C508.175 49.5067 509.202 49.36 510.962 49.36C513.602 49.36 517.049 49.58 521.302 50.02C525.702 50.3133 528.489 50.5333 529.662 50.68L543.522 51.34H546.382ZM481.262 107.88C481.262 114.333 482.729 119.76 485.662 124.16C488.595 128.413 492.555 130.54 497.542 130.54C500.769 130.54 503.115 129.66 504.582 127.9C506.049 126.14 506.929 123.793 507.222 120.86C507.662 117.927 507.882 113.527 507.882 107.66V101.94C507.882 95.6333 507.735 91.38 507.442 89.18C507.295 86.8333 506.635 85.2933 505.462 84.56C504.435 83.68 502.529 83.24 499.742 83.24C495.049 83.24 491.235 84.56 488.302 87.2C485.369 89.6933 483.462 92.7733 482.582 96.44C481.702 99.3733 481.262 103.187 481.262 107.88ZM616.031 59.92C616.177 59.92 616.177 59.92 616.031 59.92C616.031 59.7733 616.104 59.7 616.251 59.7C619.771 57.3533 623.804 55.52 628.351 54.2C633.044 52.7333 637.664 52 642.211 52C651.891 52 659.371 54.3467 664.651 59.04C668.757 62.7067 670.811 74.8067 670.811 95.34C670.811 101.353 670.664 110.52 670.371 122.84C670.077 133.4 669.931 140.953 669.931 145.5C669.931 150.487 670.077 156.06 670.371 162.22C662.304 163.393 654.384 163.833 646.611 163.54H636.271C635.977 159.14 635.831 150.633 635.831 138.02V127.02C635.831 119.833 635.684 114.627 635.391 111.4L635.171 110.08V108.54C634.877 104.433 634.511 101.207 634.071 98.86C633.777 96.5133 632.824 94.3133 631.211 92.26C629.744 90.2067 627.397 89.18 624.171 89.18C621.824 89.18 619.697 90.2067 617.791 92.26C615.884 94.3133 614.857 97.3933 614.711 101.5C614.564 103.7 614.491 107.073 614.491 111.62C614.491 115.287 614.637 120.64 614.931 127.68C615.224 135.013 615.371 140.513 615.371 144.18C615.371 150.78 615.077 156.647 614.491 161.78C610.531 162.807 607.304 163.393 604.811 163.54C602.464 163.833 599.824 163.907 596.891 163.76C595.571 163.613 593.444 163.54 590.511 163.54C587.137 163.54 583.837 163.687 580.611 163.98C580.611 146.38 580.537 133.327 580.391 124.82C580.097 105.753 579.951 91.3067 579.951 81.48C579.951 74.2933 580.097 64.1 580.391 50.9C585.084 51.4867 588.751 51.78 591.391 51.78C593.884 51.78 596.304 51.6333 598.651 51.34L602.391 50.9C605.617 50.6067 608.111 50.46 609.871 50.46C613.391 50.46 615.297 50.9733 615.591 52C615.884 53.76 616.031 56.3267 616.031 59.7V59.92ZM749.614 52.22C757.24 51.9267 763.987 51.56 769.854 51.12L772.934 50.9C773.96 50.7533 774.987 50.7533 776.014 50.9C777.187 50.9 778.14 50.9 778.874 50.9H783.934C784.52 56.7667 784.814 60.14 784.814 61.02C784.814 61.7533 784.667 64.0267 784.374 67.84L784.154 70.26L783.934 75.1C783.934 76.1267 784.08 77.8133 784.374 80.16H750.054C750.054 103.48 749.98 117.78 749.834 123.06C752.034 125.847 755.994 127.9 761.714 129.22C767.434 130.54 773.374 131.2 779.534 131.2L784.154 130.98V132.96L784.374 133.84V133.62C785.254 139.78 785.694 145.28 785.694 150.12C785.694 154.813 785.034 159.067 783.714 162.88C779.9 163.173 776.014 163.32 772.054 163.32C758.707 163.32 746.974 161.78 736.854 158.7C726.88 155.473 720.28 150.047 717.054 142.42C715.734 134.5 714.854 126.653 714.414 118.88C713.974 110.96 713.754 101.94 713.754 91.82V80.82C711.847 80.9667 710.087 81.04 708.474 81.04C707.007 80.8933 705.687 80.82 704.514 80.82H697.914L698.574 51.78C702.534 51.9267 707.74 52 714.194 52L714.414 9.97999C717.64 9.68666 720.427 9.54 722.774 9.54C725.12 9.54 727.907 9.68666 731.134 9.97999L732.674 10.2C736.194 10.4933 738.907 10.64 740.814 10.64C743.6 10.64 746.46 10.42 749.394 9.97999V50.02L749.614 52.22Z" fill="#1B8976" fill-opacity="0.2"/>
</svg>
