<svg width="512" height="512" viewBox="0 0 512 512" fill="none" xmlns="http://www.w3.org/2000/svg">
<mask id="mask0_68_4" style="mask-type:luminance" maskUnits="userSpaceOnUse" x="0" y="0" width="512" height="512">
<path d="M506.998 506.998V5H5V506.998H506.998Z" fill="white" stroke="white" stroke-width="10"/>
</mask>
<g mask="url(#mask0_68_4)">
<path d="M148.442 144.129H196.597C196.648 144.077 196.734 143.978 196.84 143.804C197.247 143.13 197.603 141.913 197.603 140.457C197.603 138.902 197.238 137.706 196.854 137.077C196.757 136.92 196.68 136.831 196.635 136.786H154.549V44.0918C154.478 44.0273 154.338 43.9151 154.086 43.7812C153.172 43.2965 151.581 42.9189 149.659 42.9189C147.641 42.919 146.068 43.3034 145.194 43.7715C144.963 43.8956 144.835 43.9979 144.771 44.0566V142.891C144.771 142.966 144.779 143 144.78 143.003C144.781 143.005 144.782 143.008 144.788 143.019C144.801 143.039 144.886 143.17 145.168 143.353C145.788 143.754 146.951 144.129 148.442 144.129Z" stroke="black" stroke-width="10"/>
<path d="M280.866 143.631C282.484 143.631 284.635 143.052 286.281 142.069C287.178 141.534 287.574 141.115 287.742 140.888C287.742 140.887 287.741 140.886 287.741 140.885L258.417 45.3154L258.412 45.2998L258.407 45.2832C258.294 44.9065 257.922 44.2552 256.562 43.6035C255.176 42.9391 253.18 42.5078 250.896 42.5078C248.707 42.5078 246.751 42.9328 245.379 43.5957C244.03 44.2478 243.651 44.9014 243.536 45.2832L243.531 45.2998L243.526 45.3154L214.208 140.867C214.202 140.891 214.196 140.915 214.19 140.938C214.347 141.161 214.73 141.577 215.635 142.11C217.254 143.065 219.412 143.631 221.077 143.631C221.632 143.631 222.051 143.586 222.35 143.526C222.421 143.512 222.483 143.497 222.535 143.483L228.264 123.431L229.404 119.442H272.54L273.68 123.431L279.409 143.483C279.461 143.497 279.522 143.512 279.594 143.526C279.893 143.586 280.311 143.631 280.866 143.631ZM232.491 107.546L245.727 71.1221L250.896 56.8965L256.064 71.1221L269.301 107.546L271.981 114.924H229.811L232.491 107.546Z" stroke="black" stroke-width="11"/>
<path d="M309.548 143.129H341.8C349.492 143.129 355.4 141.221 359.366 137.518C363.254 133.888 366.228 127.639 366.228 116.877V113.682C366.227 106.904 364.81 102.969 362.999 100.446C361.176 97.907 358.438 96.0716 354.361 94.4678L340.859 89.1553L354.169 83.3799C359.393 81.1129 363.488 75.574 363.488 64.6953C363.488 55.4226 360.431 50.7569 356.676 48.1104C352.514 45.1775 346.368 43.919 338.91 43.9189H309.548C308.257 43.919 307.324 44.2362 306.877 44.502V142.525C307.219 142.751 308.054 143.129 309.548 143.129ZM314.502 49.2617H337.388C342.551 49.2617 347.329 50.9146 350.795 54.5371C354.228 58.1244 355.712 62.9507 355.712 68.042C355.712 72.8666 354.484 77.7217 351.22 81.4473C347.846 85.2983 343.015 87.125 337.541 87.125H314.502V49.2617ZM314.502 90.6426H337.692C343.137 90.6426 348.697 91.8848 352.811 96.0293C356.907 100.157 358.45 106.038 358.45 112.769V115.204C358.45 121.833 356.886 127.71 352.931 131.933C348.908 136.227 343.382 137.786 337.692 137.786H314.502V90.6426Z" stroke="black" stroke-width="12"/>
<path d="M111.758 359.596H77.0068C68.5278 359.596 61.6538 366.47 61.6538 374.949V409.094C61.6538 417.573 68.5278 424.447 77.0068 424.447H111.758C120.237 424.447 127.111 417.573 127.111 409.094V374.949C127.111 366.47 120.237 359.596 111.758 359.596Z" stroke="black" stroke-width="10" stroke-miterlimit="10" stroke-linecap="round" stroke-linejoin="round"/>
<path d="M111.758 229.225H77.0068C68.5278 229.225 61.6538 236.099 61.6538 244.578V278.723C61.6538 287.202 68.5278 294.076 77.0068 294.076H111.758C120.237 294.076 127.111 287.202 127.111 278.723V244.578C127.111 236.099 120.237 229.225 111.758 229.225Z" stroke="black" stroke-width="10" stroke-miterlimit="10" stroke-linecap="round" stroke-linejoin="round"/>
<path d="M400.241 359.596H434.992C443.471 359.596 450.345 366.47 450.345 374.949V409.094C450.345 417.573 443.471 424.447 434.992 424.447H400.241C391.762 424.447 384.888 417.573 384.888 409.094V374.949C384.888 366.47 391.762 359.596 400.241 359.596Z" stroke="black" stroke-width="10" stroke-miterlimit="10" stroke-linecap="round" stroke-linejoin="round"/>
<path d="M400.241 229.225H434.992C443.471 229.225 450.345 236.099 450.345 244.578V278.723C450.345 287.202 443.471 294.076 434.992 294.076H400.241C391.762 294.076 384.888 287.202 384.888 278.723V244.578C384.888 236.099 391.762 229.225 400.241 229.225Z" stroke="black" stroke-width="10" stroke-miterlimit="10" stroke-linecap="round" stroke-linejoin="round"/>
<path d="M273.374 229.225H238.623C230.144 229.225 223.27 236.099 223.27 244.578V278.723C223.27 287.202 230.144 294.076 238.623 294.076H273.374C281.853 294.076 288.727 287.202 288.727 278.723V244.578C288.727 236.099 281.853 229.225 273.374 229.225Z" stroke="black" stroke-width="10" stroke-miterlimit="10" stroke-linecap="round" stroke-linejoin="round"/>
<path d="M226.399 429.17C227.617 429.17 228.784 428.686 229.645 427.825C230.506 426.964 230.989 425.797 230.989 424.58C230.989 423.363 230.506 422.195 229.645 421.334C228.784 420.473 227.617 419.99 226.399 419.99C225.182 419.99 224.015 420.473 223.154 421.334C222.293 422.195 221.809 423.363 221.809 424.58C221.809 425.797 222.293 426.964 223.154 427.825C224.015 428.686 225.182 429.17 226.399 429.17Z" fill="black" stroke="black" stroke-width="10"/>
<path d="M285.598 429.17C286.815 429.17 287.983 428.686 288.844 427.825C289.705 426.964 290.188 425.797 290.188 424.58C290.188 423.363 289.705 422.195 288.844 421.334C287.983 420.473 286.815 419.99 285.598 419.99C284.381 419.99 283.214 420.473 282.353 421.334C281.492 422.195 281.008 423.363 281.008 424.58C281.008 425.797 281.492 426.964 282.353 427.825C283.214 428.686 284.381 429.17 285.598 429.17Z" fill="black" stroke="black" stroke-width="10"/>
<path d="M392.83 7.49924H119.168C103.498 7.49924 90.7937 20.2032 90.7937 35.8731V150.263C90.7937 165.934 103.498 178.637 119.168 178.637H392.83C408.501 178.637 421.204 165.934 421.204 150.263V35.8731C421.204 20.2032 408.501 7.49924 392.83 7.49924Z" stroke="black" stroke-width="10" stroke-miterlimit="10" stroke-linecap="round" stroke-linejoin="round"/>
<path d="M255.999 344.663V504.498H167.093V372.032C167.093 356.916 179.347 344.663 194.462 344.663H255.999Z" stroke="black" stroke-width="10" stroke-miterlimit="10" stroke-linecap="round" stroke-linejoin="round"/>
<path d="M490.326 422.836V150.668C490.326 131.935 475.14 116.748 456.407 116.748H421.204V150.264C421.204 165.934 408.501 178.638 392.83 178.638H119.168C103.497 178.638 90.7937 165.934 90.7937 150.264V116.748H55.5908C36.8578 116.748 21.6719 131.935 21.6719 150.668V196.837" stroke="black" stroke-width="10" stroke-miterlimit="10" stroke-linecap="round" stroke-linejoin="round"/>
<path d="M21.6719 226.836V504.498H167.092V372.031C167.092 356.915 179.346 344.662 194.462 344.662H317.536C332.651 344.662 344.905 356.915 344.905 372.031V504.498H490.326V452.835" stroke="black" stroke-width="10" stroke-miterlimit="10" stroke-linecap="round" stroke-linejoin="round"/>
<path d="M317.536 344.663H255.999V504.498H344.906V372.032C344.906 356.916 332.652 344.663 317.536 344.663Z" stroke="black" stroke-width="10" stroke-miterlimit="10" stroke-linecap="round" stroke-linejoin="round"/>
</g>
</svg>
