<svg width="35" height="35" viewBox="0 0 35 35" fill="none" xmlns="http://www.w3.org/2000/svg">
<path d="M14.6537 21.1062C14.8254 21.0805 14.9858 21.0049 15.1148 20.8886C15.2438 20.7723 15.3357 20.6207 15.3791 20.4525L15.6254 19.4967C15.8648 18.5714 16.338 17.7232 16.9997 17.0335L17.0519 16.9792L17.1198 17.0441C17.8436 17.7368 18.367 18.6119 18.6348 19.5772L18.8856 20.4811C18.9316 20.6471 19.0251 20.7961 19.1547 20.9097C19.2842 21.0233 19.444 21.0966 19.6146 21.1206C19.7852 21.1447 19.959 21.1185 20.1149 21.0451C20.2707 20.9718 20.4017 20.8545 20.4919 20.7078C22.8975 16.7966 23.6034 13.0509 23.81 11.1666C23.869 10.6231 23.8078 10.0733 23.6306 9.55608C23.4534 9.03887 23.1647 8.56695 22.7848 8.17378C22.4049 7.78069 21.9431 7.47597 21.4323 7.28121C20.9214 7.08646 20.374 7.00643 19.8288 7.0468C19.215 7.09258 16.8478 7.68485 16.1218 7.86896C15.9093 7.76063 15.7042 7.63849 15.5076 7.50332C15.1783 7.28583 14.8673 7.08049 14.4651 7.04892C13.918 7.00566 13.3682 7.08356 12.8546 7.27707C12.3411 7.47058 11.8765 7.77495 11.4941 8.16849C11.1115 8.56194 10.8204 9.03489 10.6415 9.55366C10.4626 10.0724 10.4002 10.6243 10.4589 11.1699C10.6654 13.0512 11.3704 16.7907 13.7678 20.6942C13.8586 20.8424 13.9911 20.9604 14.1486 21.0337C14.3062 21.1069 14.4819 21.1322 14.6537 21.1062ZM12.356 9.01573C12.6148 8.74803 12.9296 8.5409 13.2779 8.40917C13.6261 8.27744 13.9992 8.22437 14.3704 8.25378C14.4616 8.26089 14.6549 8.38863 14.8414 8.512C15.147 8.72384 15.4718 8.90643 15.8116 9.05736C15.822 9.06204 15.8323 9.06642 15.8426 9.07058C16.5539 9.36981 17.5693 9.58791 19.0999 9.3964C19.2164 9.38184 19.3261 9.33368 19.4156 9.2578C19.5051 9.18192 19.5706 9.08161 19.604 8.96912C19.6375 8.85668 19.6376 8.7369 19.6041 8.62443C19.5707 8.51195 19.5052 8.41167 19.4157 8.33583C19.5819 8.29956 19.7497 8.27176 19.9188 8.25258C20.287 8.22547 20.6567 8.27963 21.0016 8.41123C21.3466 8.54283 21.6584 8.74864 21.915 9.01411C22.1716 9.27958 22.3667 9.5982 22.4865 9.94744C22.6063 10.2967 22.6479 10.668 22.6083 11.035C22.4245 12.7142 21.8207 15.9549 19.8472 19.425L19.7996 19.2541C19.4737 18.0791 18.8366 17.0139 17.9555 16.171L17.8561 16.0756C17.3913 15.6324 16.6562 15.6481 16.2107 16.1102L16.128 16.1961C15.3227 17.0357 14.7466 18.0682 14.4551 19.1945L14.404 19.3937C12.4451 15.9381 11.8444 12.7112 11.6605 11.0383C11.6199 10.6707 11.6613 10.2987 11.7815 9.94904C11.9018 9.59934 12.098 9.2806 12.356 9.01573Z" fill="#1B8976"/>
<path d="M9.94017 27.0728C10.9034 28.0459 11.8618 28.9154 12.7444 29.6644C11.4675 29.8223 10.3532 30.0474 9.47156 30.329C7.9689 30.8085 7.23823 31.4222 7.23823 32.2048C7.23823 33.1374 8.28075 33.8364 10.4255 34.3422C12.2248 34.7663 14.6074 35 17.1346 35C19.6618 35 22.0444 34.7663 23.8437 34.3422C25.9884 33.8364 27.031 33.1373 27.031 32.2048C27.031 31.4243 26.3042 30.8116 24.8092 30.3325C23.926 30.0495 22.8073 29.8228 21.5251 29.6643C22.4074 28.9154 23.3659 28.0457 24.3291 27.0728C26.3302 25.0513 27.9269 23.006 29.0755 20.9937C30.5309 18.4433 31.2689 15.9352 31.2689 13.5393C31.2692 6.07367 24.9281 0 17.1346 0C9.3411 0 3 6.07367 3 13.5394C3 15.9352 3.73838 18.4433 5.19383 20.9938C6.34234 23.0061 7.93913 25.0514 9.94017 27.0729V27.0728ZM24.2417 31.4223C25.4992 31.7956 25.7698 32.1317 25.8161 32.2064C25.7302 32.3636 25.1433 32.8226 23.3258 33.2203C21.644 33.5886 19.4452 33.7914 17.1346 33.7914C14.824 33.7914 12.6253 33.5886 10.9435 33.2203C9.12594 32.8226 8.53904 32.3636 8.45314 32.2063C8.49975 32.1314 8.77186 31.7935 10.0381 31.419C11.0866 31.1095 12.4744 30.8766 14.063 30.7433C15.6234 31.9735 16.7297 32.6856 16.8091 32.7367C16.9063 32.7987 17.0193 32.8316 17.1346 32.8316C17.25 32.8316 17.3629 32.7987 17.4601 32.7367C17.5398 32.6856 18.6458 31.9735 20.2063 30.7433C21.8004 30.8773 23.1927 31.1109 24.2417 31.4223ZM17.1346 1.20872C24.2618 1.20872 30.0605 6.74005 30.0605 13.5391C30.0605 15.719 29.3779 18.0219 28.032 20.3836C26.9386 22.302 25.4094 24.2605 23.4869 26.2053C21.5367 28.1621 19.4103 29.935 17.1346 31.5014C14.859 29.9351 12.7327 28.1623 10.7826 26.2056C8.86003 24.2609 7.33092 22.3023 6.23756 20.3839C4.89165 18.0222 4.20872 15.7193 4.20872 13.5394C4.20872 6.74035 10.0074 1.20872 17.1346 1.20872Z" fill="#1B8976"/>
<path d="M17.1348 24.3783C22.9149 24.3783 27.6173 19.6759 27.6173 13.8958C27.6173 8.11576 22.9149 3.41309 17.1348 3.41309C11.3547 3.41309 6.65234 8.11576 6.65234 13.8957C6.65234 19.6758 11.3547 24.3782 17.1348 24.3782V24.3783ZM17.1348 4.62211C22.2565 4.62211 26.4086 8.77406 26.4086 13.8958C26.4086 19.0175 22.2565 23.1696 17.1348 23.1696C12.0131 23.1696 7.86106 19.0177 7.86106 13.8958C7.86696 8.77648 12.0154 4.6277 17.1348 4.62181V4.62211Z" fill="#1B8976"/>
</svg>
