<svg width="500" height="486" viewBox="0 0 500 486" fill="none" xmlns="http://www.w3.org/2000/svg">
<mask id="path-1-inside-1_90_2" fill="white">
<path d="M359.299 96.1315L369.5 62.9226C369.805 61.929 370.421 61.0595 371.257 60.4418C372.093 59.8241 373.105 59.4908 374.145 59.4908C375.184 59.4908 376.196 59.8241 377.032 60.4418C377.869 61.0595 378.484 61.929 378.79 62.9226L388.991 96.1315L422.2 106.333C423.193 106.638 424.063 107.254 424.681 108.09C425.298 108.926 425.632 109.938 425.632 110.977C425.632 112.017 425.298 113.029 424.681 113.865C424.063 114.701 423.193 115.317 422.2 115.622L388.991 125.823L378.79 159.032C378.484 160.026 377.868 160.895 377.032 161.512C376.196 162.13 375.184 162.463 374.145 162.463C373.106 162.463 372.094 162.13 371.258 161.512C370.422 160.895 369.806 160.026 369.5 159.032L359.299 125.823L326.091 115.622C325.098 115.317 324.228 114.701 323.61 113.865C322.993 113.029 322.659 112.017 322.659 110.977C322.659 109.938 322.993 108.926 323.61 108.09C324.228 107.254 325.098 106.638 326.091 106.333L359.299 96.1315ZM364.615 104.665L344.067 110.977L364.615 117.29C365.373 117.523 366.063 117.938 366.624 118.499C367.185 119.06 367.6 119.75 367.833 120.508L374.145 141.058L380.458 120.508C380.692 119.75 381.107 119.06 381.668 118.499C382.229 117.938 382.919 117.523 383.677 117.29L404.225 110.977L383.677 104.665C382.919 104.432 382.229 104.017 381.668 103.456C381.107 102.895 380.692 102.205 380.458 101.447L374.145 80.8974L367.833 101.447C367.6 102.205 367.185 102.895 366.624 103.456C366.063 104.017 365.373 104.432 364.615 104.665ZM373.373 35.4726C373.373 34.4331 373.707 33.4209 374.325 32.5848C374.942 31.7487 375.812 31.1329 376.806 30.8277L397.764 24.3896L404.202 3.43181C404.507 2.4382 405.123 1.5687 405.959 0.951013C406.795 0.333323 407.807 0 408.847 0C409.886 0 410.898 0.333323 411.734 0.951013C412.57 1.5687 413.186 2.4382 413.492 3.43181L419.93 24.3896L440.888 30.8277C441.882 31.133 442.751 31.7489 443.369 32.5849C443.987 33.4209 444.32 34.4329 444.32 35.4724C444.32 36.5119 443.987 37.524 443.37 38.3601C442.752 39.1962 441.882 39.8122 440.889 40.1176L419.93 46.5563L413.492 67.5141C413.186 68.5077 412.57 69.3772 411.734 69.9949C410.898 70.6126 409.886 70.9459 408.847 70.9459C407.807 70.9459 406.795 70.6126 405.959 69.9949C405.123 69.3772 404.507 68.5077 404.202 67.5141L397.764 46.5563L376.805 40.1176C375.812 39.8124 374.942 39.1965 374.324 38.3604C373.707 37.5244 373.373 36.5122 373.373 35.4726ZM394.781 35.4726L403.08 38.022C403.838 38.2552 404.528 38.6705 405.089 39.2315C405.65 39.7926 406.065 40.4824 406.298 41.2407L408.847 49.5387L411.396 41.2407C411.629 40.4824 412.044 39.7926 412.605 39.2315C413.166 38.6705 413.855 38.2552 414.614 38.022L422.913 35.4726L414.614 32.9239C413.856 32.6908 413.166 32.2756 412.605 31.7145C412.044 31.1535 411.629 30.4636 411.396 29.7052L408.847 21.4072L406.298 29.7052C406.065 30.4636 405.65 31.1535 405.089 31.7145C404.528 32.2756 403.838 32.6908 403.079 32.9239L394.781 35.4726ZM499.719 90.5013C499.719 91.5409 499.385 92.5531 498.768 93.3892C498.15 94.2252 497.28 94.8411 496.286 95.1463L469.026 103.52L460.653 130.781C460.347 131.774 459.731 132.644 458.895 133.261C458.059 133.879 457.047 134.212 456.008 134.212C454.968 134.212 453.956 133.879 453.12 133.261C452.284 132.644 451.668 131.774 451.363 130.781L442.989 103.52L415.729 95.1469C414.735 94.8416 413.866 94.2257 413.248 93.3897C412.63 92.5537 412.297 91.5416 412.297 90.5022C412.297 89.4627 412.63 88.4506 413.248 87.6145C413.865 86.7784 414.735 86.1624 415.728 85.857L442.989 77.4831L451.363 50.2226C451.668 49.229 452.284 48.3595 453.12 47.7418C453.956 47.1242 454.968 46.7908 456.008 46.7908C457.047 46.7908 458.059 47.1242 458.895 47.7418C459.731 48.3595 460.347 49.229 460.653 50.2226L469.026 77.4831L496.287 85.857C497.281 86.162 498.15 86.7778 498.768 87.6138C499.386 88.4498 499.719 89.4619 499.719 90.5013ZM478.311 90.5013L463.71 86.0161C462.952 85.7829 462.262 85.3677 461.701 84.8068C461.141 84.2459 460.725 83.5562 460.492 82.798L456.007 68.1968L451.522 82.798C451.289 83.5562 450.873 84.2459 450.312 84.8068C449.752 85.3677 449.062 85.7829 448.304 86.0161L433.703 90.5013L448.303 94.9859C449.061 95.219 449.751 95.6341 450.312 96.195C450.873 96.756 451.289 97.4457 451.522 98.204L456.007 112.805L460.492 98.204C460.725 97.4457 461.141 96.756 461.702 96.195C462.263 95.6341 462.953 95.219 463.711 94.9859L478.311 90.5013Z"/>
</mask>
<path d="M359.299 96.1315L369.5 62.9226C369.805 61.929 370.421 61.0595 371.257 60.4418C372.093 59.8241 373.105 59.4908 374.145 59.4908C375.184 59.4908 376.196 59.8241 377.032 60.4418C377.869 61.0595 378.484 61.929 378.79 62.9226L388.991 96.1315L422.2 106.333C423.193 106.638 424.063 107.254 424.681 108.09C425.298 108.926 425.632 109.938 425.632 110.977C425.632 112.017 425.298 113.029 424.681 113.865C424.063 114.701 423.193 115.317 422.2 115.622L388.991 125.823L378.79 159.032C378.484 160.026 377.868 160.895 377.032 161.512C376.196 162.13 375.184 162.463 374.145 162.463C373.106 162.463 372.094 162.13 371.258 161.512C370.422 160.895 369.806 160.026 369.5 159.032L359.299 125.823L326.091 115.622C325.098 115.317 324.228 114.701 323.61 113.865C322.993 113.029 322.659 112.017 322.659 110.977C322.659 109.938 322.993 108.926 323.61 108.09C324.228 107.254 325.098 106.638 326.091 106.333L359.299 96.1315ZM364.615 104.665L344.067 110.977L364.615 117.29C365.373 117.523 366.063 117.938 366.624 118.499C367.185 119.06 367.6 119.75 367.833 120.508L374.145 141.058L380.458 120.508C380.692 119.75 381.107 119.06 381.668 118.499C382.229 117.938 382.919 117.523 383.677 117.29L404.225 110.977L383.677 104.665C382.919 104.432 382.229 104.017 381.668 103.456C381.107 102.895 380.692 102.205 380.458 101.447L374.145 80.8974L367.833 101.447C367.6 102.205 367.185 102.895 366.624 103.456C366.063 104.017 365.373 104.432 364.615 104.665ZM373.373 35.4726C373.373 34.4331 373.707 33.4209 374.325 32.5848C374.942 31.7487 375.812 31.1329 376.806 30.8277L397.764 24.3896L404.202 3.43181C404.507 2.4382 405.123 1.5687 405.959 0.951013C406.795 0.333323 407.807 0 408.847 0C409.886 0 410.898 0.333323 411.734 0.951013C412.57 1.5687 413.186 2.4382 413.492 3.43181L419.93 24.3896L440.888 30.8277C441.882 31.133 442.751 31.7489 443.369 32.5849C443.987 33.4209 444.32 34.4329 444.32 35.4724C444.32 36.5119 443.987 37.524 443.37 38.3601C442.752 39.1962 441.882 39.8122 440.889 40.1176L419.93 46.5563L413.492 67.5141C413.186 68.5077 412.57 69.3772 411.734 69.9949C410.898 70.6126 409.886 70.9459 408.847 70.9459C407.807 70.9459 406.795 70.6126 405.959 69.9949C405.123 69.3772 404.507 68.5077 404.202 67.5141L397.764 46.5563L376.805 40.1176C375.812 39.8124 374.942 39.1965 374.324 38.3604C373.707 37.5244 373.373 36.5122 373.373 35.4726ZM394.781 35.4726L403.08 38.022C403.838 38.2552 404.528 38.6705 405.089 39.2315C405.65 39.7926 406.065 40.4824 406.298 41.2407L408.847 49.5387L411.396 41.2407C411.629 40.4824 412.044 39.7926 412.605 39.2315C413.166 38.6705 413.855 38.2552 414.614 38.022L422.913 35.4726L414.614 32.9239C413.856 32.6908 413.166 32.2756 412.605 31.7145C412.044 31.1535 411.629 30.4636 411.396 29.7052L408.847 21.4072L406.298 29.7052C406.065 30.4636 405.65 31.1535 405.089 31.7145C404.528 32.2756 403.838 32.6908 403.079 32.9239L394.781 35.4726ZM499.719 90.5013C499.719 91.5409 499.385 92.5531 498.768 93.3892C498.15 94.2252 497.28 94.8411 496.286 95.1463L469.026 103.52L460.653 130.781C460.347 131.774 459.731 132.644 458.895 133.261C458.059 133.879 457.047 134.212 456.008 134.212C454.968 134.212 453.956 133.879 453.12 133.261C452.284 132.644 451.668 131.774 451.363 130.781L442.989 103.52L415.729 95.1469C414.735 94.8416 413.866 94.2257 413.248 93.3897C412.63 92.5537 412.297 91.5416 412.297 90.5022C412.297 89.4627 412.63 88.4506 413.248 87.6145C413.865 86.7784 414.735 86.1624 415.728 85.857L442.989 77.4831L451.363 50.2226C451.668 49.229 452.284 48.3595 453.12 47.7418C453.956 47.1242 454.968 46.7908 456.008 46.7908C457.047 46.7908 458.059 47.1242 458.895 47.7418C459.731 48.3595 460.347 49.229 460.653 50.2226L469.026 77.4831L496.287 85.857C497.281 86.162 498.15 86.7778 498.768 87.6138C499.386 88.4498 499.719 89.4619 499.719 90.5013ZM478.311 90.5013L463.71 86.0161C462.952 85.7829 462.262 85.3677 461.701 84.8068C461.141 84.2459 460.725 83.5562 460.492 82.798L456.007 68.1968L451.522 82.798C451.289 83.5562 450.873 84.2459 450.312 84.8068C449.752 85.3677 449.062 85.7829 448.304 86.0161L433.703 90.5013L448.303 94.9859C449.061 95.219 449.751 95.6341 450.312 96.195C450.873 96.756 451.289 97.4457 451.522 98.204L456.007 112.805L460.492 98.204C460.725 97.4457 461.141 96.756 461.702 96.195C462.263 95.6341 462.953 95.219 463.711 94.9859L478.311 90.5013Z" stroke="black" stroke-width="16" mask="url(#path-1-inside-1_90_2)"/>
<path d="M444.881 147.807C442.588 146.413 439.598 147.145 438.206 149.439C426.766 168.265 418.554 188.871 413.909 210.404C412.709 215.956 411.427 223.023 410.069 230.505C407.197 246.338 403.94 264.284 399.696 278.686C393.36 300.187 388.273 301.133 387.714 301.17C386.744 301.25 377.922 300.406 362.455 252.548C358.953 235.135 355.118 221.676 351.056 212.54C346.278 201.792 340.935 196.567 334.723 196.567C328.512 196.567 323.17 201.792 318.391 212.54C314.329 221.676 310.495 235.134 306.993 252.548C291.494 300.501 282.686 301.318 281.721 301.278C281.166 301.24 276.116 300.301 269.802 278.889C265.563 264.512 262.278 246.47 259.381 230.552C257.67 221.153 256.192 213.036 254.738 206.858C249.024 182.584 238.927 159.891 224.721 139.397C211.429 109.85 219.759 75.1354 245.063 54.8433C270.237 34.6545 305.916 33.9845 331.828 53.213C332.666 53.8348 333.681 54.1706 334.724 54.1706C335.767 54.1706 336.783 53.8348 337.62 53.213C343.89 48.5537 350.887 44.9635 358.328 42.588C358.938 42.3957 359.504 42.0849 359.994 41.6733C360.484 41.2617 360.887 40.7576 361.182 40.1897C361.476 39.6218 361.655 39.0014 361.71 38.364C361.764 37.7266 361.691 37.0849 361.497 36.4755C361.302 35.8662 360.989 35.3012 360.576 34.8131C360.163 34.325 359.657 33.9232 359.088 33.631C358.519 33.3387 357.898 33.1616 357.26 33.1099C356.623 33.0582 355.981 33.1329 355.373 33.3297C348.045 35.6673 341.092 39.0439 334.723 43.3564C305.547 23.6231 266.672 25.0542 238.982 47.2615C210.09 70.4322 200.663 110.142 216.059 143.827C216.18 144.092 216.325 144.346 216.491 144.584C230.127 164.163 239.813 185.864 245.278 209.085C246.675 215.02 248.133 223.024 249.82 232.292C258.086 277.7 265.168 309.924 281.081 310.975C281.347 310.993 281.611 311.002 281.876 311.001C293.413 311.001 303.77 294.207 316.328 255.269C316.385 255.093 316.432 254.914 316.468 254.732C326.067 206.84 334.639 206.286 334.725 206.286C334.81 206.286 343.382 206.84 352.982 254.732C353.018 254.914 353.065 255.093 353.122 255.269C365.944 295.028 376.501 311.661 388.358 310.867C404.337 309.808 411.4 277.611 419.632 232.241C420.975 224.84 422.244 217.851 423.409 212.457C427.826 191.98 435.636 172.386 446.514 154.483C446.845 153.938 447.065 153.332 447.163 152.702C447.26 152.071 447.232 151.427 447.08 150.807C446.929 150.187 446.656 149.603 446.279 149.088C445.902 148.574 445.427 148.138 444.881 147.807Z" stroke="black" stroke-width="12"/>
<path d="M95.041 435.954L99.8018 436.183C111.878 436.762 127.43 434.093 150.093 441.655L150.094 441.656L241.85 472.24L241.855 472.242C257.38 477.398 274.603 476.081 289.156 468.546L289.174 468.536L475.327 371.172C486.348 366.402 491.597 354.35 487.416 343.549L487.208 343.032C482.668 332.141 470.14 327.004 459.261 331.529L459.209 331.551L459.157 331.573L329.382 389.02C325.181 390.872 321.266 392.245 317.776 392.245H223.796C223.428 392.245 223.064 392.173 222.724 392.032C222.384 391.891 222.075 391.685 221.814 391.425C221.554 391.165 221.348 390.856 221.207 390.516C221.066 390.176 220.994 389.811 220.994 389.443V389.44C220.994 389.072 221.066 388.707 221.207 388.367C221.348 388.027 221.554 387.718 221.814 387.458C222.075 387.198 222.384 386.991 222.724 386.851C223.064 386.71 223.429 386.638 223.797 386.638H317.12C327.843 386.638 336.555 377.92 336.555 367.202C336.554 356.702 328.196 348.208 317.833 347.825L317.74 347.821H239.178C238.96 347.821 238.841 347.824 238.78 347.823C238.733 347.81 238.639 347.783 238.484 347.728C237.606 347.413 235.967 346.682 232.138 344.884C224.672 341.377 209.718 334.222 178.354 319.726H178.354C167.353 314.614 155.372 311.958 143.241 311.94H95.041V435.954ZM10.6084 462.787H68.6396C80.1072 462.787 89.4307 453.469 89.4307 441.996V306.126C89.4307 294.653 80.1072 285.335 68.6396 285.335H10.6084V462.787ZM316.463 342.032C316.471 342.034 316.479 342.036 316.488 342.039C316.477 342.036 316.467 342.034 316.458 342.031C316.445 342.028 316.434 342.023 316.424 342.021C316.435 342.024 316.448 342.028 316.463 342.032ZM318.418 341.978C318.415 341.978 318.411 341.979 318.407 341.98C318.415 341.978 318.423 341.976 318.427 341.975C318.429 341.974 318.43 341.973 318.432 341.973C318.433 341.972 318.434 341.973 318.435 341.973C318.433 341.973 318.426 341.975 318.418 341.978ZM5 282.529C4.99991 282.161 5.07221 281.797 5.21289 281.457C5.3537 281.117 5.56004 280.807 5.82031 280.547C6.08054 280.287 6.39032 280.08 6.73047 279.939C7.07042 279.799 7.4348 279.726 7.80273 279.727H68.6416C81.7788 279.727 92.6538 289.434 94.6162 302.099L95.2725 306.333H143.235C156.097 306.333 169.079 309.213 180.745 314.651L238.794 341.744L239.8 342.214H316.938L317.019 342.211C317.092 342.209 317.162 342.202 317.23 342.197C317.248 342.199 317.267 342.198 317.285 342.199C317.433 342.217 317.596 342.232 317.773 342.236V342.238C331.465 342.6 343.192 354.101 341.934 369.251L341.235 377.647L348.939 374.236L457 326.402C460.265 325.021 463.771 324.298 467.316 324.273C470.871 324.249 474.396 324.928 477.688 326.271C480.979 327.615 483.971 329.598 486.493 332.104C489.015 334.609 491.016 337.589 492.381 340.871L492.383 340.875C498.103 354.597 491.587 370.435 477.863 376.162L477.663 376.246L477.471 376.347L291.762 473.514C275.795 481.774 257.272 483.048 240.854 477.816L240.074 477.562L148.317 446.972C126.804 439.797 110.809 442.291 99.7764 441.804L95.3008 441.605L94.6143 446.032C92.6492 458.693 81.7753 468.396 68.6406 468.396H7.80273C7.43479 468.397 7.07042 468.324 6.73047 468.184C6.3904 468.043 6.0806 467.836 5.82031 467.576C5.56005 467.316 5.3537 467.006 5.21289 466.666C5.07221 466.326 4.99991 465.962 5 465.594V282.529Z" stroke="black" stroke-width="10"/>
</svg>
