<svg width="76" height="76" viewBox="0 0 76 76" fill="none" xmlns="http://www.w3.org/2000/svg">
<path d="M22.9735 51.1885L15.6436 68.7831L24.8157 66.1465L29.4018 74.5153L38 55.9156L46.5984 74.5153L51.1844 66.1465L60.3565 68.7831L53.0266 51.1885" stroke="#1B8976" stroke-width="2" stroke-miterlimit="10" stroke-linecap="round" stroke-linejoin="round"/>
<path d="M8.40625 29.8027C8.40625 26.798 12.2785 24.442 13.1589 21.7308C14.0714 18.9209 12.355 14.7447 14.0571 12.4058C15.7763 10.0434 20.2899 10.3937 22.6521 8.67453C24.991 6.9724 26.0431 2.56217 28.8531 1.64973C31.5643 0.769495 34.9956 3.6903 38.0002 3.6903C41.0049 3.6903 44.436 0.769495 47.1473 1.64988C49.9572 2.56232 51.0093 6.97255 53.3484 8.67468C55.7108 10.3939 60.2241 10.0436 61.9434 12.406C63.6455 14.7449 61.9292 18.9209 62.8415 21.7308C63.7219 24.442 67.5942 26.798 67.5942 29.8027C67.5942 32.8074 63.7219 35.1634 62.8415 37.8746C61.9291 40.6845 63.6455 44.8606 61.9434 47.1996C60.2241 49.5619 55.7106 49.2116 53.3484 50.9308C51.0094 52.633 49.9573 57.0432 47.1474 57.9556C44.4362 58.836 41.0049 55.9152 38.0002 55.9152C34.9956 55.9152 31.5644 58.836 28.8532 57.9556C26.0433 57.0432 24.9912 52.633 22.6522 50.9308C20.2899 49.2116 15.7765 49.5619 14.0571 47.1996C12.355 44.8606 14.0712 40.6846 13.1589 37.8747C12.2785 35.1634 8.40625 32.8074 8.40625 29.8027Z" stroke="#1B8976" stroke-width="2" stroke-miterlimit="10" stroke-linecap="round" stroke-linejoin="round"/>
<path d="M37.9998 49.9233C49.1122 49.9233 58.1206 40.9149 58.1206 29.8025C58.1206 18.6901 49.1122 9.68164 37.9998 9.68164C26.8873 9.68164 17.8789 18.6901 17.8789 29.8025C17.8789 40.9149 26.8873 49.9233 37.9998 49.9233Z" stroke="#1B8976" stroke-width="2" stroke-miterlimit="10" stroke-linecap="round" stroke-linejoin="round"/>
<path d="M37.9999 16.3887L41.8741 24.2386L50.537 25.4974L44.2684 31.6078L45.7482 40.2356L37.9999 36.162L30.2516 40.2356L31.7314 31.6078L25.4629 25.4974L34.1257 24.2386L37.9999 16.3887Z" stroke="#1B8976" stroke-width="2" stroke-miterlimit="10" stroke-linecap="round" stroke-linejoin="round"/>
</svg>
