<svg xmlns="http://www.w3.org/2000/svg" width="272" height="334" fill="none"><path stroke="#1B8976" stroke-linecap="round" stroke-linejoin="round" stroke-miterlimit="10" stroke-opacity=".2" stroke-width="10" d="M69.46 226 37 303.69l40.62-11.64L97.92 329 136 246.87 174.08 329l20.3-36.95L235 303.69 202.54 226"/><path stroke="#1B8976" stroke-linecap="round" stroke-linejoin="round" stroke-miterlimit="10" stroke-opacity=".2" stroke-width="10" d="M5 130.5c0-13.32 17.14-23.76 21.04-35.77C30.08 82.27 22.48 63.77 30 53.4c7.61-10.47 27.6-8.92 38.05-16.53 10.35-7.55 15.01-27.1 27.45-31.14 12-3.9 27.19 9.05 40.49 9.05s28.49-12.95 40.49-9.05c12.44 4.05 17.1 23.6 27.45 31.14 10.46 7.61 30.44 6.06 38.05 16.53 7.53 10.37-.07 28.87 3.97 41.33 3.9 12.01 21.04 22.45 21.04 35.77 0 13.32-17.14 23.76-21.04 35.77-4.04 12.45 3.56 30.96-3.97 41.33-7.61 10.47-27.6 8.92-38.05 16.53-10.35 7.55-15.01 27.1-27.45 31.14-12 3.9-27.19-9.05-40.49-9.05s-28.49 12.95-40.49 9.05c-12.44-4.05-17.1-23.6-27.45-31.14-10.46-7.61-30.44-6.06-38.05-16.53-7.53-10.37.07-28.87-3.97-41.33C22.14 154.26 5 143.82 5 130.5Z"/><path stroke="#1B8976" stroke-linecap="round" stroke-linejoin="round" stroke-miterlimit="10" stroke-opacity=".2" stroke-width="10" d="M136 220c49.15 0 89-40.07 89-89.5S185.15 41 136 41s-89 40.07-89 89.5S86.85 220 136 220Z"/><path stroke="#1B8976" stroke-linecap="round" stroke-linejoin="round" stroke-miterlimit="10" stroke-opacity=".2" stroke-width="10" d="m136 71 17.3 34.9 38.7 5.59-28 27.16 6.61 38.35L136 158.9 101.39 177l6.61-38.35-28-27.16 38.7-5.6L136 71Z"/></svg>