<svg width="19" height="19" viewBox="0 0 19 19" fill="none" xmlns="http://www.w3.org/2000/svg">
<path d="M8.53937 0.448706C6.3969 0.452296 4.34321 1.30442 2.82826 2.81838C1.31331 4.33234 0.460623 6.38468 0.457031 8.52574C0.458822 10.6686 1.31049 12.7234 2.82545 14.2399C4.3404 15.7564 6.3951 16.611 8.53937 16.6163C10.4411 16.6163 12.1934 15.9478 13.5789 14.8414L16.9443 18.2046C17.1148 18.363 17.3401 18.4492 17.5729 18.4452C17.8056 18.4411 18.0278 18.347 18.1926 18.1828C18.3574 18.0185 18.4522 17.7967 18.4568 17.5641C18.4615 17.3315 18.3759 17.1062 18.2178 16.9354L14.8524 13.5688C16.0018 12.1402 16.6284 10.3622 16.6285 8.52913C16.6285 4.07658 12.9948 0.448706 8.53937 0.448706ZM8.53937 2.24737C12.0236 2.24737 14.8286 5.04718 14.8286 8.52574C14.8286 12.0043 12.0236 14.8211 8.53937 14.8211C5.05513 14.8211 2.25348 12.0145 2.25348 8.53253C2.25348 5.05058 5.05513 2.24737 8.53937 2.24737Z" fill="#1B8976"/>
</svg>
