<svg width="76" height="76" viewBox="0 0 76 76" fill="none" xmlns="http://www.w3.org/2000/svg">
<g clip-path="url(#clip0_2438_8354)">
<path d="M38.0135 0.00781291C22.8087 0.0055967 9.06697 9.06877 3.08242 23.0462L2.60879 23.2032L2.79242 23.7541C-5.08714 43.188 4.27933 65.33 23.7132 73.2095C28.2522 75.0499 33.1043 75.9947 38.0022 75.992C58.9846 75.9951 75.9968 58.988 76 38.0056C76.0032 17.0232 58.996 0.0108206 38.0135 0.00781291ZM67.814 57.1549L65.8631 55.2052V50.6639C65.8653 50.468 65.8219 50.2742 65.7364 50.0978L60.7975 40.2338V35.4671C60.7975 35.2587 60.7461 35.0534 60.6478 34.8696C60.5495 34.6858 60.4073 34.5291 60.2339 34.4134L56.4347 31.8806C56.2874 31.7823 56.1212 31.716 55.9467 31.6859C55.7722 31.6558 55.5933 31.6626 55.4216 31.7059L50.7688 32.8684L42.9538 29.515L41.8787 21.9824L44.8585 19.0039H51.2551L53.408 22.2395C53.5042 22.3835 53.6289 22.5062 53.7744 22.6001C53.9199 22.694 54.0831 22.757 54.254 22.7853L61.8524 24.0517C62.0559 24.0859 62.2647 24.0694 62.4602 24.0036L69.4584 21.6709C75.328 32.9348 74.7002 46.4823 67.814 57.1549ZM62.5907 12.4869L60.5315 13.8597L54.7909 12.7111L51.0664 11.4713C50.8385 11.3938 50.5931 11.3841 50.3598 11.4434L45.6513 12.6199L43.587 11.9323L45.1169 8.87263H49.3998C49.5963 8.87283 49.7901 8.82731 49.9659 8.73966L54.3477 6.54878C57.3652 8.1238 60.1411 10.1236 62.5907 12.4869ZM24.1313 5.3685L27.1707 7.39474C27.32 7.49413 27.4888 7.56061 27.6658 7.58977L33.8028 8.61302L33.2038 10.405L30.0061 11.4726C29.7197 11.5678 29.4767 11.7623 29.321 12.0209L25.6839 18.0819L19.842 21.5873L11.2305 22.817C10.9286 22.8597 10.6522 23.0099 10.4521 23.2399C10.252 23.47 10.1417 23.7646 10.1414 24.0695V27.8687C10.1414 28.2045 10.2749 28.5266 10.5124 28.764L12.6742 30.9258V33.1015L7.40592 29.5884L5.49492 23.8554C9.13071 15.5478 15.7947 8.93729 24.1313 5.3685ZM20.5259 46.89L14.8017 45.744L12.6742 41.5002V38.5242L17.3928 33.8056L19.1391 37.2996C19.2444 37.5101 19.4061 37.6871 19.6063 37.8108C19.8065 37.9345 20.0372 38 20.2726 37.9999H28.4206L31.8513 43.7177C31.9638 43.905 32.1229 44.06 32.3131 44.1677C32.5033 44.2753 32.7181 44.3319 32.9366 44.3319H36.4572L35.5707 48.7732L30.7761 53.5678C30.6583 53.6853 30.5648 53.8248 30.5009 53.9784C30.437 54.1321 30.404 54.2968 30.4038 54.4631V57.6291L25.8447 61.0484C25.6875 61.1664 25.5598 61.3194 25.4719 61.4952C25.384 61.6711 25.3382 61.865 25.3382 62.0616V66.6358L23.7628 66.114L21.539 60.552V48.1311C21.539 47.8392 21.4382 47.5562 21.2536 47.33C21.069 47.1039 20.8119 46.9484 20.5259 46.89ZM16.719 66.358C4.77861 57.3999 -0.271013 41.9219 4.08921 27.6458L5.14159 30.8017C5.23023 31.0688 5.40535 31.2987 5.63929 31.4551L11.9523 35.6634L10.5124 37.1045C10.2749 37.342 10.1414 37.6641 10.1414 37.9999V41.7991C10.1412 41.9956 10.1867 42.1894 10.2743 42.3652L12.8071 47.4308C12.8937 47.6034 13.0185 47.754 13.1722 47.871C13.3258 47.988 13.5042 48.0683 13.6936 48.1058L19.0125 49.1683V60.7952C19.0124 60.9561 19.0429 61.1155 19.1024 61.265L21.6352 67.597C21.7037 67.7679 21.8087 67.9218 21.9427 68.048C22.0768 68.1742 22.2368 68.2697 22.4115 68.3277L26.2107 69.5941C26.3376 69.6371 26.4706 69.6594 26.6046 69.66C26.9405 69.66 27.2626 69.5265 27.5001 69.289C27.7376 69.0516 27.871 68.7294 27.871 68.3936V62.6948L32.43 59.2755C32.5873 59.1575 32.715 59.0045 32.8029 58.8287C32.8908 58.6528 32.9366 58.4589 32.9366 58.2623V54.9874L37.6312 50.2929C37.8077 50.116 37.928 49.8908 37.9769 49.6457L39.2433 43.3137C39.28 43.1301 39.2755 42.9406 39.2302 42.7588C39.1848 42.5771 39.0997 42.4077 38.981 42.2629C38.8623 42.118 38.7129 42.0013 38.5437 41.9211C38.3744 41.8409 38.1895 41.7992 38.0022 41.7991H33.6534L30.2227 36.0813C30.1102 35.894 29.9511 35.739 29.7609 35.6313C29.5707 35.5237 29.3559 35.4671 29.1374 35.4671H21.0552L18.8795 31.1018C18.7897 30.9222 18.6585 30.7665 18.4966 30.6476C18.3348 30.5287 18.147 30.4499 17.9487 30.4179C17.7507 30.3837 17.5473 30.3981 17.356 30.4599C17.1648 30.5217 16.9914 30.6289 16.8508 30.7725L15.207 32.41V30.4015C15.2069 30.0656 15.0734 29.7436 14.8359 29.5061L12.6742 27.3444V25.1674L20.4524 24.0568C20.6195 24.0326 20.7801 23.9753 20.9248 23.8884L27.2568 20.0892C27.4344 19.9824 27.5832 19.8337 27.6899 19.6561L31.2485 13.7255L34.6032 12.606C34.79 12.5447 34.9598 12.4403 35.0989 12.3013C35.2379 12.1623 35.3423 11.9925 35.4036 11.8056L36.67 8.00641C36.7273 7.83302 36.7464 7.64928 36.726 7.4678C36.7057 7.28633 36.6463 7.1114 36.552 6.95502C36.4577 6.79864 36.3307 6.6645 36.1796 6.56182C36.0286 6.45913 35.8572 6.39031 35.6771 6.36009L28.3472 5.13801L27.0592 4.27939C35.0285 1.68554 43.66 2.00644 51.4147 5.18487L49.101 6.33983H44.3342C44.0978 6.33854 43.8658 6.40345 43.6643 6.52722C43.4629 6.65098 43.3001 6.82866 43.1945 7.04015L40.6617 12.1058C40.5807 12.2681 40.5356 12.4458 40.5293 12.6271C40.5231 12.8083 40.5558 12.9888 40.6253 13.1563C40.6949 13.3238 40.7995 13.4744 40.9323 13.598C41.0651 13.7215 41.2228 13.8151 41.3949 13.8724L45.1941 15.1388C45.4221 15.2162 45.6674 15.226 45.9008 15.1667L50.6093 13.9902L54.0589 15.1388C54.1083 15.1565 54.1591 15.1701 54.2109 15.1793L60.5429 16.4457C60.706 16.479 60.874 16.4795 61.0372 16.4473C61.2005 16.4152 61.3557 16.3509 61.494 16.2583L64.3763 14.3359C65.7948 15.9159 67.0696 17.6192 68.1857 19.4256L61.955 21.5025L55.2088 20.3779L52.98 17.0346C52.8649 16.8621 52.7092 16.7205 52.5266 16.6222C52.344 16.524 52.14 16.4721 51.9326 16.4711H44.3342C43.9984 16.4711 43.6763 16.6046 43.4389 16.8421L39.6397 20.6413C39.5005 20.7804 39.3957 20.9499 39.3335 21.1366C39.2713 21.3232 39.2534 21.5218 39.2813 21.7165L40.5477 30.5813C40.579 30.7968 40.6654 31.0006 40.7985 31.173C40.9316 31.3453 41.1069 31.4805 41.3075 31.5653L50.1723 35.3645C50.4263 35.4745 50.7095 35.4972 50.9778 35.4291L55.5001 34.2982L58.2647 36.1446V40.5327C58.2624 40.7287 58.3058 40.9225 58.3913 41.0988L63.3303 50.9628V55.7295C63.3303 56.0654 63.4638 56.3874 63.7013 56.6249L66.3506 59.2755C54.6011 74.9366 32.3802 78.1077 16.719 66.358Z" fill="#1B8976"/>
</g>
<defs>
<clipPath id="clip0_2438_8354">
<rect width="76" height="76" rx="25" fill="white"/>
</clipPath>
</defs>
</svg>
