<svg width="235" height="234" viewBox="0 0 235 234" fill="none" xmlns="http://www.w3.org/2000/svg">
<path d="M117.066 1.2514e-06C70.401 -0.00680055 28.2107 27.7145 9.68158 70.5102C9.56117 70.7883 9.32794 71.0036 9.04029 71.099C8.4848 71.2832 8.1842 71.8832 8.36926 72.4384L8.44728 72.6724C8.54554 72.9672 8.53415 73.2896 8.41857 73.578C-15.522 133.318 13.3282 201.227 73.0273 225.432C87.0054 231.1 101.948 234.009 117.032 234.001C181.649 234.011 234.04 181.635 234.05 117.018C234.059 52.4006 181.684 0.00926378 117.066 1.2514e-06ZM212.133 170.544C210.522 173.394 206.654 173.806 204.338 171.492C203.374 170.528 202.832 169.22 202.832 167.856V156.001C202.839 155.397 202.705 154.8 202.442 154.257L189.877 129.164C188.138 125.689 187.232 121.857 187.232 117.971V109.2C187.232 108.558 187.074 107.926 186.771 107.36C186.468 106.794 186.03 106.312 185.496 105.956L173.796 98.1555C173.343 97.8527 172.831 97.6484 172.293 97.5557C171.756 97.463 171.205 97.484 170.676 97.6173L164.523 99.1549C159.219 100.48 153.628 100.03 148.604 97.8748L143.673 95.7589C136.598 92.723 131.617 86.2192 130.529 78.5975L129.972 74.6995C129.341 70.2763 130.829 65.814 133.989 62.6553C136.651 59.9948 140.26 58.5002 144.024 58.5002H146.734C153.675 58.5002 160.155 61.9723 164 67.7509L164.475 68.4647C164.771 68.9081 165.156 69.2861 165.604 69.5752C166.052 69.8643 166.554 70.0585 167.08 70.1456L190.481 74.0457C191.107 74.1508 191.75 74.0999 192.353 73.8975L193.68 73.4551C205.332 69.571 218.402 74.672 221.85 86.4609C230.033 114.443 226.685 144.81 212.133 170.544ZM188.539 34.5712C190.756 36.4975 190.442 39.972 187.999 41.6011C186.983 42.2781 185.741 42.5238 184.544 42.2844L168.734 39.121L157.264 35.3029C156.562 35.0643 155.806 35.0345 155.088 35.2171L141.898 38.5129C141.042 38.7267 140.143 38.6922 139.307 38.4135C136.628 37.5211 135.361 34.4627 136.623 31.9371L137.298 30.5878C138.305 28.5729 140.365 27.3001 142.618 27.3001H152.132C152.737 27.3007 153.334 27.1605 153.875 26.8906L159.186 24.235C164.325 21.6654 170.439 21.6361 175.293 24.7102C179.949 27.6586 184.377 30.9548 188.539 34.5712ZM64.217 21.4574C70.3527 18.0503 77.8353 18.8558 83.6748 22.7488C84.1347 23.0549 84.6545 23.2596 85.1997 23.3494L100.075 25.8296C102.187 26.1818 103.485 28.3388 102.806 30.37C102.459 31.4083 101.644 32.2231 100.605 32.5698L92.4069 35.3068C91.5248 35.6003 90.7766 36.1992 90.297 36.9955L82.3114 50.3029C80.2004 53.8209 77.256 56.7652 73.738 58.8761L65.4354 63.858C62.5776 65.5728 59.4057 66.6989 56.1064 67.1701L34.5853 70.2431C33.6556 70.3746 32.8045 70.8371 32.1883 71.5456C31.5722 72.2542 31.2324 73.1613 31.2313 74.1003V85.8003C31.2315 86.8346 31.6426 87.8264 32.374 88.5576L38.1717 94.3553C38.7221 94.9057 39.0313 95.6522 39.0313 96.4306C39.0313 98.7748 36.4186 100.173 34.4682 98.8724L25.3236 92.7745C23.6927 91.6869 22.4707 90.0869 21.8509 88.2273L19.9625 82.5622C18.0055 76.6911 18.1901 70.2433 21.1574 64.8124C31.1237 46.5714 46.0637 31.5376 64.217 21.4574ZM63.2114 144.378L55.2389 142.782C49.1457 141.562 43.9551 137.601 41.1701 132.046L40.5247 130.759C39.5427 128.8 39.0313 126.639 39.0313 124.448V123.339C39.0313 120.314 40.2329 117.413 42.3718 115.274L45.0568 112.59C49.2411 108.405 56.2952 109.55 58.9409 114.844C59.2649 115.492 59.7631 116.037 60.3797 116.418C60.9962 116.799 61.7067 117.001 62.4314 117H73.3693C82.1509 117 90.2886 121.608 94.8066 129.138L98.0892 134.609C98.4358 135.186 98.9257 135.663 99.5114 135.995C100.097 136.326 100.759 136.5 101.432 136.5C107.041 136.5 111.249 141.632 110.151 147.133L110.087 147.456C109.733 149.231 108.861 150.861 107.581 152.141L94.7781 164.943C94.4153 165.305 94.1273 165.735 93.9306 166.208C93.7338 166.681 93.6322 167.188 93.6315 167.701C93.6315 173.838 90.7417 179.618 85.8315 183.301L79.5915 187.981C79.1072 188.344 78.7141 188.815 78.4433 189.357C78.1725 189.898 78.0315 190.495 78.0315 191.101V201.362C78.0315 203.245 76.1879 204.577 74.3997 203.985C73.6262 203.729 73.0053 203.144 72.7028 202.388L68.118 190.92C66.9378 187.968 66.3314 184.818 66.3314 181.639V148.201C66.3316 147.301 66.0211 146.43 65.4526 145.733C64.884 145.037 64.0923 144.558 63.2114 144.378ZM51.488 204.332C17.4692 178.81 1.61281 136.103 10.0613 95.0406C10.7034 91.9195 14.826 91.8099 15.834 94.8327C16.107 95.6553 16.6463 96.3634 17.3668 96.8451L31.588 106.325C34.289 108.126 34.6684 111.947 32.374 114.243C31.6426 114.974 31.2315 115.966 31.2313 117V128.7C31.2307 129.305 31.3709 129.902 31.6408 130.444L39.4408 146.044C39.7073 146.575 40.0919 147.039 40.565 147.399C41.0382 147.76 41.5875 148.007 42.1708 148.123C51.6946 150.025 58.5509 158.386 58.5509 168.098V187.201C58.5505 187.696 58.6444 188.187 58.8278 188.648L66.6278 208.148C66.8388 208.674 67.162 209.148 67.5749 209.537C67.9878 209.925 68.4804 210.219 69.0185 210.398L80.7186 214.298C81.1093 214.43 81.5189 214.499 81.9315 214.501C82.9658 214.501 83.9578 214.09 84.6892 213.358C85.4206 212.627 85.8315 211.635 85.8315 210.601V205.551C85.8315 197.682 89.5363 190.272 95.8315 185.551L99.8715 182.521C100.356 182.157 100.749 181.686 101.02 181.145C101.29 180.603 101.431 180.006 101.432 179.401C101.432 172.943 103.997 166.75 108.563 162.184L115.889 154.858C116.433 154.313 116.803 153.62 116.954 152.865L120.854 133.365C120.967 132.799 120.953 132.216 120.813 131.656C120.674 131.096 120.411 130.575 120.046 130.129C119.68 129.682 119.22 129.323 118.699 129.076C118.178 128.829 117.608 128.701 117.032 128.7C108.723 128.7 101.023 124.341 96.7485 117.216L93.0738 111.092C92.7272 110.515 92.2373 110.038 91.6516 109.706C91.0659 109.375 90.4045 109.201 89.7315 109.2H79.8621C70.6585 109.2 62.2469 103.994 58.1414 95.757C57.8648 95.2038 57.4607 94.7243 56.9622 94.3582C56.4638 93.992 55.8855 93.7496 55.2749 93.651C54.665 93.5457 54.0386 93.59 53.4496 93.7802C52.8606 93.9704 52.3266 94.3008 51.8936 94.743L51.2135 95.4204C49.5937 97.034 46.8314 95.8867 46.8314 93.6003C46.8311 92.5661 46.4201 91.5742 45.6886 90.843L40.5635 85.7179C39.5825 84.7368 39.0313 83.4063 39.0313 82.0189C39.0313 79.4154 40.9458 77.2082 43.5231 76.8402L62.9852 74.0613C63.4997 73.9866 63.9942 73.8103 64.4399 73.5426L83.94 61.8425C84.4871 61.5138 84.9451 61.0558 85.2738 60.5087L91.4772 50.1705C94.5461 45.056 99.3425 41.2072 105 39.3191L106.564 38.7973C107.139 38.6086 107.662 38.2872 108.09 37.859C108.519 37.4308 108.84 36.9079 109.029 36.3325L112.929 24.6325C113.105 24.0985 113.164 23.5327 113.101 22.9738C113.039 22.4149 112.856 21.8762 112.565 21.3946C112.275 20.913 111.884 20.4999 111.419 20.1837C110.954 19.8675 110.426 19.6555 109.871 19.5625L87.7409 15.8728C87.4489 15.8241 87.1705 15.714 86.9242 15.5498C85.4694 14.58 85.7805 12.3748 87.4632 11.9C108.529 5.95553 130.879 6.50389 151.594 13.4364C154.254 14.3266 154.409 17.9037 151.9 19.1564C151.447 19.3824 150.948 19.5001 150.442 19.5001H136.532C135.804 19.4961 135.089 19.696 134.469 20.0772C133.848 20.4583 133.347 21.0055 133.022 21.6568L125.222 37.2568C124.972 37.7566 124.833 38.3042 124.814 38.8623C124.795 39.4205 124.896 39.9763 125.11 40.4921C125.324 41.008 125.646 41.4718 126.055 41.8523C126.464 42.2327 126.95 42.5209 127.48 42.6973L139.18 46.5974C139.882 46.8358 140.637 46.866 141.356 46.6832L148.799 44.8233C153.408 43.6717 158.25 43.8571 162.758 45.358L166.48 46.5974C166.632 46.652 166.788 46.6939 166.948 46.7222L186.448 50.6222C186.95 50.7246 187.467 50.7263 187.97 50.6272C188.473 50.5281 188.951 50.3302 189.377 50.045L191.62 48.5486C195.428 46.0093 200.558 46.6278 203.36 50.2456C206.998 54.9406 204.584 61.5989 198.95 63.477L193.949 65.144C191.879 65.8341 189.671 66.0073 187.518 65.6485L180.704 64.5125C173.888 63.3763 167.846 59.4698 164.013 53.7203L163.157 52.4357C162.803 51.9044 162.323 51.4684 161.761 51.1658C161.198 50.8632 160.57 50.7033 159.932 50.7002H136.532C135.497 50.7004 134.506 51.1114 133.774 51.8429L122.074 63.5429C121.646 63.9712 121.323 64.4934 121.131 65.0681C120.94 65.6429 120.885 66.2543 120.971 66.854L124.871 94.1541C124.967 94.8178 125.233 95.4454 125.643 95.9762C126.053 96.507 126.593 96.9231 127.211 97.1844L154.511 108.884C155.293 109.223 156.165 109.293 156.991 109.083L166.418 106.726C169.284 106.009 172.319 106.536 174.775 108.177C177.685 110.12 179.432 113.388 179.432 116.886V124.8C179.425 125.404 179.559 126.001 179.822 126.544L192.386 151.637C194.126 155.112 195.032 158.944 195.032 162.83V171.601C195.032 172.635 195.443 173.627 196.175 174.358C200.856 179.042 201.443 186.524 196.938 191.377C159.399 231.82 96.6048 238.181 51.488 204.332Z" fill="#1B8976" fill-opacity="0.2"/>
</svg>
