<svg width="1920" height="948" viewBox="0 0 1920 948" fill="none" xmlns="http://www.w3.org/2000/svg">
<g clip-path="url(#clip0_8133_280)">
<rect width="1920" height="948" fill="white"/>
<path opacity="0.41" d="M1056.53 1313H1054.13C1008.79 1301.18 960.8 1300.1 909.42 1313H906.947C960.163 1299.22 1009.75 1300.42 1056.53 1313M1095.14 1313H1093.84C1003.62 1264.93 905.273 1255.15 793.075 1313H791.742C905.012 1254.17 1004.19 1264.21 1095.14 1313ZM1109.21 1313H1108.16C1103.74 1309.98 1099.3 1307.03 1094.85 1304.17C978.8 1229.63 852.894 1211.77 706.87 1313H705.814C852.357 1211.01 978.673 1228.84 1095.09 1303.62C1099.82 1306.65 1104.52 1309.78 1109.21 1313H1109.21ZM1116.09 1313H1115.14C1092.6 1295.43 1069.83 1279.6 1046.77 1265.98C920.769 1191.55 786.017 1182.7 632.652 1313H631.73C785.534 1181.97 920.65 1190.78 1046.99 1265.42C1070.3 1279.19 1093.32 1295.2 1116.09 1313ZM1120.16 1313H1119.25C1079.03 1279.2 1038.4 1249.96 997.114 1227.7C863.207 1155.49 722.408 1156.63 566.232 1313H565.402C721.959 1155.93 863.092 1154.74 997.322 1227.13C1038.85 1249.52 1079.71 1278.96 1120.16 1313ZM1123.31 1313H1122.43C1064.1 1261.93 1005.47 1218.54 946.056 1189.55C805.841 1121.13 661.187 1132.95 505.652 1313H504.907C660.765 1132.3 805.726 1120.4 946.248 1188.97C1005.91 1218.08 1064.76 1261.68 1123.31 1313ZM449.111 1313C601.54 1110.6 748.501 1087.6 893.977 1151.14C971.746 1185.1 1049.08 1243.79 1126.59 1313H1125.72C1048.44 1244.04 971.328 1185.58 893.804 1151.73C748.632 1088.32 601.955 1111.23 449.81 1313H449.115H449.111ZM397.546 1313C544.235 1090.81 691.561 1056.29 840.731 1113.81C936.527 1150.76 1033.07 1225.62 1130.68 1313H1129.81C1032.43 1225.87 936.12 1151.25 840.577 1114.41C691.704 1057 544.646 1091.42 398.203 1313H397.55H397.546ZM349.648 1313C488.735 1072.52 635.021 1026.38 786.789 1077.16C900.401 1115.18 1017.06 1207.46 1136.06 1313H1135.19C1016.42 1207.7 900.005 1115.7 786.655 1077.77C635.174 1027.08 489.15 1073.11 350.274 1313H349.648ZM305.144 1313C435.062 1055.56 579.06 997.791 732.429 1041.31C863.476 1078.5 1001.34 1189.57 1143.1 1313H1142.21C1000.71 1189.81 863.092 1079.03 732.314 1041.92C579.229 998.479 435.485 1056.14 305.751 1313H305.148H305.144ZM263.827 1313C383.256 1039.74 523.855 970.435 677.927 1006.33C825.864 1040.8 986.183 1172.22 1152.09 1313H1151.2C985.55 1172.46 825.488 1041.35 677.831 1006.95C524.039 971.114 383.682 1040.3 264.411 1313H263.827ZM225.528 1313C333.353 1024.87 469.583 944.202 623.556 972.283C784.555 1001.64 964.908 1149.9 1152.47 1304.07L1163.33 1313H1162.41L1152.18 1304.6C964.674 1150.46 784.366 1002.24 623.487 972.907C469.791 944.877 333.791 1025.42 226.104 1313H225.536L225.528 1313ZM190.143 1313C285.402 1010.79 416.402 918.965 569.576 939.157C734.556 960.912 925.215 1112.65 1124.63 1271.35C1142.04 1285.2 1159.52 1299.11 1177.05 1313H1176.11C1158.8 1299.29 1141.54 1285.56 1124.35 1271.87C924.985 1113.21 734.38 961.519 569.522 939.782C416.621 919.622 285.832 1011.31 190.688 1313H190.147H190.143ZM157.565 1313C239.42 997.329 364.434 894.575 516.195 906.933C684.339 920.627 885.261 1075.62 1096.65 1238.68C1128.73 1263.42 1161.04 1288.34 1193.52 1312.99H1192.55C1160.31 1288.51 1128.22 1263.77 1096.37 1239.21C885.046 1076.19 684.178 921.238 516.161 907.553C364.665 895.214 239.846 997.809 158.087 1312.99H157.565V1313ZM127.663 1313C195.357 984.265 313.749 870.882 463.605 875.547C634.053 880.858 845.131 1038.85 1068.54 1206.06C1116.22 1241.75 1164.47 1277.86 1213 1313H1212C1163.71 1278.03 1115.71 1242.11 1068.27 1206.6C844.923 1039.43 633.9 881.479 463.594 876.176C313.998 871.516 195.795 984.736 128.173 1313H127.659H127.663ZM100.36 1313C153.196 971.436 264.411 847.724 411.96 844.916C583.825 841.647 804.896 1002.36 1040.3 1173.49C1104.64 1220.27 1170.05 1267.81 1235.82 1313H1234.77C1169.27 1267.97 1104.12 1220.62 1040.04 1174.03C804.701 1002.95 583.686 842.276 411.968 845.546C264.68 848.349 153.645 971.893 100.871 1313H100.364L100.36 1313ZM75.595 1313C112.888 958.702 216.448 824.951 361.367 814.938C533.773 803.029 764.624 966.183 1011.94 1140.97C1094.1 1199.03 1178.07 1258.36 1262.32 1313H1261.23C1177.26 1258.51 1093.57 1199.38 1011.69 1141.51C764.435 966.771 533.646 803.667 361.393 815.568C216.732 825.562 113.349 959.146 76.0979 1313H75.595V1313ZM53.3066 1313C74.374 945.932 169.844 802.417 311.891 785.508C483.989 765.022 724.366 930.322 983.469 1108.5C1084.75 1178.14 1188.89 1249.75 1292.93 1313H1291.79C1188.05 1249.88 1084.21 1178.49 983.219 1109.04C724.19 930.915 483.882 765.665 311.94 786.133C170.147 803.011 74.8539 946.353 53.8134 1313H53.3104L53.3066 1313ZM33.4486 1313C37.5876 933.003 124.572 779.979 263.566 756.508C434.567 727.631 684.178 894.788 954.88 1076.06C1076.83 1157.73 1203.05 1242.24 1328.3 1313H1327.07C1202.14 1242.34 1076.26 1158.07 954.63 1076.61C684.005 895.386 434.467 728.283 263.635 757.129C124.894 780.559 38.0713 933.411 33.9477 1313H33.4447H33.4486ZM15.9787 1313C2.4406 919.83 80.5863 757.523 216.406 727.834C385.571 690.855 644.101 859.579 926.179 1043.68C1070.62 1137.95 1221.23 1236.23 1369.18 1313H1367.87C1220.26 1236.31 1070.03 1138.27 925.937 1044.23C643.94 860.182 385.486 691.508 216.494 728.446C80.9281 758.08 2.94358 920.224 16.4856 1313H15.9787ZM-2.99616 1023.01C12.7612 820.517 75.1649 724.914 170.377 699.378C337.051 654.678 604.166 824.702 897.375 1011.33C1066.64 1119.08 1244.61 1232.33 1416.94 1313H1415.52C1243.55 1232.35 1066.01 1119.38 897.133 1011.88C604.016 825.313 336.982 655.339 170.489 699.994C74.4354 725.747 11.8551 823.04 -2.99616 1029.85V1023.01ZM0.847199 1313C-0.646374 1294.01 -1.94029 1275.5 -2.99616 1257.52V1248.29C-1.84047 1269.16 -0.389127 1290.72 1.36553 1313H0.847199ZM-2.99616 820.454C23.1663 736.28 67.221 689.547 125.44 671.053C289.049 619.076 564.408 790.136 868.467 979.021C1065.68 1101.53 1274.95 1231.52 1473.6 1313H1472.01C1273.75 1231.47 1064.99 1101.8 868.237 979.578C564.274 790.752 288.995 619.746 125.574 671.659C67.1595 690.212 23.0473 737.299 -2.99616 822.225V820.454ZM-2.99616 713.66C19.0158 678.253 47.4705 655.28 81.5309 642.777C241.589 584.026 524.849 755.879 839.456 946.747C1069.36 1086.23 1316 1235.81 1543.48 1312.99H1541.59C1314.54 1235.62 1068.56 1086.44 839.226 947.308C524.711 756.495 241.539 584.7 81.6768 643.375C47.5166 655.914 19.0081 679.023 -2.99616 714.688V713.66ZM-2.99616 640.373C9.53219 629.382 23.4121 620.801 38.5782 614.488C194.678 549.501 485.494 721.92 810.349 914.518C1082.17 1075.67 1377.8 1250.89 1638.21 1313H1635.61C1375.73 1250.35 1081.1 1075.73 810.122 915.08C485.364 722.541 194.635 550.176 38.7394 615.077C23.5042 621.421 9.56675 630.052 -3 641.138V640.373H-2.99616ZM-2.99616 585.914C148.976 515.851 446.723 688.451 781.153 882.326C1153.52 1098.19 1571.32 1340.3 1883.8 1303.16V1303.78C1571.18 1340.9 1153.34 1098.77 780.93 882.887C446.473 688.999 148.715 516.389 -2.99616 586.58V585.914Z" fill="#1B8976"/>
<path opacity="0.41" d="M838.822 -6.99548H841.265C887.406 6.2821 936.243 7.4945 988.525 -6.99548H991.043C936.888 8.48975 886.427 7.13259 838.826 -6.99548M799.539 -6.99548H800.864C892.671 47.0196 992.748 58.0081 1106.92 -6.99548H1108.27C993.01 59.1119 892.091 47.8339 799.535 -6.99548H799.539ZM785.22 -6.99548H786.287C790.788 -3.60257 795.3 -0.295617 799.831 2.92086C917.926 86.6985 1046.05 106.771 1194.64 -6.99548H1195.72C1046.59 107.621 918.057 87.5852 799.585 3.54063C794.782 0.129628 789.993 -3.38542 785.216 -6.99548H785.22ZM778.216 -6.99548H779.183C802.12 12.7467 825.294 30.5301 848.764 45.8434C976.978 129.494 1114.1 139.438 1270.16 -6.99548H1271.1C1114.59 140.252 977.097 130.354 848.534 46.4722C824.81 30.996 801.39 12.9955 778.216 -6.99548ZM774.072 -6.99548H774.998C815.932 30.987 857.277 63.8394 899.287 88.8609C1035.55 170.019 1178.83 168.734 1337.75 -6.99548H1338.59C1179.28 169.517 1035.67 170.856 899.076 89.4988C856.82 64.3325 815.237 31.2494 774.072 -6.99548ZM770.874 -6.99548H771.768C831.123 50.3944 890.781 99.1527 951.242 131.734C1093.92 208.626 1241.12 195.339 1399.4 -6.99548H1400.15C1241.55 196.072 1094.04 209.449 951.046 132.39C890.34 99.673 830.447 50.6749 770.874 -6.99548ZM1456.93 -6.99548C1301.83 220.465 1152.27 246.305 1004.25 174.905C925.107 136.737 846.414 70.779 767.537 -6.99548H768.42C847.067 70.4985 925.533 136.194 1004.42 174.245C1152.15 245.5 1301.4 219.755 1456.22 -6.99548H1456.93H1456.93ZM1509.4 -6.99548C1360.13 242.7 1210.21 281.492 1058.42 216.85C960.942 175.335 862.703 91.1998 763.374 -6.99548H764.257C863.352 90.9193 961.357 174.769 1058.58 216.176C1210.08 280.691 1359.72 242.017 1508.74 -6.99548H1509.4ZM1558.15 -6.99548C1416.61 263.256 1267.75 315.109 1113.32 258.036C997.706 215.308 878.993 111.611 757.902 -6.99548H758.789C879.641 111.336 998.113 214.729 1113.45 257.357C1267.6 314.322 1416.2 262.591 1557.51 -6.99548H1558.15ZM1603.43 -6.99548C1471.23 282.32 1324.7 347.238 1168.63 298.33C1035.28 256.538 894.99 131.711 750.741 -6.99548H751.639C895.635 131.44 1035.67 255.941 1168.75 297.647C1324.53 346.464 1470.8 281.669 1602.82 -6.99548H1603.43ZM1645.48 -6.99548C1523.95 300.094 1380.88 377.982 1224.09 337.638C1073.55 298.9 910.411 151.209 741.582 -6.99548H742.496C911.06 150.947 1073.94 298.28 1224.19 336.946C1380.69 377.217 1523.52 299.465 1644.89 -6.99548H1645.48H1645.48ZM1684.45 -6.99548C1574.73 316.805 1436.1 407.464 1279.42 375.905C1115.58 342.908 932.057 176.298 741.194 3.03396L730.143 -6.99548H731.08L741.486 2.45038C932.295 175.67 1115.77 342.239 1279.49 375.209C1435.89 406.708 1574.28 316.186 1683.86 -6.99548H1684.44H1684.45ZM1720.46 -6.99548C1623.52 332.63 1490.22 435.824 1334.35 413.128C1166.47 388.681 972.454 218.162 769.534 39.804C751.816 24.2328 734.029 8.60285 716.185 -7H717.145C734.762 8.4038 752.323 23.8393 769.818 39.2114C972.688 217.52 1166.65 387.998 1334.41 412.427C1490 435.082 1623.09 332.046 1719.91 -7H1720.46V-6.99548ZM1753.61 -6.99548C1670.32 347.758 1543.1 463.234 1388.67 449.341C1217.56 433.951 1013.11 259.773 798.003 76.5198C765.363 48.7115 732.474 20.6997 699.423 -7H700.41C733.223 20.5052 765.874 48.3134 798.28 75.9226C1013.33 259.126 1217.73 433.259 1388.7 448.636C1542.86 462.501 1669.88 347.201 1753.07 -7H1753.6L1753.61 -6.99548ZM1784.04 -6.99548C1715.15 362.438 1594.67 489.862 1442.18 484.614C1268.73 478.647 1053.94 301.094 826.607 113.181C778.081 73.0681 728.987 32.4889 679.601 -6.99548H680.622C729.755 32.2989 778.6 72.67 826.88 112.58C1054.15 300.447 1268.89 477.95 1442.19 483.913C1594.42 489.147 1714.71 361.908 1783.51 -6.99548H1784.04ZM1811.82 -6.99548C1758.06 376.851 1644.88 515.883 1494.74 519.036C1319.85 522.71 1094.88 342.094 855.338 149.779C789.866 97.2165 723.304 43.785 656.38 -6.99548H657.448C724.103 43.6041 790.396 96.8184 855.611 149.178C1095.09 341.447 1319.99 522.008 1494.73 518.34C1644.61 515.191 1757.6 376.344 1811.3 -6.99095H1811.82V-6.99548ZM1837.02 -6.99548C1799.07 391.164 1693.69 541.475 1546.22 552.726C1370.78 566.112 1135.87 382.759 884.196 186.323C800.595 121.075 715.144 54.398 629.412 -6.99548H630.526C715.973 54.2352 801.133 120.682 884.457 185.722C1136.06 382.099 1370.91 565.397 1546.19 552.029C1693.4 540.796 1798.6 390.676 1836.51 -6.99095H1837.02L1837.02 -6.99548ZM1859.7 -6.99548C1838.26 405.519 1741.12 566.804 1596.57 585.804C1421.44 608.826 1176.83 423.058 913.172 222.822C810.111 144.554 704.135 64.0791 598.266 -6.99548H599.43C704.999 63.9344 810.66 144.165 913.43 222.216C1177.02 422.393 1421.55 608.107 1596.52 585.107C1740.81 566.139 1837.78 405.048 1859.19 -6.99548H1859.7ZM1879.91 -6.99548C1875.7 420.045 1787.18 592.015 1645.74 618.394C1471.73 650.844 1217.73 462.994 942.268 259.271C818.171 167.495 689.723 72.5207 562.278 -6.99548H563.522C690.645 72.4031 818.747 167.119 942.518 258.656C1217.9 462.32 1471.83 650.116 1645.67 617.697C1786.85 591.368 1875.2 419.588 1879.4 -6.99548H1879.91ZM1897.69 -6.99548C1911.47 434.851 1831.94 617.259 1693.73 650.622C1521.59 692.179 1258.51 502.56 971.471 295.67C824.491 189.73 671.222 79.2703 520.679 -6.99548H522.008C672.209 79.1889 825.087 189.368 971.717 295.05C1258.68 501.882 1521.68 691.441 1693.64 649.93C1831.59 616.63 1910.95 434.408 1897.17 -6.99548H1897.69ZM1917 318.895C1900.96 546.465 1837.46 653.907 1740.57 682.601C1570.97 732.835 1299.15 541.76 1000.78 332.024C828.531 210.938 647.437 83.663 472.072 -6.99548H473.516C648.516 83.6358 829.172 210.598 1001.03 331.404C1299.3 541.077 1571.04 732.093 1740.46 681.914C1838.2 652.966 1901.89 543.628 1917 311.209V318.895H1917ZM1913.08 -6.99548C1914.6 14.3391 1915.92 35.1489 1917 55.3435V65.7213C1915.82 42.265 1914.34 18.0306 1912.56 -6.99548H1913.09H1913.08ZM1917 546.532C1890.37 641.131 1845.54 693.649 1786.3 714.431C1619.82 772.839 1339.61 580.602 1030.2 368.332C829.522 230.657 616.564 84.5723 414.419 -6.99548H416.039C617.789 84.6311 830.225 230.345 1030.44 367.704C1339.75 579.91 1619.88 772.093 1786.17 713.748C1845.61 692.893 1890.5 639.982 1917 544.533V546.523V546.532ZM1917 666.546C1894.6 706.338 1865.64 732.156 1830.98 746.207C1668.11 812.229 1379.86 619.104 1059.72 404.6C825.766 247.848 574.792 79.7408 343.306 -6.99548H345.234C576.274 79.9534 826.581 247.604 1059.96 403.967C1380 618.403 1668.16 811.478 1830.83 745.533C1865.59 731.441 1894.61 705.47 1917 665.388V666.546ZM1917 748.912C1904.25 761.267 1890.12 770.903 1874.69 778.001C1715.85 851.034 1419.91 657.268 1089.34 440.823C812.737 259.714 511.905 62.7944 246.911 -6.99548H249.556C514.005 63.4005 813.824 259.642 1089.57 440.19C1420.04 656.567 1715.88 850.274 1874.53 777.336C1890.03 770.206 1904.21 760.503 1917 748.048V748.912H1917ZM1917 810.116C1762.35 888.854 1459.37 694.879 1119.05 477.005C740.135 234.408 314.982 -37.6764 -3 4.06088V3.35515C315.128 -38.364 740.319 233.747 1119.28 476.367C1459.62 694.264 1762.62 888.248 1917 809.365V810.111V810.116Z" fill="#1B8976"/>
</g>
<defs>
<clipPath id="clip0_8133_280">
<rect width="1920" height="948" fill="white"/>
</clipPath>
</defs>
</svg>
